{
.appVersion = "3236";
.formatVersion = 3;
DisplayStrings = (
a,
a,
g,
"à",
"ẽ",
"ģ",
f
);
customParameters = (
{
name = vendorID;
value = ADBO;
},
{
name = panose;
value = (
2,
4,
8,
3,
5,
4,
5,
2,
2,
4
);
},
{
name = unicodeRanges;
value = (
0,
1,
2,
7,
9,
29,
32,
33,
57
);
},
{
name = fsType;
value = (
);
},
{
name = "Family Alignment Zones";
value = (
{
pos = 729;
size = 20;
},
{
pos = 669;
size = 15;
},
{
pos = 646;
size = 13;
},
{
pos = 549;
size = 14;
},
{
pos = 527;
size = 13;
},
{
pos = 475;
size = 13;
},
{
pos = 0;
size = -15;
},
{
pos = -239;
size = -10;
}
);
},
{
name = blueScale;
value = 0.0375000014901;
},
{
name = glyphOrder;
value = (
.notdef,
space,
A,
B,
C,
D,
E,
F,
G,
H,
I,
J,
K,
L,
M,
N,
O,
P,
Q,
R,
S,
T,
U,
V,
W,
X,
Y,
Z,
a,
b,
c,
d,
e,
f,
g,
h,
i,
j,
k,
l,
m,
n,
o,
p,
q,
r,
s,
t,
u,
v,
w,
x,
y,
z,
Agrave,
Aacute,
Acircumflex,
Atilde,
Adieresis,
Amacron,
Abreve,
uni1EAE,
uni1EB6,
uni1EB0,
uni1EB2,
uni1EB4,
uni01CD,
uni1EA4,
uni1EAC,
uni1EA6,
uni1EA8,
uni1EAA,
uni1EA0,
uni1EA2,
Aring,
Aogonek,
AE,
Ccedilla,
Cacute,
Ccaron,
Ccircumflex,
Cdotaccent,
Dcaron,
Dcroat,
uni1E0C,
uni1E0E,
Egrave,
Eacute,
Ecircumflex,
Ecaron,
Edieresis,
Emacron,
Edotaccent,
Eogonek,
Ebreve,
uni1EBE,
uni1EC6,
uni1EC0,
uni1EC2,
uni1EC4,
uni1EB8,
uni1EBA,
uni1EBC,
Gbreve,
Gdotaccent,
uni0122,
Gcaron,
Gcircumflex,
uni1E20,
uni00470303,
Hbar,
uni1E2A,
Hcircumflex,
uni1E24,
Igrave,
Iacute,
Icircumflex,
Idieresis,
Imacron,
Idotaccent,
Iogonek,
uni01CF,
uni1ECA,
uni1EC8,
Itilde,
Jcircumflex,
uni0136,
Lacute,
Lcaron,
uni013B,
Ldot,
uni1E36,
uni1E38,
uni1E3A,
Lslash,
uni1E3E,
uni1E42,
Nacute,
Ncaron,
uni01F8,
Ntilde,
uni0145,
uni1E44,
uni1E46,
uni1E48,
Ograve,
Oacute,
uni014E,
Ocircumflex,
Otilde,
Odieresis,
Omacron,
Ohungarumlaut,
uni01D1,
uni1ED0,
uni1ED8,
uni1ED2,
uni1ED4,
uni1ED6,
uni1ECC,
uni1ECE,
Ohorn,
uni1EDA,
uni1EE2,
uni1EDC,
uni1EDE,
uni1EE0,
Oslash,
OE,
Racute,
Rcaron,
uni0156,
uni1E5A,
uni1E5C,
uni1E5E,
Sacute,
Scaron,
uni015E,
uni0218,
Scircumflex,
uni1E60,
uni1E62,

glyphs = (
{
glyphname = .notdef;
layers = (
{
hints = (
{
horizontal = 1;
place = (593,64);
type = Stem;
},
{
horizontal = 1;
place = (0,64);
type = Stem;
},
{
place = (486,74);
type = Stem;
},
{
place = (80,74);
type = Stem;
}
);
layerId = m01;
shapes = (
{
closed = 1;
nodes = (
(80,0,l),
(560,0,l),
(560,657,l),
(80,657,l)
);
},
{
closed = 1;
nodes = (
(207,64,l),
(320,254,l),
(433,64,l)
);
},
{
closed = 1;
nodes = (
(154,533,l),
(276,329,l),
(154,124,l)
);
},
{
closed = 1;
nodes = (
(365,329,l),
(486,533,l),
(486,124,l)
);
},
{
closed = 1;
nodes = (
(207,593,l),
(433,593,l),
(320,403,l)
);
}
);
width = 640;
}
);
note = .notdef;
},
{
glyphname = A;
kernLeft = A;
kernRight = A;
layers = (
{
anchors = (
{
name = bottom;
pos = (303,-22);
},
{
name = ogonek;
pos = (563,0);
},
{
name = top;
pos = (335,685);
}
);
hints = (
{
horizontal = 1;
place = (658,-20);
target = down;
type = TopGhost;
},
{
horizontal = 1;
place = (191,58);
type = Stem;
},
{
horizontal = 1;
place = (0,57);
type = Stem;
},
{
horizontal = 1;
place = (0,55.5);
type = Stem;
},
{
place = (9,215);
type = Stem;
}
);
layerId = m01;
shapes = (
{
closed = 1;
nodes = (
(290,504,l),
(371,249,l),
(207,249,l)
);
},
{
closed = 1;
nodes = (
(9,0,l),
(224,0,l),
(224,54,l),
(148,66,l),
(188,191,l),
(389,191,l),
(430,62,l),
(353,52,l),
(353,0,l),
(662,0,l),
(662,52,l),
(601,59,l),
(396,658,l),
(293,658,l),
(90,66,l),
(9,54,l)
);
}
);
width = 675;
}
);
note = A;
unicode = 65;
},
{
glyphname = B;
kernLeft = B;
kernRight = B;
layers = (
{
anchors = (
{
name = bottom;
pos = (342,-22);
},
{
name = top;
pos = (304,685);
}
);
hints = (
{
horizontal = 1;
place = (599,58);
type = Stem;
},
{
horizontal = 1;
place = (317,53);
type = Stem;
},
{
horizontal = 1;
place = (0,58);
type = Stem;
},
{
place = (456,172);
type = Stem;
},
{
place = (427,162);
type = Stem;
},
{
place = (110,165);
type = Stem;
}
);
layerId = m01;
shapes = (
{
closed = 1;
nodes = (
(110,314,ls),
(110,228,o),
(110,144,o),
(108,62,c),
(33,54,l),
(33,0,l),
(318,0,ls),
(566,0,o),
(628,101,o),
(628,184,cs),
(628,274,o),
(568,334,o),
(419,352,c),
(550,376,o),
(589,434,o),
(589,502,cs),
(589,590,o),
(526,657,o),
(356,657,cs),
(33,657,l),
(33,603,l),
(108,595,l),
(110,511,o),
(110,426,o),
(110,343,cs)
);
},
{
closed = 1;
nodes = (
(309,317,ls),
(408,317,o),
(456,277,o),
(456,186,cs),
(456,101,o),
(402,58,o),
(309,58,cs),
(277,58,l),
(275,140,o),
(275,223,o),
(275,317,c)
);
},
{
closed = 1;
nodes = (
(312,599,ls),
(390,599,o),
(427,564,o),
(427,490,cs),
(427,411,o),
(388,370,o),
(303,370,cs),
(275,370,l),
(275,447,o),
(275,524,o),
(277,599,c)
);
}
);
width = 651;
}
);
note = B;
unicode = 66;
},
{
glyphname = C;
kernLeft = C;
kernRight = C;
layers = (
{
anchors = (
{
name = bottom;
pos = (378,0);
},
{
name = bottom_;
pos = (377,-22);
},
{
name = top;
pos = (365,685);
}
);
hints = (
{
horizontal = 1;
place = (619,57);
type = Stem;
},
{
horizontal = 1;
place = (-19,58);
type = Stem;
},
{
place = (34,177);
type = Stem;
}
);
layerId = m01;
shapes = (
{
closed = 1;
nodes = (
(301,39,o),
(211,124,o),
(211,328,cs),
(211,532,o),
(305,619,o),
(411,619,cs),
(436,619,o),
(459,614,o),
(483,602,c),
(512,471,l),
(588,471,l),
(584,626,l),
(524,659,o),
(464,676,o),
(388,676,cs),
(200,676,o),
(34,565,o),
(34,329,cs),
(34,95,o),
(188,-19,o),
(381,-19,cs),
(467,-19,o),
(537,3,o),
(591,32,c),
(595,186,l),
(519,186,l),
(491,58,l),
(463,46,o),
(435,39,o),
(407,39,cs)
);
}
);
width = 622;
}
);
note = C;
unicode = 67;
},
{
glyphname = D;
kernLeft = B;
kernRight = D;
layers = (
{
anchors = (
{
name = bottom;
pos = (324,-22);
},
{
name = top;
pos = (322,685);
}
);
hints = (
{
horizontal = 1;
place = (599,58);
type = Stem;
},
{
horizontal = 1;
place = (0,58);
type = Stem;
},
{
place = (498,173);
type = Stem;
},
{
place = (110,168);
type = Stem;
}
);
layerId = m01;
shapes = (
{
closed = 1;
nodes = (
(110,313,ls),
(110,227,o),
(110,143,o),
(108,62,c),
(33,54,l),
(33,0,l),
(312,0,ls),
(531,0,o),
(671,122,o),
(671,330,cs),
(671,533,o),
(543,657,o),
(330,657,cs),
(33,657,l),
(33,603,l),
(108,595,l),
(110,513,o),
(110,429,o),
(110,347,cs)
);
},
{
closed = 1;
nodes = (
(278,347,ls),
(278,432,o),
(278,516,o),
(280,599,c),
(314,599,ls),
(427,599,o),
(498,505,o),
(498,329,cs),
(498,156,o),
(427,58,o),
(313,58,cs),
(280,58,l),
(278,142,o),
(278,227,o),
(278,314,cs)
);
}
);
width = 705;
}
);
note = D;
unicode = 68;
},
{
glyphname = E;
kernLeft = B;
kernRight = E;
layers = (
{
anchors = (
{
name = bottom;
pos = (332,-22);
},
{
name = ogonek;
pos = (460,0);
},
{
name = top;
pos = (315,685);
}
);
hints = (
{
horizontal = 1;
place = (601,56);
type = Stem;
},
{
horizontal = 1;
place = (599,58);
type = Stem;
},
{
horizontal = 1;
place = (485,172);
type = Stem;
},
{
horizontal = 1;
place = (310,59);
type = Stem;
},
{
horizontal = 1;
place = (0,172);
type = Stem;
},
{
horizontal = 1;
place = (0,58);
type = Stem;
},
{
horizontal = 1;
place = (0,56);
type = Stem;
},
{
place = (398,58);
type = Stem;
},
{
place = (386,70);
type = Stem;
},
{
place = (110,168);
type = Stem;
}
);
layerId = m01;
shapes = (
{
closed = 1;
nodes = (
(110,310,ls),
(110,226,o),
(110,143,o),
(108,62,c),
(33,54,l),
(33,0,l),
(563,0,l),
(570,172,l),
(487,172,l),
(467,56,l),
(280,56,l),
(278,137,o),
(278,218,o),
(278,310,c),
(386,310,l),
(398,232,l),
(456,232,l),
(456,447,l),
(398,447,l),
(386,369,l),
(278,369,l),
(278,447,o),
(278,525,o),
(280,601,c),
(447,601,l),
(467,485,l),
(550,485,l),
(543,657,l),
(33,657,l),
(33,603,l),
(108,595,l),
(110,513,o),
(110,429,o),
(110,347,cs)
);
}
);
width = 595;
}
);
note = E;
unicode = 69;
},
{
glyphname = F;
kernLeft = B;
kernRight = F;
layers = (
{
anchors = (
{
name = bottom;
pos = (202,-22);
},
{
name = top;
pos = (320,685);
}
);
hints = (
{
horizontal = 1;
place = (601,56);
type = Stem;
},
{
horizontal = 1;
place = (599,58);
type = Stem;
},
{
horizontal = 1;
place = (485,172);
type = Stem;
},
{
horizontal = 1;
place = (310,59);
type = Stem;
},
{
horizontal = 1;
place = (0,58.5);
type = Stem;
},
{
horizontal = 1;
place = (0,58);
type = Stem;
},
{
place = (401,58);
type = Stem;
},
{
place = (110,168);
type = Stem;
}
);
layerId = m01;
shapes = (
{
closed = 1;
nodes = (
(110,310,ls),
(110,226,o),
(110,143,o),
(108,62,c),
(33,54,l),
(33,0,l),
(369,0,l),
(369,54,l),
(280,63,l),
(278,141,o),
(278,221,o),
(278,310,c),
(388,310,l),
(401,222,l),
(459,222,l),
(459,447,l),
(401,447,l),
(389,369,l),
(278,369,l),
(278,447,o),
(278,525,o),
(280,601,c),
(454,601,l),
(474,485,l),
(557,485,l),
(550,657,l),
(33,657,l),
(33,603,l),
(108,595,l),
(110,513,o),
(110,429,o),
(110,347,cs)
);
}
);
width = 580;
}
);
note = F;
unicode = 70;
},
{
glyphname = G;
kernLeft = C;
kernRight = G;
layers = (
{
anchors = (
{
name = bottom;
pos = (397,-22);
},
{
name = top;
pos = (375,685);
}
);
hints = (
{
horizontal = 1;
place = (619,57);
type = Stem;
},
{
horizontal = 1;
place = (270,54);
type = Stem;
},
{
horizontal = 1;
place = (266.5,57.5);
type = Stem;
},
{
horizontal = 1;
place = (-19,57);
type = Stem;
},
{
place = (447,159);
type = Stem;
},
{
place = (447,140);
type = Stem;
},
{
place = (34,177);
type = Stem;
}
);
layerId = m01;
shapes = (
{
closed = 1;
nodes = (
(606,82,ls),
(606,144,o),
(607,203,o),
(608,263,c),
(660,270,l),
(660,324,l),
(355,324,l),
(355,270,l),
(445,258,l),
(446,200,o),
(447,144,o),
(447,85,cs),
(447,42,l),
(435,39,o),
(423,38,o),
(409,38,cs),
(299,38,o),
(211,131,o),
(211,330,cs),
(211,529,o),
(303,619,o),
(411,619,cs),
(435,619,o),
(459,614,o),
(483,604,c),
(512,474,l),
(589,474,l),
(585,630,l),
(527,661,o),
(457,676,o),
(392,676,cs),
(165,676,o),
(34,540,o),
(34,330,cs),
(34,112,o),
(174,-19,o),
(380,-19,cs),
(468,-19,o),
(536,0,o),
(606,40,c)
);
}
);
width = 675;
}
);
note = G;
unicode = 71;
},
{
glyphname = H;
kernLeft = B;
kernRight = H;
layers = (
{
anchors = (
{
name = bottom;
pos = (383,-22);
},
{
name = top;
pos = (383,685);
}
);
hints = (
{
horizontal = 1;
place = (599.5,57.5);
type = Stem;
},
{
horizontal = 1;
place = (599,58);
type = Stem;
},
{
horizontal = 1;
place = (308,59);
type = Stem;
},
{
horizontal = 1;
place = (0,58);
type = Stem;
},
{
horizontal = 1;
place = (0,57.5);
type = Stem;
},
{
place = (489,168);
type = Stem;
},
{
place = (108,168);
type = Stem;
}
);
layerId = m01;
shapes = (
{
closed = 1;
nodes = (
(108,310,ls),
(108,226,o),
(108,143,o),
(106,62,c),
(33,54,l),
(33,0,l),
(348,0,l),
(348,54,l),
(278,61,l),
(276,140,o),
(276,219,o),
(276,308,c),
(489,308,l),
(489,227,o),
(489,143,o),
(487,61,c),
(417,54,l),
(417,0,l),
(733,0,l),
(733,54,l),
(659,62,l),
(657,144,o),
(657,228,o),
(657,310,cs),
(657,347,ls),
(657,431,o),
(657,514,o),
(659,595,c),
(733,603,l),
(733,657,l),
(417,657,l),
(417,603,l),
(487,596,l),
(489,520,o),
(489,443,o),
(489,367,c),
(276,367,l),
(276,431,o),
(276,514,o),
(278,596,c),
(348,603,l),
(348,657,l),
(33,657,l),
(33,603,l),
(106,595,l),
(108,512,o),
(108,429,o),
(108,347,cs)
);
}
);
width = 765;
}
);
note = H;
unicode = 72;
},
{
glyphname = I;
kernLeft = B;
kernRight = H;
layers = (
{
anchors = (
{
name = bottom;
pos = (194,-22);
},
{
name = ogonek;
pos = (242,0);
},
{
name = top;
pos = (194,685);
}
);
hints = (
{
horizontal = 1;
place = (599,58);
type = Stem;
},
{
horizontal = 1;
place = (0,58);
type = Stem;
},
{
place = (110,168);
type = Stem;
}
);
layerId = m01;
shapes = (
{
closed = 1;
nodes = (
(110,310,ls),
(110,226,o),
(110,143,o),
(108,62,c),
(33,54,l),
(33,0,l),
(355,0,l),
(355,54,l),
(280,62,l),
(278,144,o),
(278,228,o),
(278,311,cs),
(278,347,ls),
(278,431,o),
(278,514,o),
(280,595,c),
(355,603,l),
(355,657,l),
(33,657,l),
(33,603,l),
(108,595,l),
(110,513,o),
(110,429,o),
(110,347,cs)
);
}
);
width = 388;
}
);
note = I;
unicode = 73;
},
{
glyphname = J;
kernLeft = J;
kernRight = J;
layers = (
{
anchors = (
{
name = bottom;
pos = (111,-168);
},
{
name = top;
pos = (201,685);
}
);
hints = (
{
horizontal = 1;
place = (599,58);
type = Stem;
},
{
horizontal = 1;
place = (598.5,58.5);
type = Stem;
},
{
horizontal = 1;
place = (-173,137);
type = Stem;
},
{
place = (128,162);
type = Stem;
}
);
layerId = m01;
shapes = (
{
closed = 1;
nodes = (
(35,603,l),
(120,594,l),
(124,294,o),
(128,130,o),
(128,37,cs),
(128,-37,o),
(122,-86,o),
(106,-116,c),
(85,-91,ls),
(54,-54,o),
(28,-36,o),
(-6,-36,cs),
(-50,-36,o),
(-84,-64,o),
(-85,-110,c),
(-62,-153,o),
(-20,-173,o),
(35,-173,cs),
(126,-173,o),
(206,-125,o),
(245,-38,cs),
(277,26,o),
(290,115,o),
(290,252,cs),
(290,356,ls),
(290,437,o),
(290,517,o),
(291,595,c),
(368,603,l),
(368,657,l),
(35,657,l)
);
}
);
width = 395;
}
);
note = J;
unicode = 74;
},
{
glyphname = K;
kernLeft = B;
kernRight = K;
layers = (
{
anchors = (
{
name = bottom;
pos = (372,-22);
},
{
name = top;
pos = (364,685);
}
);
hints = (
{
horizontal = 1;
place = (603,54);
type = Stem;
},
{
horizontal = 1;
place = (599,58);
type = Stem;
},
{
horizontal = 1;
place = (0,58);
type = Stem;
},
{
horizontal = 1;
place = (0,57.5);
type = Stem;
},
{
horizontal = 1;
place = (0,56.5);
type = Stem;
},
{
place = (428,232);
type = Stem;
},
{
place = (110,160);
type = Stem;
}
);
layerId = m01;
shapes = (
{
closed = 1;
nodes = (
(110,310,ls),
(110,226,o),
(110,143,o),
(108,62,c),
(33,54,l),
(33,0,l),
(337,0,l),
(337,54,l),
(272,62,l),
(270,122,o),
(270,182,o),
(270,240,c),
(327,308,l),
(450,59,l),
(402,54,l),
(402,0,l),
(691,0,l),
(691,54,l),
(630,61,l),
(433,433,l),
(565,591,l),
(660,603,l),
(660,657,l),
(428,657,l),
(428,603,l),
(494,591,l),
(270,314,l),
(270,347,ls),
(270,431,o),
(270,514,o),
(272,595,c),
(348,603,l),
(348,657,l),
(33,657,l),
(33,603,l),
(108,595,l),
(110,513,o),
(110,429,o),
(110,347,cs)
);
}
);
width = 696;
}
);
note = K;
unicode = 75;
},
{
glyphname = L;
kernLeft = B;
kernRight = L;
layers = (
{
anchors = (
{
name = bottom;
pos = (310,-22);
},
{
name = top;
pos = (199,685);
}
);
hints = (
{
horizontal = 1;
place = (599,58);
type = Stem;
},
{
horizontal = 1;
place = (0,196);
type = Stem;
},
{
horizontal = 1;
place = (0,58);
type = Stem;
},
{
horizontal = 1;
place = (0,57);
type = Stem;
},
{
place = (110,168);
type = Stem;
}
);
layerId = m01;
shapes = (
{
closed = 1;
nodes = (
(110,289,ls),
(110,223,o),
(110,143,o),
(108,62,c),
(33,54,l),
(33,0,l),
(551,0,l),
(561,196,l),
(480,196,l),
(453,57,l),
(280,57,l),
(278,140,o),
(278,222,o),
(278,294,cs),
(278,347,ls),
(278,430,o),
(278,513,o),
(280,595,c),
(363,603,l),
(363,657,l),
(33,657,l),
(33,603,l),
(108,595,l),
(110,513,o),
(110,430,o),
(110,347,cs)
);
}
);
width = 580;
}
);
note = L;
unicode = 76;
},
{
glyphname = M;
kernLeft = M;
kernRight = H;
layers = (
{
anchors = (
{
name = bottom;
pos = (401,-22);
},
{
name = top;
pos = (441,685);
}
);
hints = (
{
horizontal = 1;
place = (599,58);
type = Stem;
},
{
horizontal = 1;
place = (598,59);
type = Stem;
},
{
horizontal = 1;
place = (0,60);
type = Stem;
},
{
horizontal = 1;
place = (0,58.5);
type = Stem;
},
{
horizontal = 1;
place = (0,58);
type = Stem;
},
{
place = (617,170);
type = Stem;
},
{
place = (115,65);
type = Stem;
}
);
layerId = m01;
shapes = (
{
closed = 1;
nodes = (
(18,0,l),
(262,0,l),
(262,54,l),
(180,67,l),
(180,311,l),
(175,511,l),
(366,0,l),
(443,0,l),
(621,510,l),
(619,289,ls),
(618,223,o),
(619,144,o),
(617,63,c),
(544,54,l),
(544,0,l),
(863,0,l),
(863,54,l),
(789,62,l),
(787,144,o),
(787,227,o),
(787,310,cs),
(787,347,ls),
(787,430,o),
(787,513,o),
(789,595,c),
(860,603,l),
(860,657,l),
(607,657,l),
(454,217,l),
(291,657,l),
(27,657,l),
(27,603,l),
(115,593,l),
(115,66,l),
(18,54,l)
);
}
);
width = 896;
}
);
note = M;
unicode = 77;
},
{
glyphname = N;
kernLeft = M;
kernRight = N;
layers = (
{
anchors = (
{
name = bottom;
pos = (380,-22);
},
{
name = top;
pos = (359,685);
}
);
hints = (
{
horizontal = 1;
place = (603,54);
type = Stem;
},
{
horizontal = 1;
place = (599.5,57.5);
type = Stem;
},
{
horizontal = 1;
place = (596.5,60.5);
type = Stem;
},
{
horizontal = 1;
place = (0,60.5);
type = Stem;
},
{
place = (550,64);
type = Stem;
},
{
place = (436,178);
type = Stem;
},
{
place = (113,179);
type = Stem;
},
{
place = (113,65);
type = Stem;
}
);
layerId = m01;
shapes = (
{
closed = 1;
nodes = (
(436,603,l),
(550,590,l),
(550,253,l),
(256,657,l),
(30,657,l),
(30,603,l),
(99,596,l),
(113,577,l),
(113,66,l),
(28,54,l),
(28,0,l),
(292,0,l),
(292,54,l),
(178,67,l),
(178,486,l),
(530,-2,l),
(614,-2,l),
(614,590,l),
(699,603,l),
(699,657,l),
(436,657,l)
);
}
);
width = 728;
}
);
note = N;
unicode = 78;
},
{
glyphname = O;
kernLeft = C;
kernRight = O;
layers = (
{
anchors = (
{
name = bottom;
pos = (351,-22);
},
{
name = ogonek;
pos = (441,0);
},
{
name = top;
pos = (351,685);
},
{
name = topright;
pos = (496,666);
}
);
hints = (
{
horizontal = 1;
place = (618,58);
type = Stem;
},
{
horizontal = 1;
place = (-19,58);
type = Stem;
},
{
place = (491,177);
type = Stem;
},
{
place = (34,177);
type = Stem;
}
);
layerId = m01;
shapes = (
{
closed = 1;
nodes = (
(211,494,o),
(251,618,o),
(351,618,cs),
(452,618,o),
(491,494,o),
(491,329,cs),
(491,163,o),
(452,39,o),
(351,39,cs),
(251,39,o),
(211,163,o),
(211,329,cs)
);
},
{
closed = 1;
nodes = (
(187,676,o),
(34,559,o),
(34,329,cs),
(34,95,o),
(186,-19,o),
(351,-19,cs),
(516,-19,o),
(668,98,o),
(668,329,cs),
(668,562,o),
(515,676,o),
(351,676,cs)
);
}
);
width = 702;
}
);
note = O;
unicode = 79;
},
{
glyphname = P;
kernLeft = B;
kernRight = P;
layers = (
{
anchors = (
{
name = bottom;
pos = (199,-22);
},
{
name = top;
pos = (298,685);
}
);
hints = (
{
horizontal = 1;
place = (599,58);
type = Stem;
},
{
horizontal = 1;
place = (251,56);
type = Stem;
},
{
horizontal = 1;
place = (0,58.5);
type = Stem;
},
{
horizontal = 1;
place = (0,58);
type = Stem;
},
{
place = (439,157);
type = Stem;
},
{
place = (110,168);
type = Stem;
}
);
layerId = m01;
shapes = (
{
closed = 1;
nodes = (
(110,310,ls),
(110,226,o),
(110,143,o),
(108,62,c),
(33,54,l),
(33,0,l),
(369,0,l),
(369,54,l),
(280,63,l),
(278,130,o),
(278,194,o),
(278,251,c),
(306,251,ls),
(523,251,o),
(596,345,o),
(596,459,cs),
(596,579,o),
(513,657,o),
(305,657,cs),
(33,657,l),
(33,603,l),
(108,595,l),
(110,513,o),
(110,429,o),
(110,347,cs)
);
},
{
closed = 1;
nodes = (
(303,599,ls),
(390,599,o),
(439,552,o),
(439,460,cs),
(439,369,o),
(395,307,o),
(307,307,cs),
(278,307,l),
(278,347,ls),
(278,432,o),
(278,516,o),
(280,599,c)
);
}
);
width = 613;
}
);
note = P;
unicode = 80;
},
{
glyphname = Q;
kernLeft = C;
kernRight = O;
layers = (
{
anchors = (
{
name = top;
pos = (351,685);
}
);
hints = (
{
horizontal = 1;
place = (618,58);
type = Stem;
},
{
horizontal = 1;
place = (-11,50);
type = Stem;
},
{
horizontal = 1;
place = (-206,76);
type = Stem;
},
{
horizontal = 1;
place = (-9,21);
target = up;
type = BottomGhost;
},
{
horizontal = 1;
place = (-11,21);
target = up;
type = BottomGhost;
},
{
place = (491,177);
type = Stem;
},
{
place = (34,177);
type = Stem;
}
);
layerId = m01;
shapes = (
{
closed = 1;
nodes = (
(211,494,o),
(251,618,o),
(351,618,cs),
(452,618,o),
(491,494,o),
(491,329,cs),
(491,163,o),
(452,39,o),
(351,39,cs),
(251,39,o),
(211,163,o),
(211,329,cs)
);
},
{
closed = 1;
nodes = (
(187,676,o),
(34,559,o),
(34,329,cs),
(34,135,o),
(138,24,o),
(267,-9,c),
(274,-125,o),
(355,-206,o),
(493,-206,cs),
(547,-206,o),
(597,-196,o),
(631,-174,c),
(609,-118,l),
(584,-128,o),
(557,-130,o),
(537,-130,cs),
(471,-130,o),
(428,-86,o),
(426,-11,c),
(559,20,o),
(668,133,o),
(668,329,cs),
(668,562,o),
(515,676,o),
(351,676,cs)
);
}
);
width = 702;
}
);
note = Q;
unicode = 81;
},
{
glyphname = R;
kernLeft = B;
kernRight = R;
layers = (
{
anchors = (
{
name = bottom;
pos = (378,-22);
},
{
name = top;
pos = (316,685);
}
);
hints = (
{
horizontal = 1;
place = (599,58);
type = Stem;
},
{
horizontal = 1;
place = (302,56);
type = Stem;
},
{
horizontal = 1;
place = (0,58);
type = Stem;
},
{
horizontal = 1;
place = (-14,21);
target = up;
type = BottomGhost;
},
{
place = (443,160);
type = Stem;
},
{
place = (110,165);
type = Stem;
}
);
layerId = m01;
shapes = (
{
closed = 1;
nodes = (
(317,599,ls),
(399,599,o),
(443,561,o),
(443,480,cs),
(443,416,o),
(412,358,o),
(313,358,cs),
(275,358,l),
(275,432,o),
(275,516,o),
(277,599,c)
);
},
{
closed = 1;
nodes = (
(110,310,ls),
(110,226,o),
(110,143,o),
(108,62,c),
(33,54,l),
(33,0,l),
(355,0,l),
(355,54,l),
(277,62,l),
(275,139,o),
(275,216,o),
(275,302,c),
(311,302,ls),
(371,302,o),
(396,271,o),
(406,204,cs),
(424,88,ls),
(434,10,o),
(484,-14,o),
(569,-14,cs),
(615,-14,o),
(631,-11,o),
(679,0,c),
(679,54,l),
(603,62,l),
(584,173,ls),
(569,266,o),
(537,318,o),
(424,333,c),
(558,354,o),
(603,424,o),
(603,491,cs),
(603,595,o),
(515,657,o),
(358,657,cs),
(33,657,l),
(33,603,l),
(108,595,l),
(110,513,o),
(110,429,o),
(110,347,cs)
);
}
);
width = 683;
}
);
note = R;
unicode = 82;
},
{
glyphname = S;
kernLeft = S;
kernRight = S;
layers = (
{
anchors = (
{
name = bottom;
pos = (257,0);
},
{
name = bottom_;
pos = (260,-22);
},
{
name = top;
pos = (277,685);
}
);
hints = (
{
horizontal = 1;
place = (616,60);
type = Stem;
},
{
horizontal = 1;
place = (-19,60);
type = Stem;
},
{
place = (360,152);
type = Stem;
},
{
place = (46,148);
type = Stem;
}
);
layerId = m01;
shapes = (
{
closed = 1;
nodes = (
(213,41,o),
(183,47,o),
(153,59,c),
(133,182,l),
(40,182,l),
(34,34,l),
(91,-2,o),
(176,-19,o),
(251,-19,cs),
(422,-19,o),
(512,65,o),
(512,183,cs),
(512,284,o),
(459,339,o),
(332,397,cs),
(285,418,ls),
(226,445,o),
(194,472,o),
(194,525,cs),
(194,580,o),
(240,616,o),
(297,616,cs),
(322,616,o),
(343,611,o),
(364,603,c),
(383,485,l),
(475,485,l),
(483,625,l),
(435,657,o),
(366,676,o),
(294,676,cs),
(143,676,o),
(46,603,o),
(46,483,cs),
(46,372,o),
(114,313,o),
(231,259,cs),
(274,240,ls),
(334,213,o),
(360,189,o),
(360,136,cs),
(360,82,o),
(322,41,o),
(250,41,cs)
);
}
);
width = 541;
}
);
note = S;
unicode = 83;
},
{
glyphname = T;
kernLeft = T;
kernRight = T;
layers = (
{
anchors = (
{
name = bottom;
pos = (317,0);
},
{
name = bottom_;
pos = (317,-22);
},
{
name = top;
pos = (317,685);
}
);
hints = (
{
horizontal = 1;
place = (601,56);
type = Stem;
},
{
horizontal = 1;
place = (471,186);
type = Stem;
},
{
horizontal = 1;
place = (0,58.5);
type = Stem;
},
{
place = (513,99.5);
type = Stem;
},
{
place = (233,168);
type = Stem;
},
{
place = (22,100);
type = Stem;
}
);
layerId = m01;
shapes = (
{
closed = 1;
nodes = (
(233,310,ls),
(233,227,o),
(233,144,o),
(231,63,c),
(146,54,l),
(146,0,l),
(489,0,l),
(489,54,l),
(403,63,l),
(401,145,o),
(401,228,o),
(401,311,cs),
(401,347,ls),
(401,433,o),
(401,518,o),
(403,601,c),
(513,601,l),
(531,471,l),
(614,471,l),
(611,657,l),
(24,657,l),
(20,471,l),
(103,471,l),
(122,601,l),
(231,601,l),
(233,516,o),
(233,431,o),
(233,347,cs)
);
}
);
width = 634;
}
);
note = T;
unicode = 84;
},
{
glyphname = U;
kernLeft = U;
kernRight = U;
layers = (
{
anchors = (
{
name = bottom;
pos = (382,-22);
},
{
name = ogonek;
pos = (454,0);
},
{
name = top;
pos = (410,685);
},
{
name = topright;
pos = (608,680);
}
);
hints = (
{
horizontal = 1;
place = (599.5,57.5);
type = Stem;
},
{
horizontal = 1;
place = (599,58);
type = Stem;
},
{
horizontal = 1;
place = (-19,91);
type = Stem;
},
{
place = (557,65);
type = Stem;
},
{
place = (103,168);
type = Stem;
}
);
layerId = m01;
shapes = (
{
closed = 1;
nodes = (
(271,357,ls),
(271,437,o),
(271,516,o),
(272,595,c),
(355,603,l),
(355,657,l),
(29,657,l),
(29,603,l),
(101,596,l),
(103,516,o),
(103,436,o),
(103,357,cs),
(103,248,ls),
(103,54,o),
(211,-19,o),
(359,-19,cs),
(524,-19,o),
(622,71,o),
(622,283,cs),
(622,596,l),
(705,603,l),
(705,657,l),
(466,657,l),
(466,603,l),
(557,595,l),
(557,283,ls),
(557,132,o),
(503,72,o),
(414,72,cs),
(319,72,o),
(271,127,o),
(271,280,cs)
);
}
);
width = 731;
}
);
note = U;
unicode = 85;
},
{
glyphname = V;
kernLeft = V;
kernRight = V;
layers = (
{
anchors = (
{
name = bottom;
pos = (333,-22);
},
{
name = top;
pos = (362,685);
}
);
hints = (
{
horizontal = 1;
place = (606,51);
type = Stem;
},
{
horizontal = 1;
place = (603,54);
type = Stem;
},
{
horizontal = 1;
place = (600.5,56.5);
type = Stem;
},
{
horizontal = 1;
place = (600,57);
type = Stem;
},
{
horizontal = 1;
place = (-2,21);
target = up;
type = BottomGhost;
},
{
place = (442,217);
type = Stem;
},
{
place = (8,651);
type = Stem;
}
);
layerId = m01;
shapes = (
{
closed = 1;
nodes = (
(281,-2,l),
(378,-2,l),
(584,591,l),
(659,603,l),
(659,657,l),
(442,657,l),
(442,606,l),
(520,593,l),
(382,183,l),
(245,595,l),
(330,606,l),
(330,657,l),
(8,657,l),
(8,603,l),
(66,597,l)
);
}
);
width = 661;
}
);
note = V;
unicode = 86;
},
{
glyphname = W;
kernLeft = W;
kernRight = W;
layers = (
{
anchors = (
{
name = bottom;
pos = (494,-22);
},
{
name = top;
pos = (538,685);
}
);
hints = (
{
horizontal = 1;
place = (603,54);
type = Stem;
},
{
horizontal = 1;
place = (600,57);
type = Stem;
},
{
horizontal = 1;
place = (599,58);
type = Stem;
},
{
horizontal = 1;
place = (598.5,58.5);
type = Stem;
},
{
horizontal = 1;
place = (597.5,59.5);
type = Stem;
},
{
horizontal = 1;
place = (-2,21);
target = up;
type = BottomGhost;
},
{
place = (767,211);
type = Stem;
}
);
layerId = m01;
shapes = (
{
closed = 1;
nodes = (
(626,-2,l),
(724,-2,l),
(900,590,l),
(978,603,l),
(978,657,l),
(767,657,l),
(767,603,l),
(838,592,l),
(723,186,l),
(607,592,l),
(694,603,l),
(694,657,l),
(394,657,l),
(394,603,l),
(467,594,l),
(347,193,l),
(245,595,l),
(318,603,l),
(318,657,l),
(8,657,l),
(8,603,l),
(69,597,l),
(248,-2,l),
(346,-2,l),
(485,454,l)
);
}
);
width = 981;
}
);
note = W;
unicode = 87;
},
{
glyphname = X;
kernLeft = X;
kernRight = X;
layers = (
{
anchors = (
{
name = bottom;
pos = (304,-22);
},
{
name = top;
pos = (334,685);
}
);
hints = (
{
horizontal = 1;
place = (600.5,56.5);
type = Stem;
},
{
horizontal = 1;
place = (600,57);
type = Stem;
},
{
horizontal = 1;
place = (599.5,57.5);
type = Stem;
},
{
horizontal = 1;
place = (599,58);
type = Stem;
},
{
horizontal = 1;
place = (0,58);
type = Stem;
},
{
horizontal = 1;
place = (0,57.5);
type = Stem;
},
{
horizontal = 1;
place = (0,56.5);
type = Stem;
},
{
place = (405,209);
type = Stem;
},
{
place = (7,213);
type = Stem;
}
);
layerId = m01;
shapes = (
{
closed = 1;
nodes = (
(11,603,l),
(80,595,l),
(249,306,l),
(85,61,l),
(7,54,l),
(7,0,l),
(220,0,l),
(220,54,l),
(157,59,l),
(280,253,l),
(391,62,l),
(318,54,l),
(318,0,l),
(647,0,l),
(647,54,l),
(576,61,l),
(394,373,l),
(539,597,l),
(614,603,l),
(614,657,l),
(405,657,l),
(405,603,l),
(467,598,l),
(363,426,l),
(264,596,l),
(324,603,l),
(324,657,l),
(11,657,l)
);
}
);
width = 654;
}
);
note = X;
unicode = 88;
},
{
glyphname = Y;
kernLeft = Y;
kernRight = Y;
layers = (
{
anchors = (
{
name = bottom;
pos = (312,-22);
},
{
name = top;
pos = (351,685);
}
);
hints = (
{
horizontal = 1;
place = (603,54);
type = Stem;
},
{
horizontal = 1;
place = (600,57);
type = Stem;
},
{
horizontal = 1;
place = (598.5,58.5);
type = Stem;
},
{
horizontal = 1;
place = (0,58.5);
type = Stem;
},
{
place = (415,207);
type = Stem;
},
{
place = (230,168);
type = Stem;
}
);
layerId = m01;
shapes = (
{
closed = 1;
nodes = (
(415,603,l),
(484,592,l),
(369,341,l),
(255,594,l),
(330,603,l),
(330,657,l),
(8,657,l),
(8,603,l),
(64,597,l),
(230,258,l),
(230,173,o),
(230,117,o),
(229,63,c),
(143,54,l),
(143,0,l),
(486,0,l),
(486,54,l),
(399,63,l),
(398,123,o),
(398,183,o),
(398,284,c),
(549,591,l),
(622,603,l),
(622,657,l),
(415,657,l)
);
}
);
width = 624;
}
);
note = Y;
unicode = 89;
},
{
glyphname = Z;
kernLeft = Z;
kernRight = Z;
layers = (
{
anchors = (
{
name = bottom;
pos = (289,-22);
},
{
name = top;
pos = (295,685);
}
);
hints = (
{
horizontal = 1;
place = (600,57);
type = Stem;
},
{
horizontal = 1;
place = (471,186);
type = Stem;
},
{
horizontal = 1;
place = (0,186);
type = Stem;
},
{
horizontal = 1;
place = (0,57);
type = Stem;
},
{
place = (20,523);
type = Stem;
}
);
layerId = m01;
shapes = (
{
closed = 1;
nodes = (
(109,471,l),
(135,600,l),
(341,600,l),
(20,46,l),
(20,0,l),
(535,0,l),
(543,186,l),
(463,186,l),
(437,57,l),
(211,57,l),
(533,611,l),
(533,657,l),
(38,657,l),
(30,471,l)
);
}
);
width = 563;
}
);
note = Z;
unicode = 90;
},
{
glyphname = a;
kernLeft = a;
kernRight = a;
lastChange = "2024-07-16 17:25:20 +0000";
layers = (
{
anchors = (
{
name = bottom;
pos = (254,-22);
},
{
name = ogonek;
pos = (459,0);
},
{
name = top;
pos = (258,516);
}
);
hints = (
{
horizontal = 1;
origin = (1,28);
target = (0,9);
type = Stem;
},
{
horizontal = 1;
origin = (1,22);
target = (0,2);
type = Stem;
},
{
horizontal = 1;
origin = (1,5);
target = (1,12);
type = Stem;
},
{
horizontal = 1;
origin = (1,17);
target = down;
type = TopGhost;
},
{
origin = (1,25);
target = (0,12);
type = Stem;
},
{
origin = (0,6);
target = (1,16);
type = Stem;
}
);
layerId = m01;
shapes = (
{
closed = 1;
nodes = (
(198,367,o),
(248,414,o),
(313,414,cs),
(331,414,o),
(347,410,o),
(365,399,c),
(365,96,l),
(345,80,o),
(326,72,o),
(302,72,cs),
(241,72,o),
(198,114,o),
(198,238,cs)
);
},
{
closed = 1;
nodes = (
(289,-15,o),
(337,7,o),
(378,58,c),
(391,16,o),
(428,-14,o),
(483,-14,cs),
(544,-14,o),
(580,7,o),
(604,61,c),
(577,79,l),
(566,62,o),
(557,57,o),
(547,57,cs),
(533,57,o),
(524,66,o),
(524,86,cs),
(524,354,l),
(527,489,l),
(498,499,l),
(386,442,l),
(351,482,o),
(311,499,o),
(264,499,cs),
(138,499,o),
(35,399,o),
(35,226,cs),
(35,66,o),
(119,-15,o),
(227,-15,cs)
);
}
);
width = 583;
}
);
note = a;
unicode = 97;
},
{
glyphname = b;
kernLeft = b;
kernRight = b;
layers = (
{
anchors = (
{
name = bottom;
pos = (303,-22);
},
{
name = top;
pos = (153,718);
}
);
hints = (
{
horizontal = 1;
place = (726,-20);
target = down;
type = TopGhost;
},
{
horizontal = 1;
place = (716,-20);
target = down;
type = TopGhost;
},
{
horizontal = 1;
place = (412,87);
type = Stem;
},
{
horizontal = 1;
place = (-15,84);
type = Stem;
},
{
horizontal = 1;
place = (-1,21);
target = up;
type = BottomGhost;
},
{
place = (412,169);
type = Stem;
},
{
place = (83,160);
type = Stem;
},
{
place = (83,157);
type = Stem;
}
);
layerId = m01;
shapes = (
{
closed = 1;
nodes = (
(285,69,o),
(263,79,o),
(243,97,c),
(243,383,l),
(264,400,o),
(287,412,o),
(312,412,cs),
(372,412,o),
(412,361,o),
(412,243,cs),
(412,125,o),
(369,69,o),
(311,69,cs)
);
},
{
closed = 1;
nodes = (
(29,-1,l),
(218,-14,l),
(235,45,l),
(269,5,o),
(311,-15,o),
(367,-15,cs),
(480,-15,o),
(581,84,o),
(581,246,cs),
(581,412,o),
(494,499,o),
(385,499,cs),
(329,499,o),
(282,478,o),
(240,435,c),
(240,576,l),
(244,716,l),
(228,726,l),
(21,681,l),
(21,639,l),
(83,631,l),
(83,209,ls),
(83,167,o),
(83,105,o),
(82,57,c),
(29,46,l)
);
}
);
width = 610;
}
);
note = b;
unicode = 98;
},
{
glyphname = c;
kernLeft = c;
kernRight = c;
layers = (
{
anchors = (
{
name = bottom;
pos = (283,0);
},
{
name = bottom_;
pos = (283,-22);
},
{
name = top;
pos = (287,516);
}
);
hints = (
{
horizontal = 1;
place = (447,52);
type = Stem;
},
{
horizontal = 1;
place = (-15,95);
type = Stem;
},
{
place = (28,167);
type = Stem;
}
);
layerId = m01;
shapes = (
{
closed = 1;
nodes = (
(322,447,o),
(328,447,o),
(334,446,c),
(341,396,l),
(345,325,o),
(378,301,o),
(417,301,cs),
(453,301,o),
(474,317,o),
(485,353,c),
(478,433,o),
(404,499,o),
(298,499,cs),
(149,499,o),
(28,404,o),
(28,240,cs),
(28,72,o),
(141,-15,o),
(277,-15,cs),
(372,-15,o),
(443,24,o),
(482,105,c),
(447,136,l),
(418,103,o),
(383,80,o),
(335,80,cs),
(251,80,o),
(195,144,o),
(195,259,cs),
(195,394,o),
(258,447,o),
(315,447,cs)
);
}
);
width = 513;
}
);
note = c;
unicode = 99;
},
{
glyphname = d;
kernLeft = c;
kernRight = d;
layers = (
{
anchors = (
{
name = bottom;
pos = (310,-22);
},
{
name = top;
pos = (423,718);
}
);
hints = (
{
horizontal = 1;
place = (726,-20);
target = down;
type = TopGhost;
},
{
horizontal = 1;
place = (716,-20);
target = down;
type = TopGhost;
},
{
horizontal = 1;
place = (414,85);
type = Stem;
},
{
horizontal = 1;
place = (-15,87);
type = Stem;
},
{
horizontal = 1;
place = (0,21);
target = up;
type = BottomGhost;
},
{
horizontal = 1;
place = (-11,21);
target = up;
type = BottomGhost;
},
{
place = (370,153);
type = Stem;
},
{
place = (364,159);
type = Stem;
},
{
place = (29,169);
type = Stem;
}
);
layerId = m01;
shapes = (
{
closed = 1;
nodes = (
(198,358,o),
(244,414,o),
(305,414,cs),
(327,414,o),
(346,407,o),
(364,393,c),
(364,95,l),
(346,80,o),
(326,72,o),
(302,72,cs),
(241,72,o),
(198,129,o),
(198,239,cs)
);
},
{
closed = 1;
nodes = (
(572,0,l),
(572,47,l),
(523,57,l),
(523,576,l),
(527,716,l),
(511,726,l),
(300,681,l),
(300,639,l),
(370,629,l),
(370,445,l),
(339,480,o),
(303,499,o),
(249,499,cs),
(136,499,o),
(29,400,o),
(29,237,cs),
(29,74,o),
(115,-15,o),
(228,-15,cs),
(285,-15,o),
(330,5,o),
(369,47,c),
(377,-11,l)
);
}
);
width = 594;
}
);
note = d;
unicode = 100;
},
{
glyphname = e;
kernLeft = c;
kernRight = e;
layers = (
{
anchors = (
{
name = bottom;
pos = (290,-22);
},
{
name = ogonek;
pos = (362,0);
},
{
name = top;
pos = (282,516);
}
);
hints = (
{
horizontal = 1;
place = (447,52);
type = Stem;
},
{
horizontal = 1;
place = (234,52);
type = Stem;
},
{
horizontal = 1;
place = (-15,95);
type = Stem;
},
{
place = (344,149);
type = Stem;
},
{
place = (29,169);
type = Stem;
}
);
layerId = m01;
shapes = (
{
closed = 1;
nodes = (
(313,447,o),
(344,415,o),
(344,349,cs),
(344,304,o),
(331,286,o),
(283,286,cs),
(198,286,l),
(202,408,o),
(238,447,o),
(276,447,cs)
);
},
{
closed = 1;
nodes = (
(157,499,o),
(29,408,o),
(29,241,cs),
(29,80,o),
(132,-15,o),
(278,-15,cs),
(375,-15,o),
(447,23,o),
(488,102,c),
(453,134,l),
(423,103,o),
(386,80,o),
(332,80,cs),
(262,80,o),
(205,128,o),
(198,234,c),
(487,234,l),
(491,250,o),
(493,266,o),
(493,287,cs),
(493,408,o),
(418,499,o),
(286,499,cs)
);
}
);
width = 521;
}
);
note = e;
unicode = 101;
},
{
glyphname = f;
kernLeft = f;
kernRight = f;
lastChange = "2024-07-22 17:54:44 +0000";
layers = (
{
anchors = (
{
name = bottom;
pos = (168,-22);
},
{
name = top;
pos = (293,743);
}
);
hints = (
{
horizontal = 1;
place = (736,-20);
target = down;
type = TopGhost;
},
{
horizontal = 1;
place = (598,138);
type = Stem;
},
{
horizontal = 1;
place = (415,68);
type = Stem;
},
{
horizontal = 1;
place = (0,47);
type = Stem;
},
{
place = (87,159);
type = Stem;
}
);
layerId = m01;
shapes = (
{
closed = 1;
nodes = (
(87,210,ls),
(87,159,o),
(86,109,o),
(85,58,c),
(30,47,l),
(30,0,l),
(324,0,l),
(324,47,l),
(247,63,l),
(246,112,o),
(246,161,o),
(246,210,cs),
(246,415,l),
(351,415,l),
(351,483,l),
(244,483,l),
(241,565,o),
(249,620,o),
(272,660,cs),
(276,667,o),
(282,674,o),
(289,681,c),
(297,669,ls),
(325,619,o),
(353,598,o),
(387,598,cs),
(432,598,o),
(458,627,o),
(459,665,c),
(446,718,o),
(395,736,o),
(339,736,cs),
(282,736,o),
(224,719,o),
(172,670,cs),
(134,634,o),
(101,583,o),
(89,482,c),
(22,474,l),
(22,415,l),
(87,415,l)
);
}
);
width = 372;
}
);
note = f;
unicode = 102;
},
{
glyphname = g;
kernLeft = g;
kernRight = g;
lastChange = "2024-07-16 17:25:49 +0000";
layers = (
{
anchors = (
{
name = bottom;
pos = (258,-234);
},
{
name = top;
pos = (261,516);
}
);
hints = (
{
horizontal = 1;
origin = (1,21);
target = (1,8);
type = Stem;
},
{
horizontal = 1;
origin = (1,40);
target = (0,9);
type = Stem;
},
{
horizontal = 1;
origin = (1,34);
target = (0,2);
type = Stem;
},
{
horizontal = 1;
origin = (1,29);
target = down;
type = TopGhost;
},
{
origin = (1,37);
target = (0,12);
type = Stem;
},
{
origin = (1,2);
target = (1,28);
type = Stem;
}
);
layerId = m01;
shapes = (
{
closed = 1;
nodes = (
(198,363,o),
(248,414,o),
(313,414,cs),
(331,414,o),
(347,410,o),
(365,399,c),
(365,96,l),
(345,80,o),
(326,72,o),
(302,72,cs),
(241,72,o),
(198,118,o),
(198,238,cs)
);
},
{
closed = 1;
nodes = (
(283,-15,o),
(327,3,o),
(365,43,c),
(363,-19,o),
(358,-73,o),
(340,-107,cs),
(310,-162,o),
(270,-186,o),
(222,-186,cs),
(212,-186,o),
(202,-185,o),
(190,-183,c),
(179,-139,ls),
(159,-60,o),
(142,-33,o),
(103,-33,cs),
(69,-33,o),
(47,-46,o),
(34,-83,c),
(39,-168,o),
(121,-237,o),
(241,-237,cs),
(337,-237,o),
(407,-210,o),
(455,-157,cs),
(510,-98,o),
(524,-28,o),
(524,108,cs),
(524,354,l),
(527,489,l),
(498,499,l),
(386,442,l),
(351,482,o),
(311,499,o),
(264,499,cs),
(137,499,o),
(35,399,o),
(35,226,cs),
(35,66,o),
(119,-15,o),
(227,-15,cs)
);
}
);
width = 583;
}
);
note = g;
unicode = 103;
},
{
glyphname = h;
kernLeft = b;
kernRight = h;
layers = (
{
anchors = (
{
name = bottom;
pos = (322,-22);
},
{
name = top;
pos = (148,718);
}
);
hints = (
{
horizontal = 1;
place = (726,-20);
target = down;
type = TopGhost;
},
{
horizontal = 1;
place = (716,-20);
target = down;
type = TopGhost;
},
{
horizontal = 1;
place = (402,97);
type = Stem;
},
{
horizontal = 1;
place = (0,47);
type = Stem;
},
{
place = (386,159);
type = Stem;
},
{
place = (83,160);
type = Stem;
},
{
place = (83,157);
type = Stem;
}
);
layerId = m01;
shapes = (
{
closed = 1;
nodes = (
(83,210,ls),
(83,168,o),
(83,107,o),
(82,59,c),
(28,47,l),
(28,0,l),
(291,0,l),
(291,47,l),
(244,57,l),
(243,106,o),
(243,168,o),
(243,210,cs),
(243,356,l),
(274,385,o),
(305,402,o),
(332,402,cs),
(373,402,o),
(386,380,o),
(386,315,cs),
(386,210,ls),
(386,167,o),
(386,107,o),
(385,58,c),
(333,47,l),
(333,0,l),
(596,0,l),
(596,47,l),
(546,57,l),
(545,106,o),
(545,166,o),
(545,210,cs),
(545,327,ls),
(545,442,o),
(487,499,o),
(399,499,cs),
(341,499,o),
(294,477,o),
(240,415,c),
(240,576,l),
(244,716,l),
(228,726,l),
(21,681,l),
(21,639,l),
(83,629,l)
);
}
);
width = 617;
}
);
note = h;
unicode = 104;
},
{
glyphname = i;
kernLeft = i;
kernRight = i;
layers = (
{
anchors = (
{
name = bottom;
pos = (168,-22);
},
{
name = ogonek;
pos = (198,0);
},
{
name = top;
pos = (163,722);
}
);
hints = (
{
horizontal = 1;
place = (499,-20);
target = down;
type = TopGhost;
},
{
horizontal = 1;
place = (488,-20);
target = down;
type = TopGhost;
},
{
horizontal = 1;
place = (573,159);
type = Stem;
},
{
horizontal = 1;
place = (0,47);
type = Stem;
},
{
place = (85,159);
type = Stem;
},
{
place = (78,170);
type = Stem;
}
);
layerId = m01;
shapes = (
{
closed = 1;
nodes = (
(210,573,o),
(248,606,o),
(248,652,cs),
(248,699,o),
(210,732,o),
(163,732,cs),
(116,732,o),
(78,699,o),
(78,652,cs),
(78,606,o),
(116,573,o),
(163,573,cs)
);
},
{
closed = 1;
nodes = (
(295,47,l),
(245,57,l),
(244,106,o),
(244,168,o),
(244,210,cs),
(244,343,l),
(247,488,l),
(230,499,l),
(20,432,l),
(20,393,l),
(82,384,l),
(84,344,o),
(85,313,o),
(85,258,cs),
(85,210,ls),
(85,168,o),
(85,107,o),
(84,59,c),
(30,47,l),
(30,0,l),
(295,0,l)
);
}
);
width = 316;
}
);
note = i;
unicode = 105;
},
{
glyphname = j;
kernLeft = j;
kernRight = j;
layers = (
{
anchors = (
{
name = bottom;
pos = (74,-250);
},
{
name = top;
pos = (159,722);
}
);
hints = (
{
horizontal = 1;
place = (499,-20);
target = down;
type = TopGhost;
},
{
horizontal = 1;
place = (488,-20);
target = down;
type = TopGhost;
},
{
horizontal = 1;
place = (573,159);
type = Stem;
},
{
horizontal = 1;
place = (-237,142);
type = Stem;
},
{
horizontal = 1;
place = (-237,21);
target = up;
type = BottomGhost;
},
{
place = (82,158);
type = Stem;
},
{
place = (75,170);
type = Stem;
}
);
layerId = m01;
shapes = (
{
closed = 1;
nodes = (
(207,573,o),
(245,606,o),
(245,652,cs),
(245,699,o),
(207,732,o),
(160,732,cs),
(113,732,o),
(75,699,o),
(75,652,cs),
(75,606,o),
(113,573,o),
(160,573,cs)
);
},
{
closed = 1;
nodes = (
(82,84,ls),
(82,-7,o),
(89,-101,o),
(78,-149,cs),
(76,-159,o),
(73,-166,o),
(69,-173,c),
(57,-153,ls),
(33,-114,o),
(2,-95,o),
(-34,-95,cs),
(-74,-95,o),
(-113,-121,o),
(-118,-168,c),
(-103,-204,o),
(-61,-237,o),
(10,-237,cs),
(61,-237,o),
(125,-221,o),
(175,-169,cs),
(224,-120,o),
(240,-66,o),
(240,54,cs),
(240,343,l),
(243,488,l),
(226,499,l),
(18,432,l),
(18,393,l),
(79,384,l),
(81,344,o),
(82,313,o),
(82,258,cs)
);
}
);
width = 307;
}
);
note = j;
unicode = 106;
},
{
glyphname = k;
kernLeft = b;
kernRight = k;
layers = (
{
anchors = (
{
name = bottom;
pos = (330,-22);
},
{
name = top;
pos = (161,718);
}
);
hints = (
{
horizontal = 1;
place = (726,-20);
target = down;
type = TopGhost;
},
{
horizontal = 1;
place = (716,-20);
target = down;
type = TopGhost;
},
{
horizontal = 1;
place = (439,44);
type = Stem;
},
{
horizontal = 1;
place = (0,47);
type = Stem;
},
{
place = (337,233);
type = Stem;
},
{
place = (83,161);
type = Stem;
},
{
place = (83,160);
type = Stem;
}
);
layerId = m01;
shapes = (
{
closed = 1;
nodes = (
(21,681,l),
(21,639,l),
(83,629,l),
(83,210,ls),
(83,170,o),
(83,108,o),
(82,59,c),
(26,47,l),
(26,0,l),
(298,0,l),
(298,47,l),
(244,58,l),
(244,103,o),
(243,160,o),
(243,204,c),
(280,239,l),
(393,0,l),
(597,0,l),
(597,47,l),
(533,62,l),
(392,343,l),
(480,426,l),
(570,439,l),
(570,483,l),
(337,483,l),
(337,439,l),
(405,427,l),
(243,269,l),
(243,576,l),
(247,716,l),
(231,726,l)
);
}
);
width = 598;
}
);
note = k;
unicode = 107;
},
{
glyphname = l;
kernLeft = b;
kernRight = d;
layers = (
{
anchors = (
{
name = bottom;
pos = (168,-22);
},
{
name = top;
pos = (156,718);
}
);
hints = (
{
horizontal = 1;
place = (726,-20);
target = down;
type = TopGhost;
},
{
horizontal = 1;
place = (716,-20);
target = down;
type = TopGhost;
},
{
horizontal = 1;
place = (0,47);
type = Stem;
},
{
place = (83,160);
type = Stem;
}
);
layerId = m01;
shapes = (
{
closed = 1;
nodes = (
(21,681,l),
(21,639,l),
(83,629,l),
(83,210,ls),
(83,160,o),
(82,109,o),
(81,59,c),
(26,47,l),
(26,0,l),
(300,0,l),
(300,47,l),
(245,58,l),
(244,109,o),
(243,159,o),
(243,210,cs),
(243,576,l),
(247,716,l),
(231,726,l)
);
}
);
width = 323;
}
);
note = l;
unicode = 108;
},
{
glyphname = m;
kernLeft = m;
kernRight = h;
layers = (
{
anchors = (
{
name = bottom;
pos = (462,-22);
},
{
name = top;
pos = (460,516);
}
);
hints = (
{
horizontal = 1;
place = (488,-20);
target = down;
type = TopGhost;
},
{
horizontal = 1;
place = (402,97);
type = Stem;
},
{
horizontal = 1;
place = (0,47);
type = Stem;
},
{
place = (679,157);
type = Stem;
},
{
place = (383,157);
type = Stem;
},
{
place = (83,160);
type = Stem;
}
);
layerId = m01;
shapes = (
{
closed = 1;
nodes = (
(633,499,o),
(585,477,o),
(529,410,c),
(509,469,o),
(464,499,o),
(396,499,cs),
(336,499,o),
(288,471,o),
(240,415,c),
(234,488,l),
(216,499,l),
(19,432,l),
(19,393,l),
(80,384,l),
(83,344,o),
(83,323,o),
(83,268,cs),
(83,210,ls),
(83,168,o),
(83,107,o),
(82,59,c),
(28,47,l),
(28,0,l),
(291,0,l),
(291,47,l),
(244,57,l),
(243,106,o),
(243,168,o),
(243,210,cs),
(243,366,l),
(268,387,o),
(297,402,o),
(325,402,cs),
(369,402,o),
(383,376,o),
(383,306,cs),
(383,210,ls),
(383,167,o),
(383,107,o),
(382,59,c),
(330,47,l),
(330,0,l),
(588,0,l),
(588,47,l),
(541,57,l),
(540,106,o),
(540,166,o),
(540,210,cs),
(540,327,ls),
(540,341,o),
(539,354,o),
(538,366,c),
(565,389,o),
(593,402,o),
(622,402,cs),
(663,402,o),
(679,382,o),
(679,307,cs),
(679,210,ls),
(679,167,o),
(679,107,o),
(678,59,c),
(629,47,l),
(629,0,l),
(887,0,l),
(887,47,l),
(837,58,l),
(836,106,o),
(836,167,o),
(836,210,cs),
(836,322,ls),
(836,441,o),
(791,499,o),
(690,499,cs)
);
}
);
width = 907;
}
);
note = m;
unicode = 109;
},
{
glyphname = n;
kernLeft = m;
kernRight = h;
layers = (
{
anchors = (
{
name = bottom;
pos = (318,-22);
},
{
name = top;
pos = (322,516);
}
);
hints = (
{
horizontal = 1;
place = (488,-20);
target = down;
type = TopGhost;
},
{
horizontal = 1;
place = (402,97);
type = Stem;
},
{
horizontal = 1;
place = (0,47);
type = Stem;
},
{
place = (384,160);
type = Stem;
},
{
place = (83,160);
type = Stem;
}
);
layerId = m01;
shapes = (
{
closed = 1;
nodes = (
(342,499,o),
(293,477,o),
(240,416,c),
(234,488,l),
(216,499,l),
(19,432,l),
(19,393,l),
(80,384,l),
(82,344,o),
(83,323,o),
(83,268,cs),
(83,210,ls),
(83,168,o),
(83,107,o),
(82,59,c),
(28,47,l),
(28,0,l),
(291,0,l),
(291,47,l),
(244,57,l),
(243,106,o),
(243,168,o),
(243,210,cs),
(243,365,l),
(273,389,o),
(304,402,o),
(329,402,cs),
(368,402,o),
(384,379,o),
(384,315,cs),
(384,210,ls),
(384,167,o),
(384,107,o),
(383,58,c),
(331,47,l),
(331,0,l),
(595,0,l),
(595,47,l),
(545,57,l),
(544,106,o),
(544,166,o),
(544,210,cs),
(544,327,ls),
(544,442,o),
(486,499,o),
(400,499,cs)
);
}
);
width = 616;
}
);
note = n;
unicode = 110;
},
{
glyphname = o;
kernLeft = c;
kernRight = b;
layers = (
{
anchors = (
{
name = bottom;
pos = (281,-22);
},
{
name = ogonek;
pos = (362,0);
},
{
name = top;
pos = (283,516);
},
{
name = topright;
pos = (411,486);
}
);
hints = (
{
horizontal = 1;
place = (446,53);
type = Stem;
},
{
horizontal = 1;
place = (-15,52);
type = Stem;
},
{
place = (367,170);
type = Stem;
},
{
place = (29,169);
type = Stem;
}
);
layerId = m01;
shapes = (
{
closed = 1;
nodes = (
(438,-15,o),
(537,88,o),
(537,244,cs),
(537,400,o),
(425,499,o),
(283,499,cs),
(140,499,o),
(29,397,o),
(29,244,cs),
(29,90,o),
(127,-15,o),
(283,-15,cs)
);
},
{
closed = 1;
nodes = (
(226,37,o),
(198,99,o),
(198,241,cs),
(198,383,o),
(226,446,o),
(283,446,cs),
(339,446,o),
(367,383,o),
(367,241,cs),
(367,99,o),
(339,37,o),
(283,37,cs)
);
}
);
width = 565;
}
);
note = o;
unicode = 111;
},
{
glyphname = p;
kernLeft = p;
kernRight = b;
layers = (
{
anchors = (
{
name = bottom;
pos = (170,-243);
},
{
name = top;
pos = (312,516);
}
);
hints = (
{
horizontal = 1;
place = (489,-20);
target = down;
type = TopGhost;
},
{
horizontal = 1;
place = (412,87);
type = Stem;
},
{
horizontal = 1;
place = (-15,84);
type = Stem;
},
{
horizontal = 1;
place = (-227,47);
type = Stem;
},
{
place = (413,170);
type = Stem;
},
{
place = (218,19);
type = Stem;
},
{
place = (87,159);
type = Stem;
},
{
place = (87,156);
type = Stem;
}
);
layerId = m01;
shapes = (
{
closed = 1;
nodes = (
(413,123,o),
(371,69,o),
(311,69,cs),
(286,69,o),
(265,78,o),
(246,94,c),
(246,384,l),
(267,400,o),
(289,412,o),
(314,412,cs),
(373,412,o),
(413,360,o),
(413,242,cs)
);
},
{
closed = 1;
nodes = (
(87,-3,ls),
(87,-52,o),
(86,-105,o),
(85,-168,c),
(29,-180,l),
(29,-227,l),
(309,-227,l),
(309,-180,l),
(245,-165,l),
(244,-104,o),
(243,-51,o),
(243,-2,cs),
(243,38,l),
(276,3,o),
(316,-15,o),
(369,-15,cs),
(482,-15,o),
(583,83,o),
(583,244,cs),
(583,410,o),
(496,499,o),
(387,499,cs),
(330,499,o),
(282,477,o),
(239,432,c),
(235,489,l),
(218,499,l),
(22,432,l),
(22,393,l),
(84,384,l),
(86,344,o),
(87,323,o),
(87,268,cs)
);
}
);
width = 611;
}
);
note = p;
unicode = 112;
},
{
glyphname = q;
kernLeft = c;
kernRight = q;
layers = (
{
anchors = (
{
name = bottom;
pos = (442,-243);
},
{
name = top;
pos = (326,516);
}
);
hints = (
{
horizontal = 1;
place = (489,-20);
target = down;
type = TopGhost;
},
{
horizontal = 1;
place = (414,85);
type = Stem;
},
{
horizontal = 1;
place = (-15,87);
type = Stem;
},
{
horizontal = 1;
place = (-227,47);
type = Stem;
},
{
place = (368,156);
type = Stem;
},
{
place = (365,159);
type = Stem;
},
{
place = (29,169);
type = Stem;
}
);
layerId = m01;
shapes = (
{
closed = 1;
nodes = (
(198,357,o),
(243,414,o),
(306,414,cs),
(325,414,o),
(344,409,o),
(365,397,c),
(365,96,l),
(347,81,o),
(326,72,o),
(302,72,cs),
(241,72,o),
(198,128,o),
(198,238,cs)
);
},
{
closed = 1;
nodes = (
(524,354,l),
(527,489,l),
(498,499,l),
(381,439,l),
(344,481,o),
(303,499,o),
(255,499,cs),
(134,499,o),
(29,401,o),
(29,236,cs),
(29,73,o),
(115,-15,o),
(228,-15,cs),
(284,-15,o),
(329,4,o),
(368,47,c),
(368,-16,ls),
(368,-65,o),
(368,-115,o),
(367,-165,c),
(302,-180,l),
(302,-227,l),
(576,-227,l),
(576,-180,l),
(526,-169,l),
(525,-118,o),
(524,-67,o),
(524,-16,cs)
);
}
);
width = 583;
}
);
note = q;
unicode = 113;
},
{
glyphname = r;
kernLeft = m;
kernRight = r;
layers = (
{
anchors = (
{
name = bottom;
pos = (172,-22);
},
{
name = top;
pos = (267,516);
}
);
hints = (
{
horizontal = 1;
place = (499,-20);
target = down;
type = TopGhost;
},
{
horizontal = 1;
place = (488,-20);
target = down;
type = TopGhost;
},
{
horizontal = 1;
place = (343,156);
type = Stem;
},
{
horizontal = 1;
place = (0,47);
type = Stem;
},
{
place = (83,160);
type = Stem;
}
);
layerId = m01;
shapes = (
{
closed = 1;
nodes = (
(27,0,l),
(323,0,l),
(323,47,l),
(244,64,l),
(243,111,o),
(243,169,o),
(243,210,cs),
(243,278,l),
(253,324,o),
(280,370,o),
(310,398,c),
(316,390,ls),
(340,358,o),
(363,343,o),
(393,343,cs),
(433,343,o),
(462,373,o),
(464,425,c),
(456,474,o),
(421,499,o),
(377,499,cs),
(328,499,o),
(270,456,o),
(243,370,c),
(234,488,l),
(216,499,l),
(19,432,l),
(19,393,l),
(80,384,l),
(82,344,o),
(83,324,o),
(83,269,cs),
(83,210,ls),
(83,168,o),
(83,107,o),
(82,58,c),
(27,47,l)
);
}
);
width = 465;
}
);
note = r;
unicode = 114;
},
{
glyphname = s;
kernLeft = s;
kernRight = s;
layers = (
{
anchors = (
{
name = bottom;
pos = (225,0);
},
{
name = bottom_;
pos = (227,-22);
},
{
name = top;
pos = (239,516);
}
);
hints = (
{
horizontal = 1;
place = (443,56);
type = Stem;
},
{
horizontal = 1;
place = (-15,55);
type = Stem;
},
{
place = (294,137);
type = Stem;
},
{
place = (35,130);
type = Stem;
}
);
layerId = m01;
shapes = (
{
closed = 1;
nodes = (
(345,-15,o),
(431,46,o),
(431,151,cs),
(431,226,o),
(393,278,o),
(298,306,cs),
(249,320,ls),
(180,341,o),
(165,360,o),
(165,387,cs),
(165,424,o),
(195,443,o),
(240,443,cs),
(262,443,o),
(279,441,o),
(295,435,c),
(315,349,l),
(395,349,l),
(402,458,l),
(350,484,o),
(303,499,o),
(244,499,cs),
(109,499,o),
(35,427,o),
(35,335,cs),
(35,260,o),
(78,209,o),
(156,186,cs),
(210,170,ls),
(276,151,o),
(294,130,o),
(294,99,cs),
(294,59,o),
(262,40,o),
(205,40,cs),
(177,40,o),
(154,45,o),
(130,54,c),
(113,153,l),
(33,153,l),
(30,31,l),
(83,0,o),
(139,-15,o),
(204,-15,cs)
);
}
);
width = 455;
}
);
note = s;
unicode = 115;
},
{
glyphname = t;
kernLeft = t;
kernRight = t;
layers = (
{
anchors = (
{
name = bottom;
pos = (214,0);
},
{
name = bottom_;
pos = (214,-22);
},
{
name = top;
pos = (187,645);
}
);
hints = (
{
horizontal = 1;
place = (415,69);
type = Stem;
},
{
horizontal = 1;
place = (415,68);
type = Stem;
},
{
horizontal = 1;
place = (-15,82);
type = Stem;
},
{
place = (76,159);
type = Stem;
}
);
layerId = m01;
shapes = (
{
closed = 1;
nodes = (
(235,415,l),
(340,415,l),
(340,483,l),
(235,483,l),
(237,624,l),
(135,624,l),
(85,484,l),
(11,474,l),
(11,415,l),
(76,415,l),
(76,224,ls),
(76,185,o),
(75,159,o),
(75,124,cs),
(75,25,o),
(128,-15,o),
(218,-15,cs),
(292,-15,o),
(338,14,o),
(365,65,c),
(340,89,l),
(321,74,o),
(304,67,o),
(286,67,cs),
(256,67,o),
(235,88,o),
(235,135,cs)
);
}
);
width = 358;
}
);
note = t;
unicode = 116;
},
{
glyphname = u;
kernLeft = u;
kernRight = u;
layers = (
{
anchors = (
{
name = bottom;
pos = (311,-22);
},
{
name = ogonek;
pos = (504,0);
},
{
name = top;
pos = (304,516);
},
{
name = topright;
pos = (519,467);
}
);
hints = (
{
horizontal = 1;
place = (493,-20);
target = down;
type = TopGhost;
},
{
horizontal = 1;
place = (-11,68);
type = Stem;
},
{
horizontal = 1;
place = (-15,97);
type = Stem;
},
{
horizontal = 1;
place = (-1,21);
target = up;
type = BottomGhost;
},
{
horizontal = 1;
place = (-11,21);
target = up;
type = BottomGhost;
},
{
place = (376,159);
type = Stem;
},
{
place = (75,159);
type = Stem;
}
);
layerId = m01;
shapes = (
{
closed = 1;
nodes = (
(587,-1,l),
(587,46,l),
(535,57,l),
(535,341,l),
(538,482,l),
(522,493,l),
(323,461,l),
(323,422,l),
(378,410,l),
(374,127,l),
(347,101,o),
(316,82,o),
(288,82,cs),
(254,82,o),
(234,102,o),
(234,164,cs),
(234,341,l),
(239,482,l),
(223,493,l),
(19,464,l),
(19,422,l),
(77,409,l),
(73,165,ls),
(71,33,o),
(129,-15,o),
(214,-15,cs),
(279,-15,o),
(333,16,o),
(376,72,c),
(382,-11,l)
);
}
);
width = 607;
}
);
note = u;
unicode = 117;
},
{
glyphname = v;
kernLeft = v;
kernRight = v;
layers = (
{
anchors = (
{
name = bottom;
pos = (260,-22);
},
{
name = top;
pos = (289,516);
}
);
hints = (
{
horizontal = 1;
place = (439,44);
type = Stem;
},
{
horizontal = 1;
place = (-2,21);
target = up;
type = BottomGhost;
},
{
place = (332,189);
type = Stem;
}
);
layerId = m01;
shapes = (
{
closed = 1;
nodes = (
(332,439,l),
(395,427,l),
(308,171,l),
(214,427,l),
(277,439,l),
(277,483,l),
(-7,483,l),
(-7,439,l),
(42,429,l),
(222,-2,l),
(298,-2,l),
(463,428,l),
(521,439,l),
(521,483,l),
(332,483,l)
);
}
);
width = 527;
}
);
note = v;
unicode = 118;
},
{
glyphname = w;
kernLeft = v;
kernRight = v;
layers = (
{
anchors = (
{
name = bottom;
pos = (397,-22);
},
{
name = top;
pos = (415,516);
}
);
hints = (
{
horizontal = 1;
place = (439,44);
type = Stem;
},
{
horizontal = 1;
place = (435.5,47.5);
type = Stem;
},
{
horizontal = 1;
place = (435,48);
type = Stem;
},
{
horizontal = 1;
place = (434.5,48.5);
type = Stem;
},
{
horizontal = 1;
place = (-2,21);
target = up;
type = BottomGhost;
},
{
place = (601,182);
type = Stem;
},
{
place = (305,245);
type = Stem;
}
);
layerId = m01;
shapes = (
{
closed = 1;
nodes = (
(601,439,l),
(658,430,l),
(577,181,l),
(495,430,l),
(550,439,l),
(550,483,l),
(305,483,l),
(305,439,l),
(364,430,l),
(277,175,l),
(198,431,l),
(256,439,l),
(256,483,l),
(-7,483,l),
(-7,439,l),
(37,432,l),
(195,-2,l),
(270,-2,l),
(384,320,l),
(499,-2,l),
(574,-2,l),
(727,430,l),
(783,439,l),
(783,483,l),
(601,483,l)
);
}
);
width = 789;
}
);
note = w;
unicode = 119;
},
{
glyphname = x;
kernLeft = x;
kernRight = x;
layers = (
{
anchors = (
{
name = bottom;
pos = (257,-22);
},
{
name = top;
pos = (282,516);
}
);
hints = (
{
horizontal = 1;
place = (439,44);
type = Stem;
},
{
horizontal = 1;
place = (435.5,47.5);
type = Stem;
},
{
horizontal = 1;
place = (435,48);
type = Stem;
},
{
horizontal = 1;
place = (0,50.5);
type = Stem;
},
{
horizontal = 1;
place = (0,47);
type = Stem;
},
{
place = (349,175);
type = Stem;
},
{
place = (10,189);
type = Stem;
}
);
layerId = m01;
shapes = (
{
closed = 1;
nodes = (
(349,439,l),
(397,428,l),
(323,316,l),
(250,432,l),
(294,439,l),
(294,483,l),
(13,483,l),
(13,439,l),
(69,431,l),
(199,221,l),
(79,58,l),
(10,47,l),
(10,0,l),
(199,0,l),
(199,47,l),
(150,56,l),
(228,174,l),
(302,54,l),
(256,47,l),
(256,0,l),
(542,0,l),
(542,47,l),
(485,57,l),
(351,271,l),
(467,428,l),
(524,439,l),
(524,483,l),
(349,483,l)
);
}
);
width = 552;
}
);
note = x;
unicode = 120;
},
{
glyphname = y;
kernLeft = y;
kernRight = v;
layers = (
{
anchors = (
{
name = bottom;
pos = (145,-244);
},
{
name = top;
pos = (292,516);
}
);
hints = (
{
horizontal = 1;
place = (440,43);
type = Stem;
},
{
horizontal = 1;
place = (436,47);
type = Stem;
},
{
horizontal = 1;
place = (-237,140);
type = Stem;
},
{
place = (342,188);
type = Stem;
}
);
layerId = m01;
shapes = (
{
closed = 1;
nodes = (
(197,-237,o),
(242,-169,o),
(291,-41,cs),
(473,430,l),
(530,440,l),
(530,483,l),
(342,483,l),
(342,440,l),
(408,428,l),
(313,157,l),
(215,428,l),
(282,440,l),
(282,483,l),
(-2,483,l),
(-2,440,l),
(45,432,l),
(244,-38,l),
(244,-39,l),
(228,-84,o),
(204,-124,o),
(176,-154,c),
(169,-144,ls),
(142,-104,o),
(110,-97,o),
(83,-97,cs),
(44,-97,o),
(9,-118,o),
(1,-162,c),
(4,-204,o),
(51,-237,o),
(104,-237,cs)
);
}
);
width = 534;
}
);
note = y;
unicode = 121;
},
{
glyphname = z;
kernLeft = z;
kernRight = z;
layers = (
{
anchors = (
{
name = bottom;
pos = (245,-22);
},
{
name = top;
pos = (246,516);
}
);
hints = (
{
horizontal = 1;
place = (438,45);
type = Stem;
},
{
horizontal = 1;
place = (329,154);
type = Stem;
},
{
horizontal = 1;
place = (0,167);
type = Stem;
},
{
horizontal = 1;
place = (0,46);
type = Stem;
},
{
place = (18,432);
type = Stem;
}
);
layerId = m01;
shapes = (
{
closed = 1;
nodes = (
(32,483,l),
(24,331,l),
(105,327,l),
(132,438,l),
(268,438,l),
(18,39,l),
(18,0,l),
(440,0,l),
(450,167,l),
(369,167,l),
(340,46,l),
(198,46,l),
(440,445,l),
(440,483,l)
);
}
);
width = 464;
}
);
note = z;
unicode = 122;
},
{
glyphname = Agrave;
kernLeft = A;
kernRight = A;
layers = (
{
hints = (
{
horizontal = 1;
place = (658,-20);
target = down;
type = TopGhost;
},
{
horizontal = 1;
place = (191,58);
type = Stem;
},
{
horizontal = 1;
place = (0,57);
type = Stem;
},
{
horizontal = 1;
place = (0,55.5);
type = Stem;
},
{
place = (9,215);
type = Stem;
}
);
layerId = m01;
shapes = (
{
closed = 1;
nodes = (
(290,504,l),
(371,249,l),
(207,249,l)
);
},
{
closed = 1;
nodes = (
(9,0,l),
(224,0,l),
(224,54,l),
(148,66,l),
(188,191,l),
(389,191,l),
(430,62,l),
(353,52,l),
(353,0,l),
(662,0,l),
(662,52,l),
(601,59,l),
(396,658,l),
(293,658,l),
(90,66,l),
(9,54,l)
);
},
{
closed = 1;
nodes = (
(404,734,l),
(367,771,o),
(328,807,o),
(293,840,cs),
(261,871,o),
(242,880,o),
(219,880,cs),
(187,880,o),
(164,855,o),
(164,829,cs),
(164,810,o),
(174,784,o),
(222,762,cs),
(274,739,o),
(326,717,o),
(376,695,c)
);
}
);
width = 675;
}
);
note = Agrave;
unicode = 192;
},
{
glyphname = Aacute;
kernLeft = A;
kernRight = A;
layers = (
{
hints = (
{
horizontal = 1;
place = (658,-20);
target = down;
type = TopGhost;
},
{
horizontal = 1;
place = (191,58);
type = Stem;
},
{
horizontal = 1;
place = (0,57);
type = Stem;
},
{
horizontal = 1;
place = (0,55.5);
type = Stem;
},
{
place = (9,215);
type = Stem;
}
);
layerId = m01;
shapes = (
{
closed = 1;
nodes = (
(290,504,l),
(371,249,l),
(207,249,l)
);
},
{
closed = 1;
nodes = (
(9,0,l),
(224,0,l),
(224,54,l),
(148,66,l),
(188,191,l),
(389,191,l),
(430,62,l),
(353,52,l),
(353,0,l),
(662,0,l),
(662,52,l),
(601,59,l),
(396,658,l),
(293,658,l),
(90,66,l),
(9,54,l)
);
},
{
closed = 1;
nodes = (
(296,695,l),
(347,718,o),
(399,740,o),
(451,764,cs),
(498,785,o),
(508,810,o),
(508,829,cs),
(508,855,o),
(485,880,o),
(453,880,cs),
(430,880,o),
(411,871,o),
(379,840,cs),
(343,806,o),
(305,770,o),
(268,734,c)
);
}
);
width = 675;
}
);
note = Aacute;
unicode = 193;
},
{
glyphname = Acircumflex;
kernLeft = A;
kernRight = A;
layers = (
{
hints = (
{
horizontal = 1;
place = (658,-20);
target = down;
type = TopGhost;
},
{
horizontal = 1;
place = (191,58);
type = Stem;
},
{
horizontal = 1;
place = (0,57);
type = Stem;
},
{
horizontal = 1;
place = (0,55.5);
type = Stem;
},
{
place = (9,215);
type = Stem;
}
);
layerId = m01;
shapes = (
{
closed = 1;
nodes = (
(290,504,l),
(371,249,l),
(207,249,l)
);
},
{
closed = 1;
nodes = (
(9,0,l),
(224,0,l),
(224,54,l),
(148,66,l),
(188,191,l),
(389,191,l),
(430,62,l),
(353,52,l),
(353,0,l),
(662,0,l),
(662,52,l),
(601,59,l),
(396,658,l),
(293,658,l),
(90,66,l),
(9,54,l)
);
},
{
closed = 1;
nodes = (
(374,868,l),
(306,868,l),
(156,717,l),
(186,681,l),
(340,766,l),
(494,681,l),
(524,717,l)
);
}
);
width = 675;
}
);
note = Acircumflex;
unicode = 194;
},
{
glyphname = Atilde;
kernLeft = A;
kernRight = A;
layers = (
{
hints = (
{
horizontal = 1;
place = (658,-20);
target = down;
type = TopGhost;
},
{
horizontal = 1;
place = (762,97);
type = Stem;
},
{
horizontal = 1;
place = (703,97);
type = Stem;
},
{
horizontal = 1;
place = (191,58);
type = Stem;
},
{
horizontal = 1;
place = (0,57);
type = Stem;
},
{
horizontal = 1;
place = (0,55.5);
type = Stem;
},
{
place = (9,215);
type = Stem;
}
);
layerId = m01;
shapes = (
{
closed = 1;
nodes = (
(290,504,l),
(371,249,l),
(207,249,l)
);
},
{
closed = 1;
nodes = (
(9,0,l),
(224,0,l),
(224,54,l),
(148,66,l),
(188,191,l),
(389,191,l),
(430,62,l),
(353,52,l),
(353,0,l),
(662,0,l),
(662,52,l),
(601,59,l),
(396,658,l),
(293,658,l),
(90,66,l),
(9,54,l)
);
},
{
closed = 1;
nodes = (
(199,703,l),
(212,739,o),
(232,762,o),
(262,762,cs),
(288,762,o),
(309,744,o),
(329,730,cs),
(350,716,o),
(378,703,o),
(408,703,cs),
(465,703,o),
(509,755,o),
(520,843,c),
(478,860,l),
(465,823,o),
(444,800,o),
(414,800,cs),
(389,800,o),
(367,818,o),
(347,832,cs),
(325,846,o),
(303,859,o),
(271,859,cs),
(212,859,o),
(168,808,o),
(157,720,c)
);
}
);
width = 675;
}
);
note = Atilde;
unicode = 195;
},
{
glyphname = Adieresis;
kernLeft = A;
kernRight = A;
layers = (
{
hints = (
{
horizontal = 1;
place = (658,-20);
target = down;
type = TopGhost;
},
{
horizontal = 1;
place = (713,138);
type = Stem;
},
{
horizontal = 1;
place = (191,58);
type = Stem;
},
{
horizontal = 1;
place = (0,57);
type = Stem;
},
{
horizontal = 1;
place = (0,55.5);
type = Stem;
},
{
place = (394,147);
type = Stem;
},
{
place = (145,147);
type = Stem;
},
{
place = (9,215);
type = Stem;
}
);
layerId = m01;
shapes = (
{
closed = 1;
nodes = (
(290,504,l),
(371,249,l),
(207,249,l)
);
},
{
closed = 1;
nodes = (
(9,0,l),
(224,0,l),
(224,54,l),
(148,66,l),
(188,191,l),
(389,191,l),
(430,62,l),
(353,52,l),
(353,0,l),
(662,0,l),
(662,52,l),
(601,59,l),
(396,658,l),
(293,658,l),
(90,66,l),
(9,54,l)
);
},
{
closed = 1;
nodes = (
(258,713,o),
(292,739,o),
(292,782,cs),
(292,825,o),
(258,851,o),
(218,851,cs),
(180,851,o),
(145,825,o),
(145,782,cs),
(145,739,o),
(180,713,o),
(218,713,cs)
);
},
{
closed = 1;
nodes = (
(507,713,o),
(541,739,o),
(541,782,cs),
(541,825,o),
(507,851,o),
(467,851,cs),
(429,851,o),
(394,825,o),
(394,782,cs),
(394,739,o),
(429,713,o),
(467,713,cs)
);
}
);
width = 675;
}
);
note = Adieresis;
unicode = 196;
},
{
glyphname = Amacron;
kernLeft = A;
kernRight = A;
layers = (
{
hints = (
{
horizontal = 1;
place = (658,-20);
target = down;
type = TopGhost;
},
{
horizontal = 1;
place = (729,89);
type = Stem;
},
{
horizontal = 1;
place = (191,58);
type = Stem;
},
{
horizontal = 1;
place = (0,57);
type = Stem;
},
{
horizontal = 1;
place = (0,55.5);
type = Stem;
},
{
place = (182,322);
type = Stem;
},
{
place = (9,215);
type = Stem;
}
);
layerId = m01;
shapes = (
{
closed = 1;
nodes = (
(182,729,l),
(504,729,l),
(504,818,l),
(182,818,l)
);
},
{
closed = 1;
nodes = (
(290,504,l),
(371,249,l),
(207,249,l)
);
},
{
closed = 1;
nodes = (
(9,0,l),
(224,0,l),
(224,54,l),
(148,66,l),
(188,191,l),
(389,191,l),
(430,62,l),
(353,52,l),
(353,0,l),
(662,0,l),
(662,52,l),
(601,59,l),
(396,658,l),
(293,658,l),
(90,66,l),
(9,54,l)
);
}
);
width = 675;
}
);
note = Amacron;
unicode = 256;
},
{
glyphname = Abreve;
kernLeft = A;
kernRight = A;
layers = (
{
hints = (
{
horizontal = 1;
place = (658,-20);
target = down;
type = TopGhost;
},
{
horizontal = 1;
place = (704,81);
type = Stem;
},
{
horizontal = 1;
place = (191,58);
type = Stem;
},
{
horizontal = 1;
place = (0,57);
type = Stem;
},
{
horizontal = 1;
place = (0,55.5);
type = Stem;
},
{
place = (9,215);
type = Stem;
}
);
layerId = m01;
shapes = (
{
closed = 1;
nodes = (
(290,504,l),
(371,249,l),
(207,249,l)
);
},
{
closed = 1;
nodes = (
(9,0,l),
(224,0,l),
(224,54,l),
(148,66,l),
(188,191,l),
(389,191,l),
(430,62,l),
(353,52,l),
(353,0,l),
(662,0,l),
(662,52,l),
(601,59,l),
(396,658,l),
(293,658,l),
(90,66,l),
(9,54,l)
);
},
{
closed = 1;
nodes = (
(178,839,l),
(192,767,o),
(241,704,o),
(343,704,cs),
(445,704,o),
(494,767,o),
(508,839,c),
(462,857,l),
(439,812,o),
(402,785,o),
(343,785,cs),
(284,785,o),
(246,812,o),
(224,857,c)
);
}
);
width = 675;
}
);
note = Abreve;
unicode = 258;
},
{
glyphname = uni1EAE;
kernLeft = A;
kernRight = A;
layers = (
{
hints = (
{
horizontal = 1;
place = (658,-20);
target = down;
type = TopGhost;
},
{
horizontal = 1;
place = (707,81);
type = Stem;
},
{
horizontal = 1;
place = (191,58);
type = Stem;
},
{
horizontal = 1;
place = (0,57);
type = Stem;
},
{
horizontal = 1;
place = (0,55.5);
type = Stem;
},
{
place = (9,215);
type = Stem;
}
);
layerId = m01;
shapes = (
{
closed = 1;
nodes = (
(290,504,l),
(371,249,l),
(207,249,l)
);
},
{
closed = 1;
nodes = (
(9,0,l),
(224,0,l),
(224,54,l),
(148,66,l),
(188,191,l),
(389,191,l),
(430,62,l),
(353,52,l),
(353,0,l),
(662,0,l),
(662,52,l),
(601,59,l),
(396,658,l),
(293,658,l),
(90,66,l),
(9,54,l)
);
},
{
closed = 1;
nodes = (
(444,707,o),
(492,770,o),
(506,842,c),
(460,860,l),
(438,815,o),
(400,788,o),
(341,788,cs),
(282,788,o),
(245,815,o),
(222,860,c),
(176,842,l),
(190,770,o),
(238,707,o),
(341,707,cs)
);
},
{
closed = 1;
nodes = (
(291,863,l),
(327,830,l),
(435,908,ls),
(470,933,o),
(479,954,o),
(479,976,cs),
(479,1000,o),
(452,1021,o),
(426,1021,cs),
(400,1021,o),
(380,1007,o),
(359,973,cs)
);
}
);
width = 675;
}
);
note = uni1EAE;
unicode = 7854;
},
{
glyphname = uni1EB6;
kernLeft = A;
kernRight = A;
layers = (
{
hints = (
{
horizontal = 1;
place = (658,-20);
target = down;
type = TopGhost;
},
{
horizontal = 1;
place = (704,81);
type = Stem;
},
{
horizontal = 1;
place = (191,58);
type = Stem;
},
{
horizontal = 1;
place = (0,57);
type = Stem;
},
{
horizontal = 1;
place = (0,55.5);
type = Stem;
},
{
horizontal = 1;
place = (-225,159);
type = Stem;
},
{
place = (242,170);
type = Stem;
},
{
place = (9,215);
type = Stem;
}
);
layerId = m01;
shapes = (
{
closed = 1;
nodes = (
(290,504,l),
(371,249,l),
(207,249,l)
);
},
{
closed = 1;
nodes = (
(9,0,l),
(224,0,l),
(224,54,l),
(148,66,l),
(188,191,l),
(389,191,l),
(430,62,l),
(353,52,l),
(353,0,l),
(662,0,l),
(662,52,l),
(601,59,l),
(396,658,l),
(293,658,l),
(90,66,l),
(9,54,l)
);
},
{
closed = 1;
nodes = (
(178,839,l),
(192,767,o),
(241,704,o),
(343,704,cs),
(445,704,o),
(494,767,o),
(508,839,c),
(462,857,l),
(439,812,o),
(402,785,o),
(343,785,cs),
(284,785,o),
(246,812,o),
(224,857,c)
);
},
{
closed = 1;
nodes = (
(374,-225,o),
(412,-192,o),
(412,-146,cs),
(412,-99,o),
(374,-66,o),
(327,-66,cs),
(280,-66,o),
(242,-99,o),
(242,-146,cs),
(242,-192,o),
(280,-225,o),
(327,-225,cs)
);
}
);
width = 675;
}
);
note = uni1EB6;
unicode = 7862;
},
{
glyphname = uni1EB0;
kernLeft = A;
kernRight = A;
layers = (
{
hints = (
{
horizontal = 1;
place = (658,-20);
target = down;
type = TopGhost;
},
{
horizontal = 1;
place = (707,81);
type = Stem;
},
{
horizontal = 1;
place = (191,58);
type = Stem;
},
{
horizontal = 1;
place = (0,57);
type = Stem;
},
{
horizontal = 1;
place = (0,55.5);
type = Stem;
},
{
place = (9,215);
type = Stem;
}
);
layerId = m01;
shapes = (
{
closed = 1;
nodes = (
(290,504,l),
(371,249,l),
(207,249,l)
);
},
{
closed = 1;
nodes = (
(9,0,l),
(224,0,l),
(224,54,l),
(148,66,l),
(188,191,l),
(389,191,l),
(430,62,l),
(353,52,l),
(353,0,l),
(662,0,l),
(662,52,l),
(601,59,l),
(396,658,l),
(293,658,l),
(90,66,l),
(9,54,l)
);
},
{
closed = 1;
nodes = (
(444,707,o),
(492,770,o),
(506,842,c),
(460,860,l),
(437,815,o),
(400,788,o),
(341,788,cs),
(282,788,o),
(244,815,o),
(222,860,c),
(176,842,l),
(190,770,o),
(238,707,o),
(341,707,cs)
);
},
{
closed = 1;
nodes = (
(391,863,l),
(323,973,ls),
(302,1007,o),
(282,1021,o),
(256,1021,cs),
(230,1021,o),
(203,1000,o),
(203,976,cs),
(203,954,o),
(212,933,o),
(247,908,cs),
(355,830,l)
);
}
);
width = 675;
}
);
note = uni1EB0;
unicode = 7856;
},
{
glyphname = uni1EB2;
kernLeft = A;
kernRight = A;
layers = (
{
hints = (
{
horizontal = 1;
place = (658,-20);
target = down;
type = TopGhost;
},
{
horizontal = 1;
place = (917,100);
type = Stem;
},
{
horizontal = 1;
place = (707,81);
type = Stem;
},
{
horizontal = 1;
place = (191,58);
type = Stem;
},
{
horizontal = 1;
place = (0,57);
type = Stem;
},
{
horizontal = 1;
place = (0,55.5);
type = Stem;
},
{
place = (353,77);
type = Stem;
},
{
place = (9,215);
type = Stem;
}
);
layerId = m01;
shapes = (
{
closed = 1;
nodes = (
(290,504,l),
(371,249,l),
(207,249,l)
);
},
{
closed = 1;
nodes = (
(9,0,l),
(224,0,l),
(224,54,l),
(148,66,l),
(188,191,l),
(389,191,l),
(430,62,l),
(353,52,l),
(353,0,l),
(662,0,l),
(662,52,l),
(601,59,l),
(396,658,l),
(293,658,l),
(90,66,l),
(9,54,l)
);
},
{
closed = 1;
nodes = (
(176,842,l),
(190,770,o),
(239,707,o),
(341,707,cs),
(443,707,o),
(492,770,o),
(506,842,c),
(460,860,l),
(437,815,o),
(400,788,o),
(341,788,cs),
(282,788,o),
(244,815,o),
(222,860,c)
);
},
{
closed = 1;
nodes = (
(309,817,l),
(386,826,o),
(430,857,o),
(430,909,cs),
(430,972,o),
(380,1009,o),
(280,1017,c),
(271,917,l),
(332,912,o),
(353,903,o),
(353,888,cs),
(353,877,o),
(345,868,o),
(300,859,c)
);
}
);
width = 675;
}
);
note = uni1EB2;
unicode = 7858;
},
{
glyphname = uni1EB4;
kernLeft = A;
kernRight = A;
layers = (
{
hints = (
{
horizontal = 1;
place = (658,-20);
target = down;
type = TopGhost;
},
{
horizontal = 1;
place = (913,86);
type = Stem;
},
{
horizontal = 1;
place = (877,87);
type = Stem;
},
{
horizontal = 1;
place = (707,81);
type = Stem;
},
{
horizontal = 1;
place = (191,58);
type = Stem;
},
{
horizontal = 1;
place = (0,57);
type = Stem;
},
{
horizontal = 1;
place = (0,55.5);
type = Stem;
},
{
place = (9,215);
type = Stem;
}
);
layerId = m01;
shapes = (
{
closed = 1;
nodes = (
(290,504,l),
(371,249,l),
(207,249,l)
);
},
{
closed = 1;
nodes = (
(9,0,l),
(224,0,l),
(224,54,l),
(148,66,l),
(188,191,l),
(389,191,l),
(430,62,l),
(353,52,l),
(353,0,l),
(662,0,l),
(662,52,l),
(601,59,l),
(396,658,l),
(293,658,l),
(90,66,l),
(9,54,l)
);
},
{
closed = 1;
nodes = (
(204,872,l),
(216,897,o),
(237,913,o),
(265,913,cs),
(291,913,o),
(311,904,o),
(331,897,cs),
(353,888,o),
(379,877,o),
(414,877,cs),
(471,877,o),
(508,919,o),
(518,991,c),
(478,1005,l),
(466,979,o),
(444,964,o),
(416,964,cs),
(391,964,o),
(371,972,o),
(350,980,cs),
(329,988,o),
(306,999,o),
(272,999,cs),
(212,999,o),
(174,958,o),
(164,887,c)
);
},
{
closed = 1;
nodes = (
(443,707,o),
(490,767,o),
(505,836,c),
(460,854,l),
(436,812,o),
(400,788,o),
(341,788,cs),
(282,788,o),
(247,812,o),
(222,854,c),
(177,836,l),
(192,767,o),
(239,707,o),
(341,707,cs)
);
}
);
width = 675;
}
);
note = uni1EB4;
unicode = 7860;
},
{
glyphname = uni01CD;
kernLeft = A;
kernRight = A;
layers = (
{
hints = (
{
horizontal = 1;
place = (658,-20);
target = down;
type = TopGhost;
},
{
horizontal = 1;
place = (191,58);
type = Stem;
},
{
horizontal = 1;
place = (0,57);
type = Stem;
},
{
horizontal = 1;
place = (0,55.5);
type = Stem;
},
{
place = (9,215);
type = Stem;
}
);
layerId = m01;
shapes = (
{
closed = 1;
nodes = (
(290,504,l),
(371,249,l),
(207,249,l)
);
},
{
closed = 1;
nodes = (
(9,0,l),
(224,0,l),
(224,54,l),
(148,66,l),
(188,191,l),
(389,191,l),
(430,62,l),
(353,52,l),
(353,0,l),
(662,0,l),
(662,52,l),
(601,59,l),
(396,658,l),
(293,658,l),
(90,66,l),
(9,54,l)
);
},
{
closed = 1;
nodes = (
(203,885,l),
(170,853,l),
(298,705,l),
(384,705,l),
(513,853,l),
(479,885,l),
(341,795,l)
);
}
);
width = 675;
}
);
note = uni01CD;
unicode = 461;
},
{
glyphname = uni1EA4;
kernLeft = A;
kernRight = A;
layers = (
{
hints = (
{
horizontal = 1;
place = (658,-20);
target = down;
type = TopGhost;
},
{
horizontal = 1;
place = (191,58);
type = Stem;
},
{
horizontal = 1;
place = (0,57);
type = Stem;
},
{
horizontal = 1;
place = (0,55.5);
type = Stem;
},
{
place = (9,215);
type = Stem;
}
);
layerId = m01;
shapes = (
{
closed = 1;
nodes = (
(290,504,l),
(371,249,l),
(207,249,l)
);
},
{
closed = 1;
nodes = (
(9,0,l),
(224,0,l),
(224,54,l),
(148,66,l),
(188,191,l),
(389,191,l),
(430,62,l),
(353,52,l),
(353,0,l),
(662,0,l),
(662,52,l),
(601,59,l),
(396,658,l),
(293,658,l),
(90,66,l),
(9,54,l)
);
},
{
closed = 1;
nodes = (
(187,687,l),
(341,772,l),
(495,687,l),
(525,723,l),
(375,874,l),
(307,874,l),
(157,723,l)
);
},
{
closed = 1;
nodes = (
(505,788,l),
(562,812,ls),
(606,830,o),
(628,856,o),
(628,883,cs),
(628,913,o),
(606,934,o),
(579,934,cs),
(557,934,o),
(529,922,o),
(502,871,c),
(474,826,l)
);
}
);
width = 675;
}
);
note = uni1EA4;
unicode = 7844;
},
{
glyphname = uni1EAC;
kernLeft = A;
kernRight = A;
layers = (
{
hints = (
{
horizontal = 1;
place = (658,-20);
target = down;
type = TopGhost;
},
{
horizontal = 1;
place = (191,58);
type = Stem;
},
{
horizontal = 1;
place = (0,57);
type = Stem;
},
{
horizontal = 1;
place = (0,55.5);
type = Stem;
},
{
horizontal = 1;
place = (-225,159);
type = Stem;
},
{
place = (227,170);
type = Stem;
},
{
place = (9,215);
type = Stem;
}
);
layerId = m01;
shapes = (
{
closed = 1;
nodes = (
(290,504,l),
(371,249,l),
(207,249,l)
);
},
{
closed = 1;
nodes = (
(9,0,l),
(224,0,l),
(224,54,l),
(148,66,l),
(188,191,l),
(389,191,l),
(430,62,l),
(353,52,l),
(353,0,l),
(662,0,l),
(662,52,l),
(601,59,l),
(396,658,l),
(293,658,l),
(90,66,l),
(9,54,l)
);
},
{
closed = 1;
nodes = (
(374,868,l),
(306,868,l),
(156,717,l),
(186,681,l),
(340,766,l),
(494,681,l),
(524,717,l)
);
},
{
closed = 1;
nodes = (
(359,-225,o),
(397,-192,o),
(397,-146,cs),
(397,-99,o),
(359,-66,o),
(312,-66,cs),
(265,-66,o),
(227,-99,o),
(227,-146,cs),
(227,-192,o),
(265,-225,o),
(312,-225,cs)
);
}
);
width = 675;
}
);
note = uni1EAC;
unicode = 7852;
},
{
glyphname = uni1EA6;
kernLeft = A;
kernRight = A;
layers = (
{
hints = (
{
horizontal = 1;
place = (658,-20);
target = down;
type = TopGhost;
},
{
horizontal = 1;
place = (191,58);
type = Stem;
},
{
horizontal = 1;
place = (0,57);
type = Stem;
},
{
horizontal = 1;
place = (0,55.5);
type = Stem;
},
{
place = (9,215);
type = Stem;
}
);
layerId = m01;
shapes = (
{
closed = 1;
nodes = (
(290,504,l),
(371,249,l),
(207,249,l)
);
},
{
closed = 1;
nodes = (
(9,0,l),
(224,0,l),
(224,54,l),
(148,66,l),
(188,191,l),
(389,191,l),
(430,62,l),
(353,52,l),
(353,0,l),
(662,0,l),
(662,52,l),
(601,59,l),
(396,658,l),
(293,658,l),
(90,66,l),
(9,54,l)
);
},
{
closed = 1;
nodes = (
(495,687,l),
(525,723,l),
(375,874,l),
(307,874,l),
(157,723,l),
(187,687,l),
(341,772,l)
);
},
{
closed = 1;
nodes = (
(174,788,l),
(205,826,l),
(178,871,ls),
(150,923,o),
(122,934,o),
(100,934,cs),
(74,934,o),
(51,913,o),
(51,883,cs),
(51,856,o),
(74,830,o),
(117,812,cs)
);
}
);
width = 675;
}
);
note = uni1EA6;
unicode = 7846;
},
{
glyphname = uni1EA8;
kernLeft = A;
kernRight = A;
layers = (
{
hints = (
{
horizontal = 1;
place = (658,-20);
target = down;
type = TopGhost;
},
{
horizontal = 1;
place = (191,58);
type = Stem;
},
{
horizontal = 1;
place = (0,57);
type = Stem;
},
{
horizontal = 1;
place = (0,55.5);
type = Stem;
},
{
place = (529,76);
type = Stem;
},
{
place = (9,215);
type = Stem;
}
);
layerId = m01;
shapes = (
{
closed = 1;
nodes = (
(290,504,l),
(371,249,l),
(207,249,l)
);
},
{
closed = 1;
nodes = (
(9,0,l),
(224,0,l),
(224,54,l),
(148,66,l),
(188,191,l),
(389,191,l),
(430,62,l),
(353,52,l),
(353,0,l),
(662,0,l),
(662,52,l),
(601,59,l),
(396,658,l),
(293,658,l),
(90,66,l),
(9,54,l)
);
},
{
closed = 1;
nodes = (
(187,687,l),
(341,772,l),
(495,687,l),
(525,723,l),
(375,874,l),
(307,874,l),
(157,723,l)
);
},
{
closed = 1;
nodes = (
(485,790,l),
(561,799,o),
(605,832,o),
(605,885,cs),
(605,947,o),
(556,984,o),
(456,993,c),
(446,892,l),
(507,887,o),
(529,877,o),
(529,863,cs),
(529,852,o),
(520,841,o),
(476,833,c)
);
}
);
width = 675;
}
);
note = uni1EA8;
unicode = 7848;
},
{
glyphname = uni1EAA;
kernLeft = A;
kernRight = A;
layers = (
{
hints = (
{
horizontal = 1;
place = (658,-20);
target = down;
type = TopGhost;
},
{
horizontal = 1;
place = (903,86);
type = Stem;
},
{
horizontal = 1;
place = (867,87);
type = Stem;
},
{
horizontal = 1;
place = (191,58);
type = Stem;
},
{
horizontal = 1;
place = (0,57);
type = Stem;
},
{
horizontal = 1;
place = (0,55.5);
type = Stem;
},
{
place = (9,215);
type = Stem;
}
);
layerId = m01;
shapes = (
{
closed = 1;
nodes = (
(290,504,l),
(371,249,l),
(207,249,l)
);
},
{
closed = 1;
nodes = (
(9,0,l),
(224,0,l),
(224,54,l),
(148,66,l),
(188,191,l),
(389,191,l),
(430,62,l),
(353,52,l),
(353,0,l),
(662,0,l),
(662,52,l),
(601,59,l),
(396,658,l),
(293,658,l),
(90,66,l),
(9,54,l)
);
},
{
closed = 1;
nodes = (
(186,684,l),
(341,754,l),
(496,684,l),
(525,720,l),
(375,845,l),
(307,845,l),
(157,720,l)
);
},
{
closed = 1;
nodes = (
(204,862,l),
(216,887,o),
(237,903,o),
(265,903,cs),
(291,903,o),
(311,894,o),
(331,887,cs),
(353,878,o),
(379,867,o),
(414,867,cs),
(464,867,o),
(508,909,o),
(518,981,c),
(478,995,l),
(466,969,o),
(444,954,o),
(416,954,cs),
(391,954,o),
(371,962,o),
(350,970,cs),
(329,978,o),
(306,989,o),
(272,989,cs),
(218,989,o),
(174,948,o),
(164,877,c)
);
}
);
width = 675;
}
);
note = uni1EAA;
unicode = 7850;
},
{
glyphname = uni1EA0;
kernLeft = A;
kernRight = A;
layers = (
{
hints = (
{
horizontal = 1;
place = (658,-20);
target = down;
type = TopGhost;
},
{
horizontal = 1;
place = (191,58);
type = Stem;
},
{
horizontal = 1;
place = (0,57);
type = Stem;
},
{
horizontal = 1;
place = (0,55.5);
type = Stem;
},
{
horizontal = 1;
place = (-225,159);
type = Stem;
},
{
place = (227,170);
type = Stem;
},
{
place = (9,215);
type = Stem;
}
);
layerId = m01;
shapes = (
{
closed = 1;
nodes = (
(290,504,l),
(371,249,l),
(207,249,l)
);
},
{
closed = 1;
nodes = (
(9,0,l),
(224,0,l),
(224,54,l),
(148,66,l),
(188,191,l),
(389,191,l),
(430,62,l),
(353,52,l),
(353,0,l),
(662,0,l),
(662,52,l),
(601,59,l),
(396,658,l),
(293,658,l),
(90,66,l),
(9,54,l)
);
},
{
closed = 1;
nodes = (
(359,-225,o),
(397,-192,o),
(397,-146,cs),
(397,-99,o),
(359,-66,o),
(312,-66,cs),
(265,-66,o),
(227,-99,o),
(227,-146,cs),
(227,-192,o),
(265,-225,o),
(312,-225,cs)
);
}
);
width = 675;
}
);
note = uni1EA0;
unicode = 7840;
},
{
glyphname = uni1EA2;
kernLeft = A;
kernRight = A;
layers = (
{
hints = (
{
horizontal = 1;
place = (658,-20);
target = down;
type = TopGhost;
},
{
horizontal = 1;
place = (808,100);
type = Stem;
},
{
horizontal = 1;
place = (191,58);
type = Stem;
},
{
horizontal = 1;
place = (0,57);
type = Stem;
},
{
horizontal = 1;
place = (0,55.5);
type = Stem;
},
{
place = (346,77);
type = Stem;
},
{
place = (9,215);
type = Stem;
}
);
layerId = m01;
shapes = (
{
closed = 1;
nodes = (
(290,504,l),
(371,249,l),
(207,249,l)
);
},
{
closed = 1;
nodes = (
(9,0,l),
(224,0,l),
(224,54,l),
(148,66,l),
(188,191,l),
(389,191,l),
(430,62,l),
(353,52,l),
(353,0,l),
(662,0,l),
(662,52,l),
(601,59,l),
(396,658,l),
(293,658,l),
(90,66,l),
(9,54,l)
);
},
{
closed = 1;
nodes = (
(302,708,l),
(379,717,o),
(423,748,o),
(423,800,cs),
(423,863,o),
(373,900,o),
(273,908,c),
(264,808,l),
(325,803,o),
(346,794,o),
(346,779,cs),
(346,768,o),
(338,759,o),
(293,750,c)
);
}
);
width = 675;
}
);
note = uni1EA2;
unicode = 7842;
},
{
glyphname = Aring;
kernLeft = A;
kernRight = A;
layers = (
{
hints = (
{
horizontal = 1;
place = (658,-20);
target = down;
type = TopGhost;
},
{
horizontal = 1;
place = (852,47);
type = Stem;
},
{
horizontal = 1;
place = (701,46);
type = Stem;
},
{
horizontal = 1;
place = (191,58);
type = Stem;
},
{
horizontal = 1;
place = (0,57);
type = Stem;
},
{
horizontal = 1;
place = (0,55.5);
type = Stem;
},
{
place = (394,52);
type = Stem;
},
{
place = (240,52);
type = Stem;
},
{
place = (9,215);
type = Stem;
}
);
layerId = m01;
shapes = (
{
closed = 1;
nodes = (
(290,504,l),
(371,249,l),
(207,249,l)
);
},
{
closed = 1;
nodes = (
(9,0,l),
(224,0,l),
(224,54,l),
(148,66,l),
(188,191,l),
(389,191,l),
(430,62,l),
(353,52,l),
(353,0,l),
(662,0,l),
(662,52,l),
(601,59,l),
(396,658,l),
(293,658,l),
(90,66,l),
(9,54,l)
);
},
{
closed = 1;
nodes = (
(312,747,o),
(292,769,o),
(292,800,cs),
(292,830,o),
(312,852,o),
(343,852,cs),
(374,852,o),
(394,830,o),
(394,800,cs),
(394,769,o),
(374,747,o),
(343,747,cs)
);
},
{
closed = 1;
nodes = (
(400,701,o),
(446,738,o),
(446,800,cs),
(446,862,o),
(400,899,o),
(343,899,cs),
(286,899,o),
(240,860,o),
(240,800,cs),
(240,739,o),
(286,701,o),
(343,701,cs)
);
}
);
width = 675;
}
);
note = Aring;
unicode = 197;
},
{
glyphname = Aogonek;
kernLeft = A;
kernRight = A;
layers = (
{
anchors = (
{
name = top;
pos = (335,685);
}
);
hints = (
{
horizontal = 1;
place = (658,-20);
target = down;
type = TopGhost;
},
{
horizontal = 1;
place = (191,58);
type = Stem;
},
{
horizontal = 1;
place = (0,57);
type = Stem;
},
{
horizontal = 1;
place = (0,55.5);
type = Stem;
},
{
horizontal = 1;
place = (-225,82);
type = Stem;
},
{
place = (425,103);
type = Stem;
},
{
place = (353,175);
type = Stem;
},
{
place = (9,215);
type = Stem;
}
);
layerId = m01;
shapes = (
{
closed = 1;
nodes = (
(290,504,l),
(371,249,l),
(207,249,l)
);
},
{
closed = 1;
nodes = (
(9,0,l),
(224,0,l),
(224,54,l),
(148,66,l),
(188,191,l),
(389,191,l),
(430,62,l),
(353,52,l),
(353,0,l),
(523,0,l),
(462,-29,o),
(425,-71,o),
(425,-128,cs),
(425,-183,o),
(465,-225,o),
(536,-225,cs),
(586,-225,o),
(637,-208,o),
(668,-176,c),
(653,-133,l),
(637,-139,o),
(621,-143,o),
(599,-143,cs),
(556,-143,o),
(528,-118,o),
(528,-77,cs),
(528,-47,o),
(540,-21,o),
(570,0,c),
(662,0,l),
(662,52,l),
(601,59,l),
(396,658,l),
(293,658,l),
(90,66,l),
(9,54,l)
);
}
);
width = 675;
}
);
note = Aogonek;
unicode = 260;
},
{
glyphname = AE;
kernLeft = AE;
kernRight = E;
layers = (
{
anchors = (
{
name = top;
pos = (569,685);
}
);
hints = (
{
horizontal = 1;
place = (601,56);
type = Stem;
},
{
horizontal = 1;
place = (597.5,59.5);
type = Stem;
},
{
horizontal = 1;
place = (588,69);
type = Stem;
},
{
horizontal = 1;
place = (485,172);
type = Stem;
},
{
horizontal = 1;
place = (310,59);
type = Stem;
},
{
horizontal = 1;
place = (244,58);
type = Stem;
},
{
horizontal = 1;
place = (0,172);
type = Stem;
},
{
horizontal = 1;
place = (0,58.5);
type = Stem;
},
{
horizontal = 1;
place = (0,58);
type = Stem;
},
{
horizontal = 1;
place = (0,56);
type = Stem;
},
{
place = (696,58);
type = Stem;
},
{
place = (684,70);
type = Stem;
},
{
place = (408,166);
type = Stem;
},
{
place = (9,215);
type = Stem;
}
);
layerId = m01;
shapes = (
{
closed = 1;
nodes = (
(259,302,l),
(396,588,l),
(408,588,l),
(408,302,l)
);
},
{
closed = 1;
nodes = (
(9,0,l),
(224,0,l),
(224,54,l),
(146,67,l),
(231,244,l),
(408,244,l),
(408,184,o),
(407,122,o),
(406,62,c),
(332,54,l),
(332,0,l),
(861,0,l),
(868,172,l),
(784,172,l),
(764,56,l),
(576,56,l),
(574,137,o),
(574,218,o),
(574,310,c),
(684,310,l),
(696,232,l),
(754,232,l),
(754,447,l),
(696,447,l),
(684,369,l),
(574,369,l),
(574,447,o),
(574,525,o),
(576,601,c),
(744,601,l),
(764,485,l),
(848,485,l),
(841,657,l),
(239,657,l),
(239,603,l),
(333,592,l),
(75,63,l),
(9,54,l)
);
}
);
width = 892;
}
);
note = AE;
unicode = 198;
},
{
glyphname = Ccedilla;
kernLeft = C;
kernRight = C;
layers = (
{
hints = (
{
horizontal = 1;
place = (619,57);
type = Stem;
},
{
horizontal = 1;
place = (-19,58);
type = Stem;
},
{
horizontal = 1;
place = (-225,51);
type = Stem;
},
{
place = (391,97);
type = Stem;
},
{
place = (34,177);
type = Stem;
}
);
layerId = m01;
shapes = (
{
closed = 1;
nodes = (
(301,39,o),
(211,124,o),
(211,328,cs),
(211,532,o),
(305,619,o),
(411,619,cs),
(436,619,o),
(459,614,o),
(483,602,c),
(512,471,l),
(588,471,l),
(584,626,l),
(524,659,o),
(464,676,o),
(388,676,cs),
(200,676,o),
(34,565,o),
(34,329,cs),
(34,112,o),
(166,-1,o),
(339,-17,c),
(328,-89,l),
(370,-92,o),
(391,-106,o),
(391,-136,cs),
(391,-159,o),
(375,-174,o),
(339,-174,cs),
(321,-174,o),
(305,-171,o),
(286,-166,c),
(275,-212,l),
(298,-220,o),
(321,-225,o),
(353,-225,cs),
(443,-225,o),
(488,-187,o),
(488,-136,cs),
(488,-96,o),
(458,-64,o),
(388,-51,c),
(391,-19,l),
(473,-17,o),
(539,4,o),
(591,32,c),
(595,186,l),
(519,186,l),
(491,58,l),
(463,46,o),
(435,39,o),
(407,39,cs)
);
}
);
width = 622;
}
);
note = Ccedilla;
unicode = 199;
},
{
glyphname = Cacute;
kernLeft = C;
kernRight = C;
layers = (
{
hints = (
{
horizontal = 1;
place = (619,57);
type = Stem;
},
{
horizontal = 1;
place = (-19,58);
type = Stem;
},
{
place = (34,177);
type = Stem;
}
);
layerId = m01;
shapes = (
{
closed = 1;
nodes = (
(301,39,o),
(211,124,o),
(211,328,cs),
(211,532,o),
(305,619,o),
(411,619,cs),
(436,619,o),
(459,614,o),
(483,602,c),
(512,471,l),
(588,471,l),
(584,626,l),
(524,659,o),
(464,676,o),
(388,676,cs),
(200,676,o),
(34,565,o),
(34,329,cs),
(34,95,o),
(188,-19,o),
(381,-19,cs),
(467,-19,o),
(537,3,o),
(591,32,c),
(595,186,l),
(519,186,l),
(491,58,l),
(463,46,o),
(435,39,o),
(407,39,cs)
);
},
{
closed = 1;
nodes = (
(341,702,l),
(392,725,o),
(444,747,o),
(496,771,cs),
(543,792,o),
(553,817,o),
(553,836,cs),
(553,862,o),
(530,887,o),
(498,887,cs),
(475,887,o),
(456,878,o),
(424,847,cs),
(388,813,o),
(350,777,o),
(313,741,c)
);
}
);
width = 622;
}
);
note = Cacute;
unicode = 262;
},
{
glyphname = Ccaron;
kernLeft = C;
kernRight = C;
layers = (
{
hints = (
{
horizontal = 1;
place = (619,57);
type = Stem;
},
{
horizontal = 1;
place = (-19,58);
type = Stem;
},
{
place = (34,177);
type = Stem;
}
);
layerId = m01;
shapes = (
{
closed = 1;
nodes = (
(301,39,o),
(211,124,o),
(211,328,cs),
(211,532,o),
(305,619,o),
(411,619,cs),
(436,619,o),
(459,614,o),
(483,602,c),
(512,471,l),
(588,471,l),
(584,626,l),
(524,659,o),
(464,676,o),
(388,676,cs),
(200,676,o),
(34,565,o),
(34,329,cs),
(34,95,o),
(188,-19,o),
(381,-19,cs),
(467,-19,o),
(537,3,o),
(591,32,c),
(595,186,l),
(519,186,l),
(491,58,l),
(463,46,o),
(435,39,o),
(407,39,cs)
);
},
{
closed = 1;
nodes = (
(243,892,l),
(210,860,l),
(338,712,l),
(424,712,l),
(553,860,l),
(519,892,l),
(381,802,l)
);
}
);
width = 622;
}
);
note = Ccaron;
unicode = 268;
},
{
glyphname = Ccircumflex;
kernLeft = C;
kernRight = C;
layers = (
{
hints = (
{
horizontal = 1;
place = (619,57);
type = Stem;
},
{
horizontal = 1;
place = (-19,58);
type = Stem;
},
{
place = (34,177);
type = Stem;
}
);
layerId = m01;
shapes = (
{
closed = 1;
nodes = (
(301,39,o),
(211,124,o),
(211,328,cs),
(211,532,o),
(305,619,o),
(411,619,cs),
(436,619,o),
(459,614,o),
(483,602,c),
(512,471,l),
(588,471,l),
(584,626,l),
(524,659,o),
(464,676,o),
(388,676,cs),
(200,676,o),
(34,565,o),
(34,329,cs),
(34,95,o),
(188,-19,o),
(381,-19,cs),
(467,-19,o),
(537,3,o),
(591,32,c),
(595,186,l),
(519,186,l),
(491,58,l),
(463,46,o),
(435,39,o),
(407,39,cs)
);
},
{
closed = 1;
nodes = (
(402,874,l),
(334,874,l),
(184,723,l),
(214,687,l),
(368,772,l),
(522,687,l),
(552,723,l)
);
}
);
width = 622;
}
);
note = Ccircumflex;
unicode = 264;
},
{
glyphname = Cdotaccent;
kernLeft = C;
kernRight = C;
layers = (
{
hints = (
{
horizontal = 1;
place = (709,159);
type = Stem;
},
{
horizontal = 1;
place = (619,57);
type = Stem;
},
{
horizontal = 1;
place = (-19,58);
type = Stem;
},
{
place = (286,170);
type = Stem;
},
{
place = (34,177);
type = Stem;
}
);
layerId = m01;
shapes = (
{
closed = 1;
nodes = (
(301,39,o),
(211,124,o),
(211,328,cs),
(211,532,o),
(305,619,o),
(411,619,cs),
(436,619,o),
(459,614,o),
(483,602,c),
(512,471,l),
(588,471,l),
(584,626,l),
(524,659,o),
(464,676,o),
(388,676,cs),
(200,676,o),
(34,565,o),
(34,329,cs),
(34,95,o),
(188,-19,o),
(381,-19,cs),
(467,-19,o),
(537,3,o),
(591,32,c),
(595,186,l),
(519,186,l),
(491,58,l),
(463,46,o),
(435,39,o),
(407,39,cs)
);
},
{
closed = 1;
nodes = (
(418,709,o),
(456,742,o),
(456,789,cs),
(456,835,o),
(418,868,o),
(371,868,cs),
(324,868,o),
(286,835,o),
(286,789,cs),
(286,742,o),
(324,709,o),
(371,709,cs)
);
}
);
width = 622;
}
);
note = Cdotaccent;
unicode = 266;
},
{
glyphname = Dcaron;
kernLeft = B;
kernRight = D;
layers = (
{
hints = (
{
horizontal = 1;
place = (599,58);
type = Stem;
},
{
horizontal = 1;
place = (0,58);
type = Stem;
},
{
place = (498,173);
type = Stem;
},
{
place = (110,168);
type = Stem;
}
);
layerId = m01;
shapes = (
{
closed = 1;
nodes = (
(110,313,ls),
(110,227,o),
(110,143,o),
(108,62,c),
(33,54,l),
(33,0,l),
(312,0,ls),
(531,0,o),
(671,122,o),
(671,330,cs),
(671,533,o),
(543,657,o),
(330,657,cs),
(33,657,l),
(33,603,l),
(108,595,l),
(110,513,o),
(110,429,o),
(110,347,cs)
);
},
{
closed = 1;
nodes = (
(278,347,ls),
(278,432,o),
(278,516,o),
(280,599,c),
(314,599,ls),
(427,599,o),
(498,505,o),
(498,329,cs),
(498,156,o),
(427,58,o),
(313,58,cs),
(280,58,l),
(278,142,o),
(278,227,o),
(278,314,cs)
);
},
{
closed = 1;
nodes = (
(198,885,l),
(165,853,l),
(293,705,l),
(379,705,l),
(508,853,l),
(474,885,l),
(336,795,l)
);
}
);
width = 705;
}
);
note = Dcaron;
unicode = 270;
},
{
glyphname = Dcroat;
kernLeft = B;
kernRight = D;
layers = (
{
hints = (
{
horizontal = 1;
place = (599,58);
type = Stem;
},
{
horizontal = 1;
place = (308,58);
type = Stem;
},
{
horizontal = 1;
place = (0,58);
type = Stem;
},
{
place = (498,173);
type = Stem;
},
{
place = (110,168);
type = Stem;
}
);
layerId = m01;
shapes = (
{
closed = 1;
nodes = (
(33,603,l),
(108,595,l),
(110,519,o),
(110,442,o),
(110,366,c),
(33,366,l),
(33,308,l),
(110,308,l),
(110,227,o),
(110,143,o),
(108,62,c),
(33,54,l),
(33,0,l),
(312,0,ls),
(531,0,o),
(671,122,o),
(671,330,cs),
(671,533,o),
(543,657,o),
(330,657,cs),
(33,657,l)
);
},
{
closed = 1;
nodes = (
(394,308,l),
(394,366,l),
(278,366,l),
(278,432,o),
(278,516,o),
(280,599,c),
(314,599,ls),
(427,599,o),
(498,505,o),
(498,329,cs),
(498,156,o),
(427,58,o),
(313,58,cs),
(280,58,l),
(278,137,o),
(278,217,o),
(278,308,c)
);
}
);
width = 705;
}
);
note = Dcroat;
unicode = 272;
},
{
glyphname = uni1E0C;
kernLeft = B;
kernRight = D;
layers = (
{
hints = (
{
horizontal = 1;
place = (599,58);
type = Stem;
},
{
horizontal = 1;
place = (0,58);
type = Stem;
},
{
horizontal = 1;
place = (-225,159);
type = Stem;
},
{
place = (498,173);
type = Stem;
},
{
place = (257,170);
type = Stem;
},
{
place = (110,168);
type = Stem;
}
);
layerId = m01;
shapes = (
{
closed = 1;
nodes = (
(110,313,ls),
(110,227,o),
(110,143,o),
(108,62,c),
(33,54,l),
(33,0,l),
(312,0,ls),
(531,0,o),
(671,122,o),
(671,330,cs),
(671,533,o),
(543,657,o),
(330,657,cs),
(33,657,l),
(33,603,l),
(108,595,l),
(110,513,o),
(110,429,o),
(110,347,cs)
);
},
{
closed = 1;
nodes = (
(278,347,ls),
(278,432,o),
(278,516,o),
(280,599,c),
(314,599,ls),
(427,599,o),
(498,505,o),
(498,329,cs),
(498,156,o),
(427,58,o),
(313,58,cs),
(280,58,l),
(278,142,o),
(278,227,o),
(278,314,cs)
);
},
{
closed = 1;
nodes = (
(389,-225,o),
(427,-192,o),
(427,-146,cs),
(427,-99,o),
(389,-66,o),
(342,-66,cs),
(295,-66,o),
(257,-99,o),
(257,-146,cs),
(257,-192,o),
(295,-225,o),
(342,-225,cs)
);
}
);
width = 705;
}
);
note = uni1E0C;
unicode = 7692;
},
{
glyphname = uni1E0E;
kernLeft = B;
kernRight = D;
layers = (
{
hints = (
{
horizontal = 1;
place = (599,58);
type = Stem;
},
{
horizontal = 1;
place = (0,58);
type = Stem;
},
{
horizontal = 1;
place = (-193,89);
type = Stem;
},
{
place = (498,173);
type = Stem;
},
{
place = (189,318);
type = Stem;
},
{
place = (189,89);
type = Stem;
},
{
place = (110,168);
type = Stem;
}
);
layerId = m01;
shapes = (
{
closed = 1;
nodes = (
(110,313,ls),
(110,227,o),
(110,143,o),
(108,62,c),
(33,54,l),
(33,0,l),
(312,0,ls),
(531,0,o),
(671,122,o),
(671,330,cs),
(671,533,o),
(543,657,o),
(330,657,cs),
(33,657,l),
(33,603,l),
(108,595,l),
(110,513,o),
(110,429,o),
(110,347,cs)
);
},
{
closed = 1;
nodes = (
(278,347,ls),
(278,432,o),
(278,516,o),
(280,599,c),
(314,599,ls),
(427,599,o),
(498,505,o),
(498,329,cs),
(498,156,o),
(427,58,o),
(313,58,cs),
(280,58,l),
(278,142,o),
(278,227,o),
(278,314,cs)
);
},
{
closed = 1;
nodes = (
(189,-193,l),
(507,-193,l),
(507,-104,l),
(189,-104,l)
);
}
);
width = 705;
}
);
note = uni1E0E;
unicode = 7694;
},
{
glyphname = Egrave;
kernLeft = B;
kernRight = E;
layers = (
{
hints = (
{
horizontal = 1;
place = (601,56);
type = Stem;
},
{
horizontal = 1;
place = (599,58);
type = Stem;
},
{
horizontal = 1;
place = (485,172);
type = Stem;
},
{
horizontal = 1;
place = (310,59);
type = Stem;
},
{
horizontal = 1;
place = (0,172);
type = Stem;
},
{
horizontal = 1;
place = (0,58);
type = Stem;
},
{
horizontal = 1;
place = (0,56);
type = Stem;
},
{
place = (398,58);
type = Stem;
},
{
place = (386,70);
type = Stem;
},
{
place = (110,168);
type = Stem;
}
);
layerId = m01;
shapes = (
{
closed = 1;
nodes = (
(110,310,ls),
(110,226,o),
(110,143,o),
(108,62,c),
(33,54,l),
(33,0,l),
(563,0,l),
(570,172,l),
(487,172,l),
(467,56,l),
(280,56,l),
(278,137,o),
(278,218,o),
(278,310,c),
(386,310,l),
(398,232,l),
(456,232,l),
(456,447,l),
(398,447,l),
(386,369,l),
(278,369,l),
(278,447,o),
(278,525,o),
(280,601,c),
(447,601,l),
(467,485,l),
(550,485,l),
(543,657,l),
(33,657,l),
(33,603,l),
(108,595,l),
(110,513,o),
(110,429,o),
(110,347,cs)
);
},
{
closed = 1;
nodes = (
(373,734,l),
(336,771,o),
(297,807,o),
(262,840,cs),
(230,871,o),
(211,880,o),
(188,880,cs),
(156,880,o),
(133,855,o),
(133,829,cs),
(133,810,o),
(143,784,o),
(191,762,cs),
(243,739,o),
(295,717,o),
(345,695,c)
);
}
);
width = 595;
}
);
note = Egrave;
unicode = 200;
},
{
glyphname = Eacute;
kernLeft = B;
kernRight = E;
layers = (
{
hints = (
{
horizontal = 1;
place = (601,56);
type = Stem;
},
{
horizontal = 1;
place = (599,58);
type = Stem;
},
{
horizontal = 1;
place = (485,172);
type = Stem;
},
{
horizontal = 1;
place = (310,59);
type = Stem;
},
{
horizontal = 1;
place = (0,172);
type = Stem;
},
{
horizontal = 1;
place = (0,58);
type = Stem;
},
{
horizontal = 1;
place = (0,56);
type = Stem;
},
{
place = (398,58);
type = Stem;
},
{
place = (386,70);
type = Stem;
},
{
place = (110,168);
type = Stem;
}
);
layerId = m01;
shapes = (
{
closed = 1;
nodes = (
(110,310,ls),
(110,226,o),
(110,143,o),
(108,62,c),
(33,54,l),
(33,0,l),
(563,0,l),
(570,172,l),
(487,172,l),
(467,56,l),
(280,56,l),
(278,137,o),
(278,218,o),
(278,310,c),
(386,310,l),
(398,232,l),
(456,232,l),
(456,447,l),
(398,447,l),
(386,369,l),
(278,369,l),
(278,447,o),
(278,525,o),
(280,601,c),
(447,601,l),
(467,485,l),
(550,485,l),
(543,657,l),
(33,657,l),
(33,603,l),
(108,595,l),
(110,513,o),
(110,429,o),
(110,347,cs)
);
},
{
closed = 1;
nodes = (
(268,695,l),
(319,718,o),
(371,740,o),
(423,764,cs),
(470,785,o),
(480,810,o),
(480,829,cs),
(480,855,o),
(457,880,o),
(425,880,cs),
(402,880,o),
(383,871,o),
(351,840,cs),
(315,806,o),
(277,770,o),
(240,734,c)
);
}
);
width = 595;
}
);
note = Eacute;
unicode = 201;
},
{
glyphname = Ecircumflex;
kernLeft = B;
kernRight = E;
layers = (
{
hints = (
{
horizontal = 1;
place = (601,56);
type = Stem;
},
{
horizontal = 1;
place = (599,58);
type = Stem;
},
{
horizontal = 1;
place = (485,172);
type = Stem;
},
{
horizontal = 1;
place = (310,59);
type = Stem;
},
{
horizontal = 1;
place = (0,172);
type = Stem;
},
{
horizontal = 1;
place = (0,58);
type = Stem;
},
{
horizontal = 1;
place = (0,56);
type = Stem;
},
{
place = (398,58);
type = Stem;
},
{
place = (386,70);
type = Stem;
},
{
place = (110,168);
type = Stem;
}
);
layerId = m01;
shapes = (
{
closed = 1;
nodes = (
(110,310,ls),
(110,226,o),
(110,143,o),
(108,62,c),
(33,54,l),
(33,0,l),
(563,0,l),
(570,172,l),
(487,172,l),
(467,56,l),
(280,56,l),
(278,137,o),
(278,218,o),
(278,310,c),
(386,310,l),
(398,232,l),
(456,232,l),
(456,447,l),
(398,447,l),
(386,369,l),
(278,369,l),
(278,447,o),
(278,525,o),
(280,601,c),
(447,601,l),
(467,485,l),
(550,485,l),
(543,657,l),
(33,657,l),
(33,603,l),
(108,595,l),
(110,513,o),
(110,429,o),
(110,347,cs)
);
},
{
closed = 1;
nodes = (
(357,874,l),
(289,874,l),
(139,723,l),
(169,687,l),
(323,772,l),
(477,687,l),
(507,723,l)
);
}
);
width = 595;
}
);
note = Ecircumflex;
unicode = 202;
},
{
glyphname = Ecaron;
kernLeft = B;
kernRight = E;
layers = (
{
hints = (
{
horizontal = 1;
place = (601,56);
type = Stem;
},
{
horizontal = 1;
place = (599,58);
type = Stem;
},
{
horizontal = 1;
place = (485,172);
type = Stem;
},
{
horizontal = 1;
place = (310,59);
type = Stem;
},
{
horizontal = 1;
place = (0,172);
type = Stem;
},
{
horizontal = 1;
place = (0,58);
type = Stem;
},
{
horizontal = 1;
place = (0,56);
type = Stem;
},
{
place = (398,58);
type = Stem;
},
{
place = (386,70);
type = Stem;
},
{
place = (110,168);
type = Stem;
}
);
layerId = m01;
shapes = (
{
closed = 1;
nodes = (
(110,310,ls),
(110,226,o),
(110,143,o),
(108,62,c),
(33,54,l),
(33,0,l),
(563,0,l),
(570,172,l),
(487,172,l),
(467,56,l),
(280,56,l),
(278,137,o),
(278,218,o),
(278,310,c),
(386,310,l),
(398,232,l),
(456,232,l),
(456,447,l),
(398,447,l),
(386,369,l),
(278,369,l),
(278,447,o),
(278,525,o),
(280,601,c),
(447,601,l),
(467,485,l),
(550,485,l),
(543,657,l),
(33,657,l),
(33,603,l),
(108,595,l),
(110,513,o),
(110,429,o),
(110,347,cs)
);
},
{
closed = 1;
nodes = (
(177,885,l),
(144,853,l),
(272,705,l),
(358,705,l),
(487,853,l),
(453,885,l),
(315,795,l)
);
}
);
width = 595;
}
);
note = Ecaron;
unicode = 282;
},
{
glyphname = Edieresis;
kernLeft = B;
kernRight = E;
layers = (
{
hints = (
{
horizontal = 1;
place = (713,138);
type = Stem;
},
{
horizontal = 1;
place = (601,56);
type = Stem;
},
{
horizontal = 1;
place = (599,58);
type = Stem;
},
{
horizontal = 1;
place = (485,172);
type = Stem;
},
{
horizontal = 1;
place = (310,59);
type = Stem;
},
{
horizontal = 1;
place = (0,172);
type = Stem;
},
{
horizontal = 1;
place = (0,58);
type = Stem;
},
{
horizontal = 1;
place = (0,56);
type = Stem;
},
{
place = (398,58);
type = Stem;
},
{
place = (386,70);
type = Stem;
},
{
place = (362,147);
type = Stem;
},
{
place = (113,147);
type = Stem;
},
{
place = (110,168);
type = Stem;
}
);
layerId = m01;
shapes = (
{
closed = 1;
nodes = (
(110,310,ls),
(110,226,o),
(110,143,o),
(108,62,c),
(33,54,l),
(33,0,l),
(563,0,l),
(570,172,l),
(487,172,l),
(467,56,l),
(280,56,l),
(278,137,o),
(278,218,o),
(278,310,c),
(386,310,l),
(398,232,l),
(456,232,l),
(456,447,l),
(398,447,l),
(386,369,l),
(278,369,l),
(278,447,o),
(278,525,o),
(280,601,c),
(447,601,l),
(467,485,l),
(550,485,l),
(543,657,l),
(33,657,l),
(33,603,l),
(108,595,l),
(110,513,o),
(110,429,o),
(110,347,cs)
);
},
{
closed = 1;
nodes = (
(226,713,o),
(260,739,o),
(260,782,cs),
(260,825,o),
(226,851,o),
(186,851,cs),
(148,851,o),
(113,825,o),
(113,782,cs),
(113,739,o),
(148,713,o),
(186,713,cs)
);
},
{
closed = 1;
nodes = (
(475,713,o),
(509,739,o),
(509,782,cs),
(509,825,o),
(475,851,o),
(435,851,cs),
(397,851,o),
(362,825,o),
(362,782,cs),
(362,739,o),
(397,713,o),
(435,713,cs)
);
}
);
width = 595;
}
);
note = Edieresis;
unicode = 203;
},
{
glyphname = Emacron;
kernLeft = B;
kernRight = E;
layers = (
{
hints = (
{
horizontal = 1;
place = (729,89);
type = Stem;
},
{
horizontal = 1;
place = (601,56);
type = Stem;
},
{
horizontal = 1;
place = (599,58);
type = Stem;
},
{
horizontal = 1;
place = (485,172);
type = Stem;
},
{
horizontal = 1;
place = (310,59);
type = Stem;
},
{
horizontal = 1;
place = (0,172);
type = Stem;
},
{
horizontal = 1;
place = (0,58);
type = Stem;
},
{
horizontal = 1;
place = (0,56);
type = Stem;
},
{
place = (398,58);
type = Stem;
},
{
place = (386,70);
type = Stem;
},
{
place = (162,322);
type = Stem;
},
{
place = (110,168);
type = Stem;
}
);
layerId = m01;
shapes = (
{
closed = 1;
nodes = (
(110,310,ls),
(110,226,o),
(110,143,o),
(108,62,c),
(33,54,l),
(33,0,l),
(563,0,l),
(570,172,l),
(487,172,l),
(467,56,l),
(280,56,l),
(278,137,o),
(278,218,o),
(278,310,c),
(386,310,l),
(398,232,l),
(456,232,l),
(456,447,l),
(398,447,l),
(386,369,l),
(278,369,l),
(278,447,o),
(278,525,o),
(280,601,c),
(447,601,l),
(467,485,l),
(550,485,l),
(543,657,l),
(33,657,l),
(33,603,l),
(108,595,l),
(110,513,o),
(110,429,o),
(110,347,cs)
);
},
{
closed = 1;
nodes = (
(162,729,l),
(484,729,l),
(484,818,l),
(162,818,l)
);
}
);
width = 595;
}
);
note = Emacron;
unicode = 274;
},
{
glyphname = Edotaccent;
kernLeft = B;
kernRight = E;
layers = (
{
hints = (
{
horizontal = 1;
place = (709,159);
type = Stem;
},
{
horizontal = 1;
place = (601,56);
type = Stem;
},
{
horizontal = 1;
place = (599,58);
type = Stem;
},
{
horizontal = 1;
place = (485,172);
type = Stem;
},
{
horizontal = 1;
place = (310,59);
type = Stem;
},
{
horizontal = 1;
place = (0,172);
type = Stem;
},
{
horizontal = 1;
place = (0,58);
type = Stem;
},
{
horizontal = 1;
place = (0,56);
type = Stem;
},
{
place = (398,58);
type = Stem;
},
{
place = (386,70);
type = Stem;
},
{
place = (235,170);
type = Stem;
},
{
place = (110,168);
type = Stem;
}
);
layerId = m01;
shapes = (
{
closed = 1;
nodes = (
(110,310,ls),
(110,226,o),
(110,143,o),
(108,62,c),
(33,54,l),
(33,0,l),
(563,0,l),
(570,172,l),
(487,172,l),
(467,56,l),
(280,56,l),
(278,137,o),
(278,218,o),
(278,310,c),
(386,310,l),
(398,232,l),
(456,232,l),
(456,447,l),
(398,447,l),
(386,369,l),
(278,369,l),
(278,447,o),
(278,525,o),
(280,601,c),
(447,601,l),
(467,485,l),
(550,485,l),
(543,657,l),
(33,657,l),
(33,603,l),
(108,595,l),
(110,513,o),
(110,429,o),
(110,347,cs)
);
},
{
closed = 1;
nodes = (
(367,709,o),
(405,742,o),
(405,789,cs),
(405,835,o),
(367,868,o),
(320,868,cs),
(273,868,o),
(235,835,o),
(235,789,cs),
(235,742,o),
(273,709,o),
(320,709,cs)
);
}
);
width = 595;
}
);
note = Edotaccent;
unicode = 278;
},
{
glyphname = Eogonek;
kernLeft = B;
kernRight = E;
layers = (
{
anchors = (
{
name = top;
pos = (315,685);
}
);
hints = (
{
horizontal = 1;
place = (601,56);
type = Stem;
},
{
horizontal = 1;
place = (599,58);
type = Stem;
},
{
horizontal = 1;
place = (485,172);
type = Stem;
},
{
horizontal = 1;
place = (310,59);
type = Stem;
},
{
horizontal = 1;
place = (0,172);
type = Stem;
},
{
horizontal = 1;
place = (0,58);
type = Stem;
},
{
horizontal = 1;
place = (0,56);
type = Stem;
},
{
horizontal = 1;
place = (-225,82);
type = Stem;
},
{
place = (398,58);
type = Stem;
},
{
place = (386,70);
type = Stem;
},
{
place = (349,103);
type = Stem;
},
{
place = (110,168);
type = Stem;
}
);
layerId = m01;
shapes = (
{
closed = 1;
nodes = (
(110,310,ls),
(110,226,o),
(110,143,o),
(108,62,c),
(33,54,l),
(33,0,l),
(447,0,l),
(386,-29,o),
(349,-71,o),
(349,-128,cs),
(349,-183,o),
(389,-225,o),
(460,-225,cs),
(510,-225,o),
(561,-208,o),
(592,-176,c),
(577,-133,l),
(561,-139,o),
(545,-143,o),
(523,-143,cs),
(480,-143,o),
(452,-118,o),
(452,-77,cs),
(452,-47,o),
(464,-21,o),
(494,0,c),
(563,0,l),
(570,172,l),
(487,172,l),
(467,56,l),
(280,56,l),
(278,137,o),
(278,218,o),
(278,310,c),
(386,310,l),
(398,232,l),
(456,232,l),
(456,447,l),
(398,447,l),
(386,369,l),
(278,369,l),
(278,447,o),
(278,525,o),
(280,601,c),
(447,601,l),
(467,485,l),
(550,485,l),
(543,657,l),
(33,657,l),
(33,603,l),
(108,595,l),
(110,513,o),
(110,429,o),
(110,347,cs)
);
}
);
width = 595;
}
);
note = Eogonek;
unicode = 280;
},
{
glyphname = Ebreve;
kernLeft = B;
kernRight = E;
layers = (
{
hints = (
{
horizontal = 1;
place = (707,81);
type = Stem;
},
{
horizontal = 1;
place = (601,56);
type = Stem;
},
{
horizontal = 1;
place = (599,58);
type = Stem;
},
{
horizontal = 1;
place = (485,172);
type = Stem;
},
{
horizontal = 1;
place = (310,59);
type = Stem;
},
{
horizontal = 1;
place = (0,172);
type = Stem;
},
{
horizontal = 1;
place = (0,58);
type = Stem;
},
{
horizontal = 1;
place = (0,56);
type = Stem;
},
{
place = (398,58);
type = Stem;
},
{
place = (386,70);
type = Stem;
},
{
place = (110,168);
type = Stem;
}
);
layerId = m01;
shapes = (
{
closed = 1;
nodes = (
(110,310,ls),
(110,226,o),
(110,143,o),
(108,62,c),
(33,54,l),
(33,0,l),
(563,0,l),
(570,172,l),
(487,172,l),
(467,56,l),
(280,56,l),
(278,137,o),
(278,218,o),
(278,310,c),
(386,310,l),
(398,232,l),
(456,232,l),
(456,447,l),
(398,447,l),
(386,369,l),
(278,369,l),
(278,447,o),
(278,525,o),
(280,601,c),
(447,601,l),
(467,485,l),
(550,485,l),
(543,657,l),
(33,657,l),
(33,603,l),
(108,595,l),
(110,513,o),
(110,429,o),
(110,347,cs)
);
},
{
closed = 1;
nodes = (
(146,842,l),
(160,770,o),
(209,707,o),
(311,707,cs),
(413,707,o),
(462,770,o),
(476,842,c),
(430,860,l),
(407,815,o),
(370,788,o),
(311,788,cs),
(252,788,o),
(214,815,o),
(192,860,c)
);
}
);
width = 595;
}
);
note = Ebreve;
unicode = 276;
},
{
glyphname = uni1EBE;
kernLeft = B;
kernRight = E;
layers = (
{
hints = (
{
horizontal = 1;
place = (601,56);
type = Stem;
},
{
horizontal = 1;
place = (599,58);
type = Stem;
},
{
horizontal = 1;
place = (485,172);
type = Stem;
},
{
horizontal = 1;
place = (310,59);
type = Stem;
},
{
horizontal = 1;
place = (0,172);
type = Stem;
},
{
horizontal = 1;
place = (0,58);
type = Stem;
},
{
horizontal = 1;
place = (0,56);
type = Stem;
},
{
place = (398,58);
type = Stem;
},
{
place = (386,70);
type = Stem;
},
{
place = (110,168);
type = Stem;
}
);
layerId = m01;
shapes = (
{
closed = 1;
nodes = (
(110,310,ls),
(110,226,o),
(110,143,o),
(108,62,c),
(33,54,l),
(33,0,l),
(563,0,l),
(570,172,l),
(487,172,l),
(467,56,l),
(280,56,l),
(278,137,o),
(278,218,o),
(278,310,c),
(386,310,l),
(398,232,l),
(456,232,l),
(456,447,l),
(398,447,l),
(386,369,l),
(278,369,l),
(278,447,o),
(278,525,o),
(280,601,c),
(447,601,l),
(467,485,l),
(550,485,l),
(543,657,l),
(33,657,l),
(33,603,l),
(108,595,l),
(110,513,o),
(110,429,o),
(110,347,cs)
);
},
{
closed = 1;
nodes = (
(160,687,l),
(314,772,l),
(468,687,l),
(498,723,l),
(348,874,l),
(280,874,l),
(130,723,l)
);
},
{
closed = 1;
nodes = (
(478,788,l),
(535,812,ls),
(579,830,o),
(601,856,o),
(601,883,cs),
(601,913,o),
(579,934,o),
(552,934,cs),
(530,934,o),
(502,922,o),
(475,871,c),
(447,826,l)
);
}
);
width = 595;
}
);
note = uni1EBE;
unicode = 7870;
},
{
glyphname = uni1EC6;
kernLeft = B;
kernRight = E;
layers = (
{
hints = (
{
horizontal = 1;
place = (601,56);
type = Stem;
},
{
horizontal = 1;
place = (599,58);
type = Stem;
},
{
horizontal = 1;
place = (485,172);
type = Stem;
},
{
horizontal = 1;
place = (310,59);
type = Stem;
},
{
horizontal = 1;
place = (0,172);
type = Stem;
},
{
horizontal = 1;
place = (0,58);
type = Stem;
},
{
horizontal = 1;
place = (0,56);
type = Stem;
},
{
horizontal = 1;
place = (-225,159);
type = Stem;
},
{
place = (398,58);
type = Stem;
},
{
place = (386,70);
type = Stem;
},
{
place = (233,170);
type = Stem;
},
{
place = (110,168);
type = Stem;
}
);
layerId = m01;
shapes = (
{
closed = 1;
nodes = (
(110,310,ls),
(110,226,o),
(110,143,o),
(108,62,c),
(33,54,l),
(33,0,l),
(563,0,l),
(570,172,l),
(487,172,l),
(467,56,l),
(280,56,l),
(278,137,o),
(278,218,o),
(278,310,c),
(386,310,l),
(398,232,l),
(456,232,l),
(456,447,l),
(398,447,l),
(386,369,l),
(278,369,l),
(278,447,o),
(278,525,o),
(280,601,c),
(447,601,l),
(467,485,l),
(550,485,l),
(543,657,l),
(33,657,l),
(33,603,l),
(108,595,l),
(110,513,o),
(110,429,o),
(110,347,cs)
);
},
{
closed = 1;
nodes = (
(357,874,l),
(289,874,l),
(139,723,l),
(169,687,l),
(323,772,l),
(477,687,l),
(507,723,l)
);
},
{
closed = 1;
nodes = (
(365,-225,o),
(403,-192,o),
(403,-146,cs),
(403,-99,o),
(365,-66,o),
(318,-66,cs),
(271,-66,o),
(233,-99,o),
(233,-146,cs),
(233,-192,o),
(271,-225,o),
(318,-225,cs)
);
}
);
width = 595;
}
);
note = uni1EC6;
unicode = 7878;
},
{
glyphname = uni1EC0;
kernLeft = B;
kernRight = E;
layers = (
{
hints = (
{
horizontal = 1;
place = (601,56);
type = Stem;
},
{
horizontal = 1;
place = (599,58);
type = Stem;
},
{
horizontal = 1;
place = (485,172);
type = Stem;
},
{
horizontal = 1;
place = (310,59);
type = Stem;
},
{
horizontal = 1;
place = (0,172);
type = Stem;
},
{
horizontal = 1;
place = (0,58);
type = Stem;
},
{
horizontal = 1;
place = (0,56);
type = Stem;
},
{
place = (398,58);
type = Stem;
},
{
place = (386,70);
type = Stem;
},
{
place = (110,168);
type = Stem;
}
);
layerId = m01;
shapes = (
{
closed = 1;
nodes = (
(110,310,ls),
(110,226,o),
(110,143,o),
(108,62,c),
(33,54,l),
(33,0,l),
(563,0,l),
(570,172,l),
(487,172,l),
(467,56,l),
(280,56,l),
(278,137,o),
(278,218,o),
(278,310,c),
(386,310,l),
(398,232,l),
(456,232,l),
(456,447,l),
(398,447,l),
(386,369,l),
(278,369,l),
(278,447,o),
(278,525,o),
(280,601,c),
(447,601,l),
(467,485,l),
(550,485,l),
(543,657,l),
(33,657,l),
(33,603,l),
(108,595,l),
(110,513,o),
(110,429,o),
(110,347,cs)
);
},
{
closed = 1;
nodes = (
(465,687,l),
(495,723,l),
(345,874,l),
(277,874,l),
(127,723,l),
(157,687,l),
(311,772,l)
);
},
{
closed = 1;
nodes = (
(144,788,l),
(175,826,l),
(148,871,ls),
(120,923,o),
(92,934,o),
(70,934,cs),
(44,934,o),
(21,913,o),
(21,883,cs),
(21,856,o),
(44,830,o),
(87,812,cs)
);
}
);
width = 595;
}
);
note = uni1EC0;
unicode = 7872;
},
{
glyphname = uni1EC2;
kernLeft = B;
kernRight = E;
layers = (
{
hints = (
{
horizontal = 1;
place = (601,56);
type = Stem;
},
{
horizontal = 1;
place = (599,58);
type = Stem;
},
{
horizontal = 1;
place = (485,172);
type = Stem;
},
{
horizontal = 1;
place = (310,59);
type = Stem;
},
{
horizontal = 1;
place = (0,172);
type = Stem;
},
{
horizontal = 1;
place = (0,58);
type = Stem;
},
{
horizontal = 1;
place = (0,56);
type = Stem;
},
{
place = (499,76);
type = Stem;
},
{
place = (398,58);
type = Stem;
},
{
place = (386,70);
type = Stem;
},
{
place = (110,168);
type = Stem;
}
);
layerId = m01;
shapes = (
{
closed = 1;
nodes = (
(110,310,ls),
(110,226,o),
(110,143,o),
(108,62,c),
(33,54,l),
(33,0,l),
(563,0,l),
(570,172,l),
(487,172,l),
(467,56,l),
(280,56,l),
(278,137,o),
(278,218,o),
(278,310,c),
(386,310,l),
(398,232,l),
(456,232,l),
(456,447,l),
(398,447,l),
(386,369,l),
(278,369,l),
(278,447,o),
(278,525,o),
(280,601,c),
(447,601,l),
(467,485,l),
(550,485,l),
(543,657,l),
(33,657,l),
(33,603,l),
(108,595,l),
(110,513,o),
(110,429,o),
(110,347,cs)
);
},
{
closed = 1;
nodes = (
(157,687,l),
(311,772,l),
(465,687,l),
(495,723,l),
(345,874,l),
(277,874,l),
(127,723,l)
);
},
{
closed = 1;
nodes = (
(455,790,l),
(531,799,o),
(575,832,o),
(575,885,cs),
(575,947,o),
(526,984,o),
(426,993,c),
(416,892,l),
(477,887,o),
(499,877,o),
(499,863,cs),
(499,852,o),
(490,841,o),
(446,833,c)
);
}
);
width = 595;
}
);
note = uni1EC2;
unicode = 7874;
},
{
glyphname = uni1EC4;
kernLeft = B;
kernRight = E;
layers = (
{
hints = (
{
horizontal = 1;
place = (903,86);
type = Stem;
},
{
horizontal = 1;
place = (867,87);
type = Stem;
},
{
horizontal = 1;
place = (601,56);
type = Stem;
},
{
horizontal = 1;
place = (599,58);
type = Stem;
},
{
horizontal = 1;
place = (485,172);
type = Stem;
},
{
horizontal = 1;
place = (310,59);
type = Stem;
},
{
horizontal = 1;
place = (0,172);
type = Stem;
},
{
horizontal = 1;
place = (0,58);
type = Stem;
},
{
horizontal = 1;
place = (0,56);
type = Stem;
},
{
place = (398,58);
type = Stem;
},
{
place = (386,70);
type = Stem;
},
{
place = (110,168);
type = Stem;
}
);
layerId = m01;
shapes = (
{
closed = 1;
nodes = (
(110,310,ls),
(110,226,o),
(110,143,o),
(108,62,c),
(33,54,l),
(33,0,l),
(563,0,l),
(570,172,l),
(487,172,l),
(467,56,l),
(280,56,l),
(278,137,o),
(278,218,o),
(278,310,c),
(386,310,l),
(398,232,l),
(456,232,l),
(456,447,l),
(398,447,l),
(386,369,l),
(278,369,l),
(278,447,o),
(278,525,o),
(280,601,c),
(447,601,l),
(467,485,l),
(550,485,l),
(543,657,l),
(33,657,l),
(33,603,l),
(108,595,l),
(110,513,o),
(110,429,o),
(110,347,cs)
);
},
{
closed = 1;
nodes = (
(156,684,l),
(311,754,l),
(466,684,l),
(495,720,l),
(345,845,l),
(277,845,l),
(127,720,l)
);
},
{
closed = 1;
nodes = (
(174,862,l),
(186,887,o),
(207,903,o),
(235,903,cs),
(261,903,o),
(281,894,o),
(301,887,cs),
(323,878,o),
(349,867,o),
(384,867,cs),
(434,867,o),
(478,909,o),
(488,981,c),
(448,995,l),
(436,969,o),
(414,954,o),
(386,954,cs),
(361,954,o),
(341,962,o),
(320,970,cs),
(299,978,o),
(276,989,o),
(242,989,cs),
(188,989,o),
(144,948,o),
(134,877,c)
);
}
);
width = 595;
}
);
note = uni1EC4;
unicode = 7876;
},
{
glyphname = uni1EB8;
kernLeft = B;
kernRight = E;
layers = (
{
hints = (
{
horizontal = 1;
place = (601,56);
type = Stem;
},
{
horizontal = 1;
place = (599,58);
type = Stem;
},
{
horizontal = 1;
place = (485,172);
type = Stem;
},
{
horizontal = 1;
place = (310,59);
type = Stem;
},
{
horizontal = 1;
place = (0,172);
type = Stem;
},
{
horizontal = 1;
place = (0,58);
type = Stem;
},
{
horizontal = 1;
place = (0,56);
type = Stem;
},
{
horizontal = 1;
place = (-225,159);
type = Stem;
},
{
place = (398,58);
type = Stem;
},
{
place = (386,70);
type = Stem;
},
{
place = (233,170);
type = Stem;
},
{
place = (110,168);
type = Stem;
}
);
layerId = m01;
shapes = (
{
closed = 1;
nodes = (
(110,310,ls),
(110,226,o),
(110,143,o),
(108,62,c),
(33,54,l),
(33,0,l),
(563,0,l),
(570,172,l),
(487,172,l),
(467,56,l),
(280,56,l),
(278,137,o),
(278,218,o),
(278,310,c),
(386,310,l),
(398,232,l),
(456,232,l),
(456,447,l),
(398,447,l),
(386,369,l),
(278,369,l),
(278,447,o),
(278,525,o),
(280,601,c),
(447,601,l),
(467,485,l),
(550,485,l),
(543,657,l),
(33,657,l),
(33,603,l),
(108,595,l),
(110,513,o),
(110,429,o),
(110,347,cs)
);
},
{
closed = 1;
nodes = (
(365,-225,o),
(403,-192,o),
(403,-146,cs),
(403,-99,o),
(365,-66,o),
(318,-66,cs),
(271,-66,o),
(233,-99,o),
(233,-146,cs),
(233,-192,o),
(271,-225,o),
(318,-225,cs)
);
}
);
width = 595;
}
);
note = uni1EB8;
unicode = 7864;
},
{
glyphname = uni1EBA;
kernLeft = B;
kernRight = E;
layers = (
{
hints = (
{
horizontal = 1;
place = (808,100);
type = Stem;
},
{
horizontal = 1;
place = (601,56);
type = Stem;
},
{
horizontal = 1;
place = (599,58);
type = Stem;
},
{
horizontal = 1;
place = (485,172);
type = Stem;
},
{
horizontal = 1;
place = (310,59);
type = Stem;
},
{
horizontal = 1;
place = (0,172);
type = Stem;
},
{
horizontal = 1;
place = (0,58);
type = Stem;
},
{
horizontal = 1;
place = (0,56);
type = Stem;
},
{
place = (398,58);
type = Stem;
},
{
place = (386,70);
type = Stem;
},
{
place = (323,77);
type = Stem;
},
{
place = (110,168);
type = Stem;
}
);
layerId = m01;
shapes = (
{
closed = 1;
nodes = (
(110,310,ls),
(110,226,o),
(110,143,o),
(108,62,c),
(33,54,l),
(33,0,l),
(563,0,l),
(570,172,l),
(487,172,l),
(467,56,l),
(280,56,l),
(278,137,o),
(278,218,o),
(278,310,c),
(386,310,l),
(398,232,l),
(456,232,l),
(456,447,l),
(398,447,l),
(386,369,l),
(278,369,l),
(278,447,o),
(278,525,o),
(280,601,c),
(447,601,l),
(467,485,l),
(550,485,l),
(543,657,l),
(33,657,l),
(33,603,l),
(108,595,l),
(110,513,o),
(110,429,o),
(110,347,cs)
);
},
{
closed = 1;
nodes = (
(279,708,l),
(356,717,o),
(400,748,o),
(400,800,cs),
(400,863,o),
(350,900,o),
(250,908,c),
(241,808,l),
(302,803,o),
(323,794,o),
(323,779,cs),
(323,768,o),
(315,759,o),
(270,750,c)
);
}
);
width = 595;
}
);
note = uni1EBA;
unicode = 7866;
},
{
glyphname = uni1EBC;
kernLeft = B;
kernRight = E;
layers = (
{
hints = (
{
horizontal = 1;
place = (762,97);
type = Stem;
},
{
horizontal = 1;
place = (703,97);
type = Stem;
},
{
horizontal = 1;
place = (601,56);
type = Stem;
},
{
horizontal = 1;
place = (599,58);
type = Stem;
},
{
horizontal = 1;
place = (485,172);
type = Stem;
},
{
horizontal = 1;
place = (310,59);
type = Stem;
},
{
horizontal = 1;
place = (0,172);
type = Stem;
},
{
horizontal = 1;
place = (0,58);
type = Stem;
},
{
horizontal = 1;
place = (0,56);
type = Stem;
},
{
place = (398,58);
type = Stem;
},
{
place = (386,70);
type = Stem;
},
{
place = (110,168);
type = Stem;
}
);
layerId = m01;
shapes = (
{
closed = 1;
nodes = (
(110,310,ls),
(110,226,o),
(110,143,o),
(108,62,c),
(33,54,l),
(33,0,l),
(563,0,l),
(570,172,l),
(487,172,l),
(467,56,l),
(280,56,l),
(278,137,o),
(278,218,o),
(278,310,c),
(386,310,l),
(398,232,l),
(456,232,l),
(456,447,l),
(398,447,l),
(386,369,l),
(278,369,l),
(278,447,o),
(278,525,o),
(280,601,c),
(447,601,l),
(467,485,l),
(550,485,l),
(543,657,l),
(33,657,l),
(33,603,l),
(108,595,l),
(110,513,o),
(110,429,o),
(110,347,cs)
);
},
{
closed = 1;
nodes = (
(172,703,l),
(185,739,o),
(205,762,o),
(235,762,cs),
(261,762,o),
(282,744,o),
(302,730,cs),
(323,716,o),
(351,703,o),
(381,703,cs),
(438,703,o),
(482,755,o),
(493,843,c),
(451,860,l),
(438,823,o),
(417,800,o),
(387,800,cs),
(362,800,o),
(340,818,o),
(320,832,cs),
(298,846,o),
(276,859,o),
(244,859,cs),
(185,859,o),
(141,808,o),
(130,720,c)
);
}
);
width = 595;
}
);
note = uni1EBC;
unicode = 7868;
},
{
glyphname = Gbreve;
kernLeft = C;
kernRight = G;
layers = (
{
hints = (
{
horizontal = 1;
place = (707,81);
type = Stem;
},
{
horizontal = 1;
place = (619,57);
type = Stem;
},
{
horizontal = 1;
place = (270,54);
type = Stem;
},
{
horizontal = 1;
place = (266.5,57.5);
type = Stem;
},
{
horizontal = 1;
place = (-19,57);
type = Stem;
},
{
place = (447,159);
type = Stem;
},
{
place = (447,140);
type = Stem;
},
{
place = (34,177);
type = Stem;
}
);
layerId = m01;
shapes = (
{
closed = 1;
nodes = (
(606,82,ls),
(606,144,o),
(607,203,o),
(608,263,c),
(660,270,l),
(660,324,l),
(355,324,l),
(355,270,l),
(445,258,l),
(446,200,o),
(447,144,o),
(447,85,cs),
(447,42,l),
(435,39,o),
(423,38,o),
(409,38,cs),
(299,38,o),
(211,131,o),
(211,330,cs),
(211,529,o),
(303,619,o),
(411,619,cs),
(435,619,o),
(459,614,o),
(483,604,c),
(512,474,l),
(589,474,l),
(585,630,l),
(527,661,o),
(457,676,o),
(392,676,cs),
(165,676,o),
(34,540,o),
(34,330,cs),
(34,112,o),
(174,-19,o),
(380,-19,cs),
(468,-19,o),
(536,0,o),
(606,40,c)
);
},
{
closed = 1;
nodes = (
(213,842,l),
(227,770,o),
(276,707,o),
(378,707,cs),
(480,707,o),
(529,770,o),
(543,842,c),
(497,860,l),
(474,815,o),
(437,788,o),
(378,788,cs),
(319,788,o),
(281,815,o),
(259,860,c)
);
}
);
width = 675;
}
);
note = Gbreve;
unicode = 286;
},
{
glyphname = Gdotaccent;
kernLeft = C;
kernRight = G;
layers = (
{
hints = (
{
horizontal = 1;
place = (709,159);
type = Stem;
},
{
horizontal = 1;
place = (619,57);
type = Stem;
},
{
horizontal = 1;
place = (270,54);
type = Stem;
},
{
horizontal = 1;
place = (266.5,57.5);
type = Stem;
},
{
horizontal = 1;
place = (-19,57);
type = Stem;
},
{
place = (447,159);
type = Stem;
},
{
place = (447,140);
type = Stem;
},
{
place = (294,170);
type = Stem;
},
{
place = (34,177);
type = Stem;
}
);
layerId = m01;
shapes = (
{
closed = 1;
nodes = (
(606,82,ls),
(606,144,o),
(607,203,o),
(608,263,c),
(660,270,l),
(660,324,l),
(355,324,l),
(355,270,l),
(445,258,l),
(446,200,o),
(447,144,o),
(447,85,cs),
(447,42,l),
(435,39,o),
(423,38,o),
(409,38,cs),
(299,38,o),
(211,131,o),
(211,330,cs),
(211,529,o),
(303,619,o),
(411,619,cs),
(435,619,o),
(459,614,o),
(483,604,c),
(512,474,l),
(589,474,l),
(585,630,l),
(527,661,o),
(457,676,o),
(392,676,cs),
(165,676,o),
(34,540,o),
(34,330,cs),
(34,112,o),
(174,-19,o),
(380,-19,cs),
(468,-19,o),
(536,0,o),
(606,40,c)
);
},
{
closed = 1;
nodes = (
(426,709,o),
(464,742,o),
(464,789,cs),
(464,835,o),
(426,868,o),
(379,868,cs),
(332,868,o),
(294,835,o),
(294,789,cs),
(294,742,o),
(332,709,o),
(379,709,cs)
);
}
);
width = 675;
}
);
note = Gdotaccent;
unicode = 288;
},
{
glyphname = uni0122;
kernLeft = C;
kernRight = G;
layers = (
{
hints = (
{
horizontal = 1;
place = (619,57);
type = Stem;
},
{
horizontal = 1;
place = (270,54);
type = Stem;
},
{
horizontal = 1;
place = (266.5,57.5);
type = Stem;
},
{
horizontal = 1;
place = (-19,57);
type = Stem;
},
{
place = (447,159);
type = Stem;
},
{
place = (447,140);
type = Stem;
},
{
place = (326,148);
type = Stem;
},
{
place = (34,177);
type = Stem;
}
);
layerId = m01;
shapes = (
{
closed = 1;
nodes = (
(606,82,ls),
(606,144,o),
(607,203,o),
(608,263,c),
(660,270,l),
(660,324,l),
(355,324,l),
(355,270,l),
(445,258,l),
(446,200,o),
(447,144,o),
(447,85,cs),
(447,42,l),
(435,39,o),
(423,38,o),
(409,38,cs),
(299,38,o),
(211,131,o),
(211,330,cs),
(211,529,o),
(303,619,o),
(411,619,cs),
(435,619,o),
(459,614,o),
(483,604,c),
(512,474,l),
(589,474,l),
(585,630,l),
(527,661,o),
(457,676,o),
(392,676,cs),
(165,676,o),
(34,540,o),
(34,330,cs),
(34,112,o),
(174,-19,o),
(380,-19,cs),
(468,-19,o),
(536,0,o),
(606,40,c)
);
},
{
closed = 1;
nodes = (
(474,-109,o),
(471,-95,o),
(464,-75,c),
(438,-57,o),
(421,-53,o),
(399,-53,cs),
(358,-53,o),
(326,-80,o),
(326,-117,cs),
(326,-149,o),
(348,-173,o),
(381,-190,c),
(362,-207,o),
(340,-217,o),
(309,-230,c),
(324,-269,l),
(407,-242,o),
(474,-194,o),
(474,-126,cs)
);
}
);
width = 675;
}
);
note = uni0122;
unicode = 290;
},
{
glyphname = Gcaron;
kernLeft = C;
kernRight = G;
layers = (
{
hints = (
{
horizontal = 1;
place = (619,57);
type = Stem;
},
{
horizontal = 1;
place = (270,54);
type = Stem;
},
{
horizontal = 1;
place = (266.5,57.5);
type = Stem;
},
{
horizontal = 1;
place = (-19,57);
type = Stem;
},
{
place = (447,159);
type = Stem;
},
{
place = (447,140);
type = Stem;
},
{
place = (34,177);
type = Stem;
}
);
layerId = m01;
shapes = (
{
closed = 1;
nodes = (
(606,82,ls),
(606,144,o),
(607,203,o),
(608,263,c),
(660,270,l),
(660,324,l),
(355,324,l),
(355,270,l),
(445,258,l),
(446,200,o),
(447,144,o),
(447,85,cs),
(447,42,l),
(435,39,o),
(423,38,o),
(409,38,cs),
(299,38,o),
(211,131,o),
(211,330,cs),
(211,529,o),
(303,619,o),
(411,619,cs),
(435,619,o),
(459,614,o),
(483,604,c),
(512,474,l),
(589,474,l),
(585,630,l),
(527,661,o),
(457,676,o),
(392,676,cs),
(165,676,o),
(34,540,o),
(34,330,cs),
(34,112,o),
(174,-19,o),
(380,-19,cs),
(468,-19,o),
(536,0,o),
(606,40,c)
);
},
{
closed = 1;
nodes = (
(248,885,l),
(215,853,l),
(343,705,l),
(429,705,l),
(558,853,l),
(524,885,l),
(386,795,l)
);
}
);
width = 675;
}
);
note = Gcaron;
unicode = 486;
},
{
glyphname = Gcircumflex;
kernLeft = C;
kernRight = G;
layers = (
{
hints = (
{
horizontal = 1;
place = (619,57);
type = Stem;
},
{
horizontal = 1;
place = (270,54);
type = Stem;
},
{
horizontal = 1;
place = (266.5,57.5);
type = Stem;
},
{
horizontal = 1;
place = (-19,57);
type = Stem;
},
{
place = (447,159);
type = Stem;
},
{
place = (447,140);
type = Stem;
},
{
place = (34,177);
type = Stem;
}
);
layerId = m01;
shapes = (
{
closed = 1;
nodes = (
(606,82,ls),
(606,144,o),
(607,203,o),
(608,263,c),
(660,270,l),
(660,324,l),
(355,324,l),
(355,270,l),
(445,258,l),
(446,200,o),
(447,144,o),
(447,85,cs),
(447,42,l),
(435,39,o),
(423,38,o),
(409,38,cs),
(299,38,o),
(211,131,o),
(211,330,cs),
(211,529,o),
(303,619,o),
(411,619,cs),
(435,619,o),
(459,614,o),
(483,604,c),
(512,474,l),
(589,474,l),
(585,630,l),
(527,661,o),
(457,676,o),
(392,676,cs),
(165,676,o),
(34,540,o),
(34,330,cs),
(34,112,o),
(174,-19,o),
(380,-19,cs),
(468,-19,o),
(536,0,o),
(606,40,c)
);
},
{
closed = 1;
nodes = (
(405,874,l),
(337,874,l),
(187,723,l),
(217,687,l),
(371,772,l),
(525,687,l),
(555,723,l)
);
}
);
width = 675;
}
);
note = Gcircumflex;
unicode = 284;
},
{
glyphname = uni1E20;
kernLeft = C;
kernRight = G;
layers = (
{
hints = (
{
horizontal = 1;
place = (729,89);
type = Stem;
},
{
horizontal = 1;
place = (619,57);
type = Stem;
},
{
horizontal = 1;
place = (270,54);
type = Stem;
},
{
horizontal = 1;
place = (266.5,57.5);
type = Stem;
},
{
horizontal = 1;
place = (-19,57);
type = Stem;
},
{
place = (447,159);
type = Stem;
},
{
place = (447,140);
type = Stem;
},
{
place = (203,322);
type = Stem;
},
{
place = (34,177);
type = Stem;
}
);
layerId = m01;
shapes = (
{
closed = 1;
nodes = (
(606,82,ls),
(606,144,o),
(607,203,o),
(608,263,c),
(660,270,l),
(660,324,l),
(355,324,l),
(355,270,l),
(445,258,l),
(446,200,o),
(447,144,o),
(447,85,cs),
(447,42,l),
(435,39,o),
(423,38,o),
(409,38,cs),
(299,38,o),
(211,131,o),
(211,330,cs),
(211,529,o),
(303,619,o),
(411,619,cs),
(435,619,o),
(459,614,o),
(483,604,c),
(512,474,l),
(589,474,l),
(585,630,l),
(527,661,o),
(457,676,o),
(392,676,cs),
(165,676,o),
(34,540,o),
(34,330,cs),
(34,112,o),
(174,-19,o),
(380,-19,cs),
(468,-19,o),
(536,0,o),
(606,40,c)
);
},
{
closed = 1;
nodes = (
(203,729,l),
(525,729,l),
(525,818,l),
(203,818,l)
);
}
);
width = 675;
}
);
note = uni1E20;
unicode = 7712;
},
{
glyphname = uni00470303;
kernLeft = C;
kernRight = G;
layers = (
{
hints = (
{
horizontal = 1;
place = (762,97);
type = Stem;
},
{
horizontal = 1;
place = (703,97);
type = Stem;
},
{
horizontal = 1;
place = (619,57);
type = Stem;
},
{
horizontal = 1;
place = (270,54);
type = Stem;
},
{
horizontal = 1;
place = (266.5,57.5);
type = Stem;
},
{
horizontal = 1;
place = (-19,57);
type = Stem;
},
{
place = (447,159);
type = Stem;
},
{
place = (447,140);
type = Stem;
},
{
place = (34,177);
type = Stem;
}
);
layerId = m01;
shapes = (
{
closed = 1;
nodes = (
(606,82,ls),
(606,144,o),
(607,203,o),
(608,263,c),
(660,270,l),
(660,324,l),
(355,324,l),
(355,270,l),
(445,258,l),
(446,200,o),
(447,144,o),
(447,85,cs),
(447,42,l),
(435,39,o),
(423,38,o),
(409,38,cs),
(299,38,o),
(211,131,o),
(211,330,cs),
(211,529,o),
(303,619,o),
(411,619,cs),
(435,619,o),
(459,614,o),
(483,604,c),
(512,474,l),
(589,474,l),
(585,630,l),
(527,661,o),
(457,676,o),
(392,676,cs),
(165,676,o),
(34,540,o),
(34,330,cs),
(34,112,o),
(174,-19,o),
(380,-19,cs),
(468,-19,o),
(536,0,o),
(606,40,c)
);
},
{
closed = 1;
nodes = (
(232,703,l),
(245,739,o),
(265,762,o),
(295,762,cs),
(321,762,o),
(342,744,o),
(362,730,cs),
(383,716,o),
(411,703,o),
(441,703,cs),
(498,703,o),
(542,755,o),
(553,843,c),
(511,860,l),
(498,823,o),
(477,800,o),
(447,800,cs),
(422,800,o),
(400,818,o),
(380,832,cs),
(358,846,o),
(336,859,o),
(304,859,cs),
(245,859,o),
(201,808,o),
(190,720,c)
);
}
);
width = 675;
}
);
note = uni00470303;
},
{
glyphname = Hbar;
kernLeft = B;
kernRight = H;
layers = (
{
hints = (
{
horizontal = 1;
place = (599.5,57.5);
type = Stem;
},
{
horizontal = 1;
place = (599,58);
type = Stem;
},
{
horizontal = 1;
place = (442,58);
type = Stem;
},
{
horizontal = 1;
place = (281,59);
type = Stem;
},
{
horizontal = 1;
place = (0,58);
type = Stem;
},
{
horizontal = 1;
place = (0,57.5);
type = Stem;
},
{
place = (486,168);
type = Stem;
},
{
place = (485,169);
type = Stem;
},
{
place = (108,168);
type = Stem;
}
);
layerId = m01;
shapes = (
{
closed = 1;
nodes = (
(108,310,ls),
(108,226,o),
(108,143,o),
(106,62,c),
(33,54,l),
(33,0,l),
(348,0,l),
(348,54,l),
(278,61,l),
(276,133,o),
(276,206,o),
(276,281,c),
(486,281,l),
(486,205,o),
(486,132,o),
(484,61,c),
(414,54,l),
(414,0,l),
(730,0,l),
(730,54,l),
(656,62,l),
(654,144,o),
(654,228,o),
(654,310,cs),
(654,347,ls),
(654,379,o),
(654,411,o),
(654,442,c),
(741,442,l),
(741,500,l),
(654,500,l),
(655,532,o),
(655,564,o),
(656,595,c),
(730,603,l),
(730,657,l),
(414,657,l),
(414,603,l),
(484,596,l),
(485,564,o),
(485,532,o),
(486,500,c),
(276,500,l),
(277,532,o),
(277,564,o),
(278,596,c),
(348,603,l),
(348,657,l),
(33,657,l),
(33,603,l),
(106,595,l),
(107,563,o),
(107,532,o),
(108,500,c),
(21,500,l),
(21,442,l),
(108,442,l),
(108,410,o),
(108,379,o),
(108,347,cs)
);
},
{
closed = 1;
nodes = (
(276,354,ls),
(276,383,o),
(276,412,o),
(276,442,c),
(486,442,l),
(486,412,o),
(486,383,o),
(486,354,cs),
(486,340,l),
(276,340,l)
);
}
);
width = 763;
}
);
note = Hbar;
unicode = 294;
},
{
glyphname = uni1E2A;
kernLeft = B;
kernRight = H;
layers = (
{
hints = (
{
horizontal = 1;
place = (599.5,57.5);
type = Stem;
},
{
horizontal = 1;
place = (599,58);
type = Stem;
},
{
horizontal = 1;
place = (308,59);
type = Stem;
},
{
horizontal = 1;
place = (0,58);
type = Stem;
},
{
horizontal = 1;
place = (0,57.5);
type = Stem;
},
{
horizontal = 1;
place = (-239,83);
type = Stem;
},
{
place = (489,168);
type = Stem;
},
{
place = (220,128);
type = Stem;
},
{
place = (108,168);
type = Stem;
}
);
layerId = m01;
shapes = (
{
closed = 1;
nodes = (
(108,310,ls),
(108,226,o),
(108,143,o),
(106,62,c),
(33,54,l),
(33,0,l),
(348,0,l),
(348,54,l),
(278,61,l),
(276,140,o),
(276,219,o),
(276,308,c),
(489,308,l),
(489,227,o),
(489,143,o),
(487,61,c),
(417,54,l),
(417,0,l),
(733,0,l),
(733,54,l),
(659,62,l),
(657,144,o),
(657,228,o),
(657,310,cs),
(657,347,ls),
(657,431,o),
(657,514,o),
(659,595,c),
(733,603,l),
(733,657,l),
(417,657,l),
(417,603,l),
(487,596,l),
(489,520,o),
(489,443,o),
(489,367,c),
(276,367,l),
(276,431,o),
(276,514,o),
(278,596,c),
(348,603,l),
(348,657,l),
(33,657,l),
(33,603,l),
(106,595,l),
(108,512,o),
(108,429,o),
(108,347,cs)
);
},
{
closed = 1;
nodes = (
(220,-83,l),
(226,-151,o),
(267,-239,o),
(382,-239,cs),
(497,-239,o),
(538,-151,o),
(544,-83,c),
(495,-68,l),
(476,-116,o),
(440,-156,o),
(382,-156,cs),
(324,-156,o),
(290,-117,o),
(269,-68,c)
);
}
);
width = 765;
}
);
note = uni1E2A;
unicode = 7722;
},
{
glyphname = Hcircumflex;
kernLeft = B;
kernRight = H;
layers = (
{
hints = (
{
horizontal = 1;
place = (599.5,57.5);
type = Stem;
},
{
horizontal = 1;
place = (599,58);
type = Stem;
},
{
horizontal = 1;
place = (308,59);
type = Stem;
},
{
horizontal = 1;
place = (0,58);
type = Stem;
},
{
horizontal = 1;
place = (0,57.5);
type = Stem;
},
{
place = (489,168);
type = Stem;
},
{
place = (108,168);
type = Stem;
}
);
layerId = m01;
shapes = (
{
closed = 1;
nodes = (
(108,310,ls),
(108,226,o),
(108,143,o),
(106,62,c),
(33,54,l),
(33,0,l),
(348,0,l),
(348,54,l),
(278,61,l),
(276,140,o),
(276,219,o),
(276,308,c),
(489,308,l),
(489,227,o),
(489,143,o),
(487,61,c),
(417,54,l),
(417,0,l),
(733,0,l),
(733,54,l),
(659,62,l),
(657,144,o),
(657,228,o),
(657,310,cs),
(657,347,ls),
(657,431,o),
(657,514,o),
(659,595,c),
(733,603,l),
(733,657,l),
(417,657,l),
(417,603,l),
(487,596,l),
(489,520,o),
(489,443,o),
(489,367,c),
(276,367,l),
(276,431,o),
(276,514,o),
(278,596,c),
(348,603,l),
(348,657,l),
(33,657,l),
(33,603,l),
(106,595,l),
(108,512,o),
(108,429,o),
(108,347,cs)
);
},
{
closed = 1;
nodes = (
(417,874,l),
(349,874,l),
(199,723,l),
(229,687,l),
(383,772,l),
(537,687,l),
(567,723,l)
);
}
);
width = 765;
}
);
note = Hcircumflex;
unicode = 292;
},
{
glyphname = uni1E24;
kernLeft = B;
kernRight = H;
layers = (
{
hints = (
{
horizontal = 1;
place = (599.5,57.5);
type = Stem;
},
{
horizontal = 1;
place = (599,58);
type = Stem;
},
{
horizontal = 1;
place = (308,59);
type = Stem;
},
{
horizontal = 1;
place = (0,58);
type = Stem;
},
{
horizontal = 1;
place = (0,57.5);
type = Stem;
},
{
horizontal = 1;
place = (-225,159);
type = Stem;
},
{
place = (489,168);
type = Stem;
},
{
place = (297,170);
type = Stem;
},
{
place = (108,168);
type = Stem;
}
);
layerId = m01;
shapes = (
{
closed = 1;
nodes = (
(108,310,ls),
(108,226,o),
(108,143,o),
(106,62,c),
(33,54,l),
(33,0,l),
(348,0,l),
(348,54,l),
(278,61,l),
(276,140,o),
(276,219,o),
(276,308,c),
(489,308,l),
(489,227,o),
(489,143,o),
(487,61,c),
(417,54,l),
(417,0,l),
(733,0,l),
(733,54,l),
(659,62,l),
(657,144,o),
(657,228,o),
(657,310,cs),
(657,347,ls),
(657,431,o),
(657,514,o),
(659,595,c),
(733,603,l),
(733,657,l),
(417,657,l),
(417,603,l),
(487,596,l),
(489,520,o),
(489,443,o),
(489,367,c),
(276,367,l),
(276,431,o),
(276,514,o),
(278,596,c),
(348,603,l),
(348,657,l),
(33,657,l),
(33,603,l),
(106,595,l),
(108,512,o),
(108,429,o),
(108,347,cs)
);
},
{
closed = 1;
nodes = (
(429,-225,o),
(467,-192,o),
(467,-146,cs),
(467,-99,o),
(429,-66,o),
(382,-66,cs),
(335,-66,o),
(297,-99,o),
(297,-146,cs),
(297,-192,o),
(335,-225,o),
(382,-225,cs)
);
}
);
width = 765;
}
);
note = uni1E24;
unicode = 7716;
},
{
glyphname = Igrave;
kernLeft = B;
kernRight = H;
layers = (
{
hints = (
{
horizontal = 1;
place = (599,58);
type = Stem;
},
{
horizontal = 1;
place = (0,58);
type = Stem;
},
{
place = (110,168);
type = Stem;
}
);
layerId = m01;
shapes = (
{
closed = 1;
nodes = (
(110,310,ls),
(110,226,o),
(110,143,o),
(108,62,c),
(33,54,l),
(33,0,l),
(355,0,l),
(355,54,l),
(280,62,l),
(278,144,o),
(278,228,o),
(278,311,cs),
(278,347,ls),
(278,431,o),
(278,514,o),
(280,595,c),
(355,603,l),
(355,657,l),
(33,657,l),
(33,603,l),
(108,595,l),
(110,513,o),
(110,429,o),
(110,347,cs)
);
},
{
closed = 1;
nodes = (
(269,734,l),
(232,771,o),
(193,807,o),
(158,840,cs),
(126,871,o),
(107,880,o),
(84,880,cs),
(52,880,o),
(29,855,o),
(29,829,cs),
(29,810,o),
(39,784,o),
(87,762,cs),
(139,739,o),
(191,717,o),
(241,695,c)
);
}
);
width = 388;
}
);
note = Igrave;
unicode = 204;
},
{
glyphname = Iacute;
kernLeft = B;
kernRight = H;
layers = (
{
hints = (
{
horizontal = 1;
place = (599,58);
type = Stem;
},
{
horizontal = 1;
place = (0,58);
type = Stem;
},
{
place = (110,168);
type = Stem;
}
);
layerId = m01;
shapes = (
{
closed = 1;
nodes = (
(110,310,ls),
(110,226,o),
(110,143,o),
(108,62,c),
(33,54,l),
(33,0,l),
(355,0,l),
(355,54,l),
(280,62,l),
(278,144,o),
(278,228,o),
(278,311,cs),
(278,347,ls),
(278,431,o),
(278,514,o),
(280,595,c),
(355,603,l),
(355,657,l),
(33,657,l),
(33,603,l),
(108,595,l),
(110,513,o),
(110,429,o),
(110,347,cs)
);
},
{
closed = 1;
nodes = (
(152,695,l),
(203,718,o),
(255,740,o),
(307,764,cs),
(354,785,o),
(364,810,o),
(364,829,cs),
(364,855,o),
(341,880,o),
(309,880,cs),
(286,880,o),
(267,871,o),
(235,840,cs),
(199,806,o),
(161,770,o),
(124,734,c)
);
}
);
width = 388;
}
);
note = Iacute;
unicode = 205;
},
{
glyphname = Icircumflex;
kernLeft = B;
kernRight = H;
layers = (
{
hints = (
{
horizontal = 1;
place = (599,58);
type = Stem;
},
{
horizontal = 1;
place = (0,58);
type = Stem;
},
{
place = (110,168);
type = Stem;
}
);
layerId = m01;
shapes = (
{
closed = 1;
nodes = (
(110,310,ls),
(110,226,o),
(110,143,o),
(108,62,c),
(33,54,l),
(33,0,l),
(355,0,l),
(355,54,l),
(280,62,l),
(278,144,o),
(278,228,o),
(278,311,cs),
(278,347,ls),
(278,431,o),
(278,514,o),
(280,595,c),
(355,603,l),
(355,657,l),
(33,657,l),
(33,603,l),
(108,595,l),
(110,513,o),
(110,429,o),
(110,347,cs)
);
},
{
closed = 1;
nodes = (
(228,874,l),
(160,874,l),
(10,723,l),
(40,687,l),
(194,772,l),
(348,687,l),
(378,723,l)
);
}
);
width = 388;
}
);
note = Icircumflex;
unicode = 206;
},
{
glyphname = Idieresis;
kernLeft = B;
kernRight = H;
layers = (
{
hints = (
{
horizontal = 1;
place = (713,138);
type = Stem;
},
{
horizontal = 1;
place = (599,58);
type = Stem;
},
{
horizontal = 1;
place = (0,58);
type = Stem;
},
{
place = (245,147);
type = Stem;
},
{
place = (110,168);
type = Stem;
},
{
place = (-4,147);
type = Stem;
}
);
layerId = m01;
shapes = (
{
closed = 1;
nodes = (
(110,310,ls),
(110,226,o),
(110,143,o),
(108,62,c),
(33,54,l),
(33,0,l),
(355,0,l),
(355,54,l),
(280,62,l),
(278,144,o),
(278,228,o),
(278,311,cs),
(278,347,ls),
(278,431,o),
(278,514,o),
(280,595,c),
(355,603,l),
(355,657,l),
(33,657,l),
(33,603,l),
(108,595,l),
(110,513,o),
(110,429,o),
(110,347,cs)
);
},
{
closed = 1;
nodes = (
(109,713,o),
(143,739,o),
(143,782,cs),
(143,825,o),
(109,851,o),
(69,851,cs),
(31,851,o),
(-4,825,o),
(-4,782,cs),
(-4,739,o),
(31,713,o),
(69,713,cs)
);
},
{
closed = 1;
nodes = (
(358,713,o),
(392,739,o),
(392,782,cs),
(392,825,o),
(358,851,o),
(318,851,cs),
(280,851,o),
(245,825,o),
(245,782,cs),
(245,739,o),
(280,713,o),
(318,713,cs)
);
}
);
width = 388;
}
);
note = Idieresis;
unicode = 207;
},
{
glyphname = Imacron;
kernLeft = B;
kernRight = H;
layers = (
{
hints = (
{
horizontal = 1;
place = (729,89);
type = Stem;
},
{
horizontal = 1;
place = (599,58);
type = Stem;
},
{
horizontal = 1;
place = (0,58);
type = Stem;
},
{
place = (110,168);
type = Stem;
},
{
place = (33,322);
type = Stem;
}
);
layerId = m01;
shapes = (
{
closed = 1;
nodes = (
(110,310,ls),
(110,226,o),
(110,143,o),
(108,62,c),
(33,54,l),
(33,0,l),
(355,0,l),
(355,54,l),
(280,62,l),
(278,144,o),
(278,228,o),
(278,311,cs),
(278,347,ls),
(278,431,o),
(278,514,o),
(280,595,c),
(355,603,l),
(355,657,l),
(33,657,l),
(33,603,l),
(108,595,l),
(110,513,o),
(110,429,o),
(110,347,cs)
);
},
{
closed = 1;
nodes = (
(33,729,l),
(355,729,l),
(355,818,l),
(33,818,l)
);
}
);
width = 388;
}
);
note = Imacron;
unicode = 298;
},
{
glyphname = Idotaccent;
kernLeft = B;
kernRight = H;
layers = (
{
hints = (
{
horizontal = 1;
place = (709,159);
type = Stem;
},
{
horizontal = 1;
place = (599,58);
type = Stem;
},
{
horizontal = 1;
place = (0,58);
type = Stem;
},
{
place = (110,168);
type = Stem;
},
{
place = (109,170);
type = Stem;
}
);
layerId = m01;
shapes = (
{
closed = 1;
nodes = (
(110,310,ls),
(110,226,o),
(110,143,o),
(108,62,c),
(33,54,l),
(33,0,l),
(355,0,l),
(355,54,l),
(280,62,l),
(278,144,o),
(278,228,o),
(278,311,cs),
(278,347,ls),
(278,431,o),
(278,514,o),
(280,595,c),
(355,603,l),
(355,657,l),
(33,657,l),
(33,603,l),
(108,595,l),
(110,513,o),
(110,429,o),
(110,347,cs)
);
},
{
closed = 1;
nodes = (
(241,709,o),
(279,742,o),
(279,789,cs),
(279,835,o),
(241,868,o),
(194,868,cs),
(147,868,o),
(109,835,o),
(109,789,cs),
(109,742,o),
(147,709,o),
(194,709,cs)
);
}
);
width = 388;
}
);
note = Idotaccent;
unicode = 304;
},
{
glyphname = Iogonek;
kernLeft = B;
kernRight = H;
layers = (
{
anchors = (
{
name = top;
pos = (194,685);
}
);
hints = (
{
horizontal = 1;
place = (599,58);
type = Stem;
},
{
horizontal = 1;
place = (0,58);
type = Stem;
},
{
horizontal = 1;
place = (-225,82);
type = Stem;
},
{
place = (129,103);
type = Stem;
},
{
place = (110,168);
type = Stem;
}
);
layerId = m01;
shapes = (
{
closed = 1;
nodes = (
(129,-183,o),
(169,-225,o),
(240,-225,cs),
(290,-225,o),
(341,-208,o),
(372,-176,c),
(357,-133,l),
(341,-139,o),
(325,-143,o),
(303,-143,cs),
(260,-143,o),
(232,-118,o),
(232,-77,cs),
(232,-47,o),
(244,-21,o),
(274,0,c),
(355,0,l),
(355,54,l),
(280,62,l),
(278,144,o),
(278,228,o),
(278,311,cs),
(278,347,ls),
(278,431,o),
(278,514,o),
(280,595,c),
(355,603,l),
(355,657,l),
(33,657,l),
(33,603,l),
(108,595,l),
(110,513,o),
(110,429,o),
(110,347,cs),
(110,310,ls),
(110,226,o),
(110,143,o),
(108,62,c),
(33,54,l),
(33,0,l),
(227,0,l),
(166,-29,o),
(129,-71,o),
(129,-128,cs)
);
}
);
width = 388;
}
);
note = Iogonek;
unicode = 302;
},
{
glyphname = uni01CF;
kernLeft = B;
kernRight = H;
layers = (
{
hints = (
{
horizontal = 1;
place = (599,58);
type = Stem;
},
{
horizontal = 1;
place = (0,58);
type = Stem;
},
{
place = (110,168);
type = Stem;
}
);
layerId = m01;
shapes = (
{
closed = 1;
nodes = (
(110,310,ls),
(110,226,o),
(110,143,o),
(108,62,c),
(33,54,l),
(33,0,l),
(355,0,l),
(355,54,l),
(280,62,l),
(278,144,o),
(278,228,o),
(278,311,cs),
(278,347,ls),
(278,431,o),
(278,514,o),
(280,595,c),
(355,603,l),
(355,657,l),
(33,657,l),
(33,603,l),
(108,595,l),
(110,513,o),
(110,429,o),
(110,347,cs)
);
},
{
closed = 1;
nodes = (
(56,885,l),
(23,853,l),
(151,705,l),
(237,705,l),
(366,853,l),
(332,885,l),
(194,795,l)
);
}
);
width = 388;
}
);
note = uni01CF;
unicode = 463;
},
{
glyphname = uni1ECA;
kernLeft = B;
kernRight = H;
layers = (
{
hints = (
{
horizontal = 1;
place = (599,58);
type = Stem;
},
{
horizontal = 1;
place = (0,58);
type = Stem;
},
{
horizontal = 1;
place = (-225,159);
type = Stem;
},
{
place = (110,168);
type = Stem;
},
{
place = (109,170);
type = Stem;
}
);
layerId = m01;
shapes = (
{
closed = 1;
nodes = (
(110,310,ls),
(110,226,o),
(110,143,o),
(108,62,c),
(33,54,l),
(33,0,l),
(355,0,l),
(355,54,l),
(280,62,l),
(278,144,o),
(278,228,o),
(278,311,cs),
(278,347,ls),
(278,431,o),
(278,514,o),
(280,595,c),
(355,603,l),
(355,657,l),
(33,657,l),
(33,603,l),
(108,595,l),
(110,513,o),
(110,429,o),
(110,347,cs)
);
},
{
closed = 1;
nodes = (
(241,-225,o),
(279,-192,o),
(279,-146,cs),
(279,-99,o),
(241,-66,o),
(194,-66,cs),
(147,-66,o),
(109,-99,o),
(109,-146,cs),
(109,-192,o),
(147,-225,o),
(194,-225,cs)
);
}
);
width = 388;
}
);
note = uni1ECA;
unicode = 7882;
},
{
glyphname = uni1EC8;
kernLeft = B;
kernRight = H;
layers = (
{
hints = (
{
horizontal = 1;
place = (808,100);
type = Stem;
},
{
horizontal = 1;
place = (599,58);
type = Stem;
},
{
horizontal = 1;
place = (0,58);
type = Stem;
},
{
place = (206,77);
type = Stem;
},
{
place = (110,168);
type = Stem;
}
);
layerId = m01;
shapes = (
{
closed = 1;
nodes = (
(110,310,ls),
(110,226,o),
(110,143,o),
(108,62,c),
(33,54,l),
(33,0,l),
(355,0,l),
(355,54,l),
(280,62,l),
(278,144,o),
(278,228,o),
(278,311,cs),
(278,347,ls),
(278,431,o),
(278,514,o),
(280,595,c),
(355,603,l),
(355,657,l),
(33,657,l),
(33,603,l),
(108,595,l),
(110,513,o),
(110,429,o),
(110,347,cs)
);
},
{
closed = 1;
nodes = (
(162,708,l),
(239,717,o),
(283,748,o),
(283,800,cs),
(283,863,o),
(233,900,o),
(133,908,c),
(124,808,l),
(185,803,o),
(206,794,o),
(206,779,cs),
(206,768,o),
(198,759,o),
(153,750,c)
);
}
);
width = 388;
}
);
note = uni1EC8;
unicode = 7880;
},
{
glyphname = Itilde;
kernLeft = B;
kernRight = H;
layers = (
{
hints = (
{
horizontal = 1;
place = (762,97);
type = Stem;
},
{
horizontal = 1;
place = (703,97);
type = Stem;
},
{
horizontal = 1;
place = (599,58);
type = Stem;
},
{
horizontal = 1;
place = (0,58);
type = Stem;
},
{
place = (110,168);
type = Stem;
}
);
layerId = m01;
shapes = (
{
closed = 1;
nodes = (
(110,310,ls),
(110,226,o),
(110,143,o),
(108,62,c),
(33,54,l),
(33,0,l),
(355,0,l),
(355,54,l),
(280,62,l),
(278,144,o),
(278,228,o),
(278,311,cs),
(278,347,ls),
(278,431,o),
(278,514,o),
(280,595,c),
(355,603,l),
(355,657,l),
(33,657,l),
(33,603,l),
(108,595,l),
(110,513,o),
(110,429,o),
(110,347,cs)
);
},
{
closed = 1;
nodes = (
(55,703,l),
(68,739,o),
(88,762,o),
(118,762,cs),
(144,762,o),
(165,744,o),
(185,730,cs),
(206,716,o),
(234,703,o),
(264,703,cs),
(321,703,o),
(365,755,o),
(376,843,c),
(334,860,l),
(321,823,o),
(300,800,o),
(270,800,cs),
(245,800,o),
(223,818,o),
(203,832,cs),
(181,846,o),
(159,859,o),
(127,859,cs),
(68,859,o),
(24,808,o),
(13,720,c)
);
}
);
width = 388;
}
);
note = Itilde;
unicode = 296;
},
{
glyphname = Jcircumflex;
kernLeft = J;
kernRight = J;
layers = (
{
hints = (
{
horizontal = 1;
place = (599,58);
type = Stem;
},
{
horizontal = 1;
place = (598.5,58.5);
type = Stem;
},
{
horizontal = 1;
place = (-173,137);
type = Stem;
},
{
place = (128,162);
type = Stem;
}
);
layerId = m01;
shapes = (
{
closed = 1;
nodes = (
(35,603,l),
(120,594,l),
(124,294,o),
(128,130,o),
(128,37,cs),
(128,-37,o),
(122,-86,o),
(106,-116,c),
(85,-91,ls),
(54,-54,o),
(28,-36,o),
(-6,-36,cs),
(-50,-36,o),
(-84,-64,o),
(-85,-110,c),
(-62,-153,o),
(-20,-173,o),
(35,-173,cs),
(126,-173,o),
(206,-125,o),
(245,-38,cs),
(277,26,o),
(290,115,o),
(290,252,cs),
(290,356,ls),
(290,437,o),
(290,517,o),
(291,595,c),
(368,603,l),
(368,657,l),
(35,657,l)
);
},
{
closed = 1;
nodes = (
(235,874,l),
(167,874,l),
(17,723,l),
(47,687,l),
(201,772,l),
(355,687,l),
(385,723,l)
);
}
);
width = 395;
}
);
note = Jcircumflex;
unicode = 308;
},
{
glyphname = uni0136;
kernLeft = B;
kernRight = K;
layers = (
{
hints = (
{
horizontal = 1;
place = (603,54);
type = Stem;
},
{
horizontal = 1;
place = (599,58);
type = Stem;
},
{
horizontal = 1;
place = (0,58);
type = Stem;
},
{
horizontal = 1;
place = (0,57.5);
type = Stem;
},
{
horizontal = 1;
place = (0,56.5);
type = Stem;
},
{
place = (428,232);
type = Stem;
},
{
place = (294,148);
type = Stem;
},
{
place = (110,160);
type = Stem;
}
);
layerId = m01;
shapes = (
{
closed = 1;
nodes = (
(110,310,ls),
(110,226,o),
(110,143,o),
(108,62,c),
(33,54,l),
(33,0,l),
(337,0,l),
(337,54,l),
(272,62,l),
(270,122,o),
(270,182,o),
(270,240,c),
(327,308,l),
(450,59,l),
(402,54,l),
(402,0,l),
(691,0,l),
(691,54,l),
(630,61,l),
(433,433,l),
(565,591,l),
(660,603,l),
(660,657,l),
(428,657,l),
(428,603,l),
(494,591,l),
(270,314,l),
(270,347,ls),
(270,431,o),
(270,514,o),
(272,595,c),
(348,603,l),
(348,657,l),
(33,657,l),
(33,603,l),
(108,595,l),
(110,513,o),
(110,429,o),
(110,347,cs)
);
},
{
closed = 1;
nodes = (
(442,-109,o),
(439,-95,o),
(432,-75,c),
(406,-57,o),
(389,-53,o),
(367,-53,cs),
(326,-53,o),
(294,-80,o),
(294,-117,cs),
(294,-149,o),
(316,-173,o),
(349,-190,c),
(330,-207,o),
(308,-217,o),
(277,-230,c),
(292,-269,l),
(375,-242,o),
(442,-194,o),
(442,-126,cs)
);
}
);
width = 696;
}
);
note = uni0136;
unicode = 310;
},
{
glyphname = Lacute;
kernLeft = B;
kernRight = L;
layers = (
{
hints = (
{
horizontal = 1;
place = (599,58);
type = Stem;
},
{
horizontal = 1;
place = (0,196);
type = Stem;
},
{
horizontal = 1;
place = (0,58);
type = Stem;
},
{
horizontal = 1;
place = (0,57);
type = Stem;
},
{
place = (110,168);
type = Stem;
}
);
layerId = m01;
shapes = (
{
closed = 1;
nodes = (
(110,289,ls),
(110,223,o),
(110,143,o),
(108,62,c),
(33,54,l),
(33,0,l),
(551,0,l),
(561,196,l),
(480,196,l),
(453,57,l),
(280,57,l),
(278,140,o),
(278,222,o),
(278,294,cs),
(278,347,ls),
(278,430,o),
(278,513,o),
(280,595,c),
(363,603,l),
(363,657,l),
(33,657,l),
(33,603,l),
(108,595,l),
(110,513,o),
(110,430,o),
(110,347,cs)
);
},
{
closed = 1;
nodes = (
(215,695,l),
(266,718,o),
(318,740,o),
(370,764,cs),
(417,785,o),
(427,810,o),
(427,829,cs),
(427,855,o),
(404,880,o),
(372,880,cs),
(349,880,o),
(330,871,o),
(298,840,cs),
(262,806,o),
(224,770,o),
(187,734,c)
);
}
);
width = 580;
}
);
note = Lacute;
unicode = 313;
},
{
glyphname = Lcaron;
kernLeft = B;
kernRight = L;
layers = (
{
hints = (
{
horizontal = 1;
place = (599,58);
type = Stem;
},
{
horizontal = 1;
place = (0,196);
type = Stem;
},
{
horizontal = 1;
place = (0,58);
type = Stem;
},
{
horizontal = 1;
place = (0,57);
type = Stem;
},
{
place = (445.5,106.5);
type = Stem;
},
{
place = (110,168);
type = Stem;
}
);
layerId = m01;
shapes = (
{
closed = 1;
nodes = (
(485,719,o),
(468,714,o),
(448,703,c),
(443,501,l),
(492,501,l),
(521,563,ls),
(539,603,o),
(552,643,o),
(552,672,cs),
(552,700,o),
(542,719,o),
(504,719,cs)
);
},
{
closed = 1;
nodes = (
(110,289,ls),
(110,223,o),
(110,143,o),
(108,62,c),
(33,54,l),
(33,0,l),
(551,0,l),
(561,196,l),
(480,196,l),
(453,57,l),
(280,57,l),
(278,140,o),
(278,222,o),
(278,294,cs),
(278,347,ls),
(278,430,o),
(278,513,o),
(280,595,c),
(363,603,l),
(363,657,l),
(33,657,l),
(33,603,l),
(108,595,l),
(110,513,o),
(110,430,o),
(110,347,cs)
);
}
);
width = 580;
}
);
note = Lcaron;
unicode = 317;
},
{
glyphname = uni013B;
kernLeft = B;
kernRight = L;
layers = (
{
hints = (
{
horizontal = 1;
place = (599,58);
type = Stem;
},
{
horizontal = 1;
place = (0,196);
type = Stem;
},
{
horizontal = 1;
place = (0,58);
type = Stem;
},
{
horizontal = 1;
place = (0,57);
type = Stem;
},
{
place = (230,148);
type = Stem;
},
{
place = (110,168);
type = Stem;
}
);
layerId = m01;
shapes = (
{
closed = 1;
nodes = (
(110,289,ls),
(110,223,o),
(110,143,o),
(108,62,c),
(33,54,l),
(33,0,l),
(551,0,l),
(561,196,l),
(480,196,l),
(453,57,l),
(280,57,l),
(278,140,o),
(278,222,o),
(278,294,cs),
(278,347,ls),
(278,430,o),
(278,513,o),
(280,595,c),
(363,603,l),
(363,657,l),
(33,657,l),
(33,603,l),
(108,595,l),
(110,513,o),
(110,430,o),
(110,347,cs)
);
},
{
closed = 1;
nodes = (
(378,-109,o),
(375,-95,o),
(368,-75,c),
(342,-57,o),
(325,-53,o),
(303,-53,cs),
(262,-53,o),
(230,-80,o),
(230,-117,cs),
(230,-149,o),
(252,-173,o),
(285,-190,c),
(266,-207,o),
(244,-217,o),
(213,-230,c),
(228,-269,l),
(311,-242,o),
(378,-194,o),
(378,-126,cs)
);
}
);
width = 580;
}
);
note = uni013B;
unicode = 315;
},
{
glyphname = Ldot;
kernLeft = B;
layers = (
{
hints = (
{
horizontal = 1;
place = (599,58);
type = Stem;
},
{
horizontal = 1;
place = (299,180);
type = Stem;
},
{
horizontal = 1;
place = (0,196);
type = Stem;
},
{
horizontal = 1;
place = (0,58);
type = Stem;
},
{
horizontal = 1;
place = (0,57);
type = Stem;
},
{
place = (389,180);
type = Stem;
},
{
place = (110,168);
type = Stem;
}
);
layerId = m01;
shapes = (
{
closed = 1;
nodes = (
(110,289,ls),
(110,223,o),
(110,143,o),
(108,62,c),
(33,54,l),
(33,0,l),
(551,0,l),
(561,196,l),
(480,196,l),
(453,57,l),
(280,57,l),
(278,140,o),
(278,222,o),
(278,294,cs),
(278,347,ls),
(278,430,o),
(278,513,o),
(280,595,c),
(363,603,l),
(363,657,l),
(33,657,l),
(33,603,l),
(108,595,l),
(110,513,o),
(110,430,o),
(110,347,cs)
);
},
{
closed = 1;
nodes = (
(530,299,o),
(569,339,o),
(569,388,cs),
(569,437,o),
(530,479,o),
(479,479,cs),
(428,479,o),
(389,437,o),
(389,388,cs),
(389,339,o),
(428,299,o),
(479,299,cs)
);
}
);
width = 580;
}
);
note = Ldot;
unicode = 319;
},
{
glyphname = uni1E36;
kernLeft = B;
kernRight = L;
layers = (
{
hints = (
{
horizontal = 1;
place = (599,58);
type = Stem;
},
{
horizontal = 1;
place = (0,196);
type = Stem;
},
{
horizontal = 1;
place = (0,58);
type = Stem;
},
{
horizontal = 1;
place = (0,57);
type = Stem;
},
{
horizontal = 1;
place = (-225,159);
type = Stem;
},
{
place = (236,170);
type = Stem;
},
{
place = (110,168);
type = Stem;
}
);
layerId = m01;
shapes = (
{
closed = 1;
nodes = (
(110,289,ls),
(110,223,o),
(110,143,o),
(108,62,c),
(33,54,l),
(33,0,l),
(551,0,l),
(561,196,l),
(480,196,l),
(453,57,l),
(280,57,l),
(278,140,o),
(278,222,o),
(278,294,cs),
(278,347,ls),
(278,430,o),
(278,513,o),
(280,595,c),
(363,603,l),
(363,657,l),
(33,657,l),
(33,603,l),
(108,595,l),
(110,513,o),
(110,430,o),
(110,347,cs)
);
},
{
closed = 1;
nodes = (
(368,-225,o),
(406,-192,o),
(406,-146,cs),
(406,-99,o),
(368,-66,o),
(321,-66,cs),
(274,-66,o),
(236,-99,o),
(236,-146,cs),
(236,-192,o),
(274,-225,o),
(321,-225,cs)
);
}
);
width = 580;
}
);
note = uni1E36;
unicode = 7734;
},
{
glyphname = uni1E38;
kernLeft = B;
kernRight = L;
layers = (
{
hints = (
{
horizontal = 1;
place = (729,89);
type = Stem;
},
{
horizontal = 1;
place = (599,58);
type = Stem;
},
{
horizontal = 1;
place = (0,196);
type = Stem;
},
{
horizontal = 1;
place = (0,58);
type = Stem;
},
{
horizontal = 1;
place = (0,57);
type = Stem;
},
{
horizontal = 1;
place = (-225,159);
type = Stem;
},
{
place = (236,170);
type = Stem;
},
{
place = (110,168);
type = Stem;
},
{
place = (36,322);
type = Stem;
}
);
layerId = m01;
shapes = (
{
closed = 1;
nodes = (
(110,289,ls),
(110,223,o),
(110,143,o),
(108,62,c),
(33,54,l),
(33,0,l),
(551,0,l),
(561,196,l),
(480,196,l),
(453,57,l),
(280,57,l),
(278,140,o),
(278,222,o),
(278,294,cs),
(278,347,ls),
(278,430,o),
(278,513,o),
(280,595,c),
(363,603,l),
(363,657,l),
(33,657,l),
(33,603,l),
(108,595,l),
(110,513,o),
(110,430,o),
(110,347,cs)
);
},
{
closed = 1;
nodes = (
(368,-225,o),
(406,-192,o),
(406,-146,cs),
(406,-99,o),
(368,-66,o),
(321,-66,cs),
(274,-66,o),
(236,-99,o),
(236,-146,cs),
(236,-192,o),
(274,-225,o),
(321,-225,cs)
);
},
{
closed = 1;
nodes = (
(36,729,l),
(358,729,l),
(358,818,l),
(36,818,l)
);
}
);
width = 580;
}
);
note = uni1E38;
unicode = 7736;
},
{
glyphname = uni1E3A;
kernLeft = B;
kernRight = L;
layers = (
{
hints = (
{
horizontal = 1;
place = (599,58);
type = Stem;
},
{
horizontal = 1;
place = (0,196);
type = Stem;
},
{
horizontal = 1;
place = (0,58);
type = Stem;
},
{
horizontal = 1;
place = (0,57);
type = Stem;
},
{
horizontal = 1;
place = (-193,89);
type = Stem;
},
{
place = (159,318);
type = Stem;
},
{
place = (110,168);
type = Stem;
}
);
layerId = m01;
shapes = (
{
closed = 1;
nodes = (
(110,289,ls),
(110,223,o),
(110,143,o),
(108,62,c),
(33,54,l),
(33,0,l),
(551,0,l),
(561,196,l),
(480,196,l),
(453,57,l),
(280,57,l),
(278,140,o),
(278,222,o),
(278,294,cs),
(278,347,ls),
(278,430,o),
(278,513,o),
(280,595,c),
(363,603,l),
(363,657,l),
(33,657,l),
(33,603,l),
(108,595,l),
(110,513,o),
(110,430,o),
(110,347,cs)
);
},
{
closed = 1;
nodes = (
(159,-193,l),
(477,-193,l),
(477,-104,l),
(159,-104,l)
);
}
);
width = 580;
}
);
note = uni1E3A;
unicode = 7738;
},
{
glyphname = Lslash;
kernLeft = B;
kernRight = L;
layers = (
{
hints = (
{
horizontal = 1;
place = (599,58);
type = Stem;
},
{
horizontal = 1;
place = (0,196);
type = Stem;
},
{
horizontal = 1;
place = (0,58);
type = Stem;
},
{
horizontal = 1;
place = (0,57);
type = Stem;
},
{
place = (110,168);
type = Stem;
}
);
layerId = m01;
shapes = (
{
closed = 1;
nodes = (
(110,318,l),
(31,276,l),
(31,202,l),
(110,244,l),
(110,188,o),
(110,125,o),
(108,62,c),
(33,54,l),
(33,0,l),
(551,0,l),
(561,196,l),
(480,196,l),
(453,57,l),
(280,57,l),
(278,140,o),
(278,222,o),
(278,294,cs),
(278,326,l),
(402,392,l),
(402,466,l),
(278,401,l),
(278,466,o),
(278,530,o),
(280,595,c),
(363,603,l),
(363,657,l),
(33,657,l),
(33,603,l),
(108,595,l),
(110,513,o),
(110,430,o),
(110,347,cs)
);
}
);
width = 580;
}
);
note = Lslash;
unicode = 321;
},
{
glyphname = uni1E3E;
kernLeft = M;
kernRight = H;
layers = (
{
hints = (
{
horizontal = 1;
place = (599,58);
type = Stem;
},
{
horizontal = 1;
place = (598,59);
type = Stem;
},
{
horizontal = 1;
place = (0,60);
type = Stem;
},
{
horizontal = 1;
place = (0,58.5);
type = Stem;
},
{
horizontal = 1;
place = (0,58);
type = Stem;
},
{
place = (617,170);
type = Stem;
},
{
place = (115,65);
type = Stem;
}
);
layerId = m01;
shapes = (
{
closed = 1;
nodes = (
(18,0,l),
(262,0,l),
(262,54,l),
(180,67,l),
(180,311,l),
(175,511,l),
(366,0,l),
(443,0,l),
(621,510,l),
(619,289,ls),
(618,223,o),
(619,144,o),
(617,63,c),
(544,54,l),
(544,0,l),
(863,0,l),
(863,54,l),
(789,62,l),
(787,144,o),
(787,227,o),
(787,310,cs),
(787,347,ls),
(787,430,o),
(787,513,o),
(789,595,c),
(860,603,l),
(860,657,l),
(607,657,l),
(454,217,l),
(291,657,l),
(27,657,l),
(27,603,l),
(115,593,l),
(115,66,l),
(18,54,l)
);
},
{
closed = 1;
nodes = (
(413,685,l),
(464,708,o),
(516,730,o),
(568,754,cs),
(615,775,o),
(625,800,o),
(625,819,cs),
(625,845,o),
(602,870,o),
(570,870,cs),
(547,870,o),
(528,861,o),
(496,830,cs),
(460,796,o),
(422,760,o),
(385,724,c)
);
}
);
width = 896;
}
);
note = uni1E3E;
unicode = 7742;
},
{
glyphname = uni1E42;
kernLeft = M;
kernRight = H;
layers = (
{
hints = (
{
horizontal = 1;
place = (599,58);
type = Stem;
},
{
horizontal = 1;
place = (598,59);
type = Stem;
},
{
horizontal = 1;
place = (0,60);
type = Stem;
},
{
horizontal = 1;
place = (0,58.5);
type = Stem;
},
{
horizontal = 1;
place = (0,58);
type = Stem;
},
{
horizontal = 1;
place = (-225,159);
type = Stem;
},
{
place = (617,170);
type = Stem;
},
{
place = (321,170);
type = Stem;
},
{
place = (115,65);
type = Stem;
}
);
layerId = m01;
shapes = (
{
closed = 1;
nodes = (
(18,0,l),
(262,0,l),
(262,54,l),
(180,67,l),
(180,311,l),
(175,511,l),
(366,0,l),
(443,0,l),
(621,510,l),
(619,289,ls),
(618,223,o),
(619,144,o),
(617,63,c),
(544,54,l),
(544,0,l),
(863,0,l),
(863,54,l),
(789,62,l),
(787,144,o),
(787,227,o),
(787,310,cs),
(787,347,ls),
(787,430,o),
(787,513,o),
(789,595,c),
(860,603,l),
(860,657,l),
(607,657,l),
(454,217,l),
(291,657,l),
(27,657,l),
(27,603,l),
(115,593,l),
(115,66,l),
(18,54,l)
);
},
{
closed = 1;
nodes = (
(453,-225,o),
(491,-192,o),
(491,-146,cs),
(491,-99,o),
(453,-66,o),
(406,-66,cs),
(359,-66,o),
(321,-99,o),
(321,-146,cs),
(321,-192,o),
(359,-225,o),
(406,-225,cs)
);
}
);
width = 896;
}
);
note = uni1E42;
unicode = 7746;
},
{
glyphname = Nacute;
kernLeft = M;
kernRight = N;
layers = (
{
hints = (
{
horizontal = 1;
place = (603,54);
type = Stem;
},
{
horizontal = 1;
place = (599.5,57.5);
type = Stem;
},
{
horizontal = 1;
place = (596.5,60.5);
type = Stem;
},
{
horizontal = 1;
place = (0,60.5);
type = Stem;
},
{
place = (550,64);
type = Stem;
},
{
place = (436,178);
type = Stem;
},
{
place = (113,179);
type = Stem;
},
{
place = (113,65);
type = Stem;
}
);
layerId = m01;
shapes = (
{
closed = 1;
nodes = (
(436,603,l),
(550,590,l),
(550,253,l),
(256,657,l),
(30,657,l),
(30,603,l),
(99,596,l),
(113,577,l),
(113,66,l),
(28,54,l),
(28,0,l),
(292,0,l),
(292,54,l),
(178,67,l),
(178,486,l),
(530,-2,l),
(614,-2,l),
(614,590,l),
(699,603,l),
(699,657,l),
(436,657,l)
);
},
{
closed = 1;
nodes = (
(319,691,l),
(370,714,o),
(422,736,o),
(474,760,cs),
(521,781,o),
(531,806,o),
(531,825,cs),
(531,851,o),
(508,876,o),
(476,876,cs),
(453,876,o),
(434,867,o),
(402,836,cs),
(366,802,o),
(328,766,o),
(291,730,c)
);
}
);
width = 728;
}
);
note = Nacute;
unicode = 323;
},
{
glyphname = Ncaron;
kernLeft = M;
kernRight = N;
layers = (
{
hints = (
{
horizontal = 1;
place = (603,54);
type = Stem;
},
{
horizontal = 1;
place = (599.5,57.5);
type = Stem;
},
{
horizontal = 1;
place = (596.5,60.5);
type = Stem;
},
{
horizontal = 1;
place = (0,60.5);
type = Stem;
},
{
place = (550,64);
type = Stem;
},
{
place = (436,178);
type = Stem;
},
{
place = (113,179);
type = Stem;
},
{
place = (113,65);
type = Stem;
}
);
layerId = m01;
shapes = (
{
closed = 1;
nodes = (
(436,603,l),
(550,590,l),
(550,253,l),
(256,657,l),
(30,657,l),
(30,603,l),
(99,596,l),
(113,577,l),
(113,66,l),
(28,54,l),
(28,0,l),
(292,0,l),
(292,54,l),
(178,67,l),
(178,486,l),
(530,-2,l),
(614,-2,l),
(614,590,l),
(699,603,l),
(699,657,l),
(436,657,l)
);
},
{
closed = 1;
nodes = (
(227,882,l),
(194,850,l),
(322,702,l),
(408,702,l),
(537,850,l),
(503,882,l),
(365,792,l)
);
}
);
width = 728;
}
);
note = Ncaron;
unicode = 327;
},
{
glyphname = uni01F8;
kernLeft = M;
kernRight = N;
layers = (
{
hints = (
{
horizontal = 1;
place = (603,54);
type = Stem;
},
{
horizontal = 1;
place = (599.5,57.5);
type = Stem;
},
{
horizontal = 1;
place = (596.5,60.5);
type = Stem;
},
{
horizontal = 1;
place = (0,60.5);
type = Stem;
},
{
place = (550,64);
type = Stem;
},
{
place = (436,178);
type = Stem;
},
{
place = (113,179);
type = Stem;
},
{
place = (113,65);
type = Stem;
}
);
layerId = m01;
shapes = (
{
closed = 1;
nodes = (
(436,603,l),
(550,590,l),
(550,253,l),
(256,657,l),
(30,657,l),
(30,603,l),
(99,596,l),
(113,577,l),
(113,66,l),
(28,54,l),
(28,0,l),
(292,0,l),
(292,54,l),
(178,67,l),
(178,486,l),
(530,-2,l),
(614,-2,l),
(614,590,l),
(699,603,l),
(699,657,l),
(436,657,l)
);
},
{
closed = 1;
nodes = (
(431,734,l),
(394,771,o),
(355,807,o),
(320,840,cs),
(288,871,o),
(269,880,o),
(246,880,cs),
(214,880,o),
(191,855,o),
(191,829,cs),
(191,810,o),
(201,784,o),
(249,762,cs),
(301,739,o),
(353,717,o),
(403,695,c)
);
}
);
width = 728;
}
);
note = uni01F8;
unicode = 504;
},
{
glyphname = Ntilde;
kernLeft = M;
kernRight = N;
layers = (
{
hints = (
{
horizontal = 1;
place = (759,97);
type = Stem;
},
{
horizontal = 1;
place = (700,97);
type = Stem;
},
{
horizontal = 1;
place = (603,54);
type = Stem;
},
{
horizontal = 1;
place = (599.5,57.5);
type = Stem;
},
{
horizontal = 1;
place = (596.5,60.5);
type = Stem;
},
{
horizontal = 1;
place = (0,60.5);
type = Stem;
},
{
place = (550,64);
type = Stem;
},
{
place = (436,178);
type = Stem;
},
{
place = (113,179);
type = Stem;
},
{
place = (113,65);
type = Stem;
}
);
layerId = m01;
shapes = (
{
closed = 1;
nodes = (
(436,603,l),
(550,590,l),
(550,253,l),
(256,657,l),
(30,657,l),
(30,603,l),
(99,596,l),
(113,577,l),
(113,66,l),
(28,54,l),
(28,0,l),
(292,0,l),
(292,54,l),
(178,67,l),
(178,486,l),
(530,-2,l),
(614,-2,l),
(614,590,l),
(699,603,l),
(699,657,l),
(436,657,l)
);
},
{
closed = 1;
nodes = (
(227,700,l),
(240,736,o),
(260,759,o),
(290,759,cs),
(316,759,o),
(337,741,o),
(357,727,cs),
(378,713,o),
(406,700,o),
(436,700,cs),
(493,700,o),
(537,752,o),
(548,840,c),
(506,857,l),
(493,820,o),
(472,797,o),
(442,797,cs),
(417,797,o),
(395,815,o),
(375,829,cs),
(353,843,o),
(331,856,o),
(299,856,cs),
(240,856,o),
(196,805,o),
(185,717,c)
);
}
);
width = 728;
}
);
note = Ntilde;
unicode = 209;
},
{
glyphname = uni0145;
kernLeft = M;
kernRight = N;
layers = (
{
hints = (
{
horizontal = 1;
place = (603,54);
type = Stem;
},
{
horizontal = 1;
place = (599.5,57.5);
type = Stem;
},
{
horizontal = 1;
place = (596.5,60.5);
type = Stem;
},
{
horizontal = 1;
place = (0,60.5);
type = Stem;
},
{
place = (550,64);
type = Stem;
},
{
place = (436,178);
type = Stem;
},
{
place = (309,148);
type = Stem;
},
{
place = (113,179);
type = Stem;
},
{
place = (113,65);
type = Stem;
}
);
layerId = m01;
shapes = (
{
closed = 1;
nodes = (
(436,603,l),
(550,590,l),
(550,253,l),
(256,657,l),
(30,657,l),
(30,603,l),
(99,596,l),
(113,577,l),
(113,66,l),
(28,54,l),
(28,0,l),
(292,0,l),
(292,54,l),
(178,67,l),
(178,486,l),
(530,-2,l),
(614,-2,l),
(614,590,l),
(699,603,l),
(699,657,l),
(436,657,l)
);
},
{
closed = 1;
nodes = (
(457,-106,o),
(454,-92,o),
(447,-72,c),
(421,-54,o),
(404,-50,o),
(382,-50,cs),
(341,-50,o),
(309,-77,o),
(309,-114,cs),
(309,-146,o),
(331,-170,o),
(364,-187,c),
(345,-204,o),
(323,-214,o),
(292,-227,c),
(307,-266,l),
(390,-239,o),
(457,-191,o),
(457,-123,cs)
);
}
);
width = 728;
}
);
note = uni0145;
unicode = 325;
},
{
glyphname = uni1E44;
kernLeft = M;
kernRight = N;
layers = (
{
hints = (
{
horizontal = 1;
place = (703,159);
type = Stem;
},
{
horizontal = 1;
place = (603,54);
type = Stem;
},
{
horizontal = 1;
place = (599.5,57.5);
type = Stem;
},
{
horizontal = 1;
place = (596.5,60.5);
type = Stem;
},
{
horizontal = 1;
place = (0,60.5);
type = Stem;
},
{
place = (550,64);
type = Stem;
},
{
place = (436,178);
type = Stem;
},
{
place = (278,170);
type = Stem;
},
{
place = (113,179);
type = Stem;
},
{
place = (113,65);
type = Stem;
}
);
layerId = m01;
shapes = (
{
closed = 1;
nodes = (
(436,603,l),
(550,590,l),
(550,253,l),
(256,657,l),
(30,657,l),
(30,603,l),
(99,596,l),
(113,577,l),
(113,66,l),
(28,54,l),
(28,0,l),
(292,0,l),
(292,54,l),
(178,67,l),
(178,486,l),
(530,-2,l),
(614,-2,l),
(614,590,l),
(699,603,l),
(699,657,l),
(436,657,l)
);
},
{
closed = 1;
nodes = (
(410,703,o),
(448,736,o),
(448,783,cs),
(448,829,o),
(410,862,o),
(363,862,cs),
(316,862,o),
(278,829,o),
(278,783,cs),
(278,736,o),
(316,703,o),
(363,703,cs)
);
}
);
width = 728;
}
);
note = uni1E44;
unicode = 7748;
},
{
glyphname = uni1E46;
kernLeft = M;
kernRight = N;
layers = (
{
hints = (
{
horizontal = 1;
place = (603,54);
type = Stem;
},
{
horizontal = 1;
place = (599.5,57.5);
type = Stem;
},
{
horizontal = 1;
place = (596.5,60.5);
type = Stem;
},
{
horizontal = 1;
place = (0,60.5);
type = Stem;
},
{
horizontal = 1;
place = (-225,159);
type = Stem;
},
{
place = (550,64);
type = Stem;
},
{
place = (436,178);
type = Stem;
},
{
place = (293,170);
type = Stem;
},
{
place = (113,179);
type = Stem;
},
{
place = (113,65);
type = Stem;
}
);
layerId = m01;
shapes = (
{
closed = 1;
nodes = (
(436,603,l),
(550,590,l),
(550,253,l),
(256,657,l),
(30,657,l),
(30,603,l),
(99,596,l),
(113,577,l),
(113,66,l),
(28,54,l),
(28,0,l),
(292,0,l),
(292,54,l),
(178,67,l),
(178,486,l),
(530,-2,l),
(614,-2,l),
(614,590,l),
(699,603,l),
(699,657,l),
(436,657,l)
);
},
{
closed = 1;
nodes = (
(425,-225,o),
(463,-192,o),
(463,-146,cs),
(463,-99,o),
(425,-66,o),
(378,-66,cs),
(331,-66,o),
(293,-99,o),
(293,-146,cs),
(293,-192,o),
(331,-225,o),
(378,-225,cs)
);
}
);
width = 728;
}
);
note = uni1E46;
unicode = 7750;
},
{
glyphname = uni1E48;
kernLeft = M;
kernRight = N;
layers = (
{
hints = (
{
horizontal = 1;
place = (603,54);
type = Stem;
},
{
horizontal = 1;
place = (599.5,57.5);
type = Stem;
},
{
horizontal = 1;
place = (596.5,60.5);
type = Stem;
},
{
horizontal = 1;
place = (0,60.5);
type = Stem;
},
{
horizontal = 1;
place = (-193,89);
type = Stem;
},
{
place = (550,64);
type = Stem;
},
{
place = (436,178);
type = Stem;
},
{
place = (205,318);
type = Stem;
},
{
place = (205,87);
type = Stem;
},
{
place = (113,179);
type = Stem;
},
{
place = (113,65);
type = Stem;
}
);
layerId = m01;
shapes = (
{
closed = 1;
nodes = (
(205,-193,l),
(523,-193,l),
(523,-104,l),
(205,-104,l)
);
},
{
closed = 1;
nodes = (
(436,603,l),
(550,590,l),
(550,253,l),
(256,657,l),
(30,657,l),
(30,603,l),
(99,596,l),
(113,577,l),
(113,66,l),
(28,54,l),
(28,0,l),
(292,0,l),
(292,54,l),
(178,67,l),
(178,486,l),
(530,-2,l),
(614,-2,l),
(614,590,l),
(699,603,l),
(699,657,l),
(436,657,l)
);
}
);
width = 728;
}
);
note = uni1E48;
unicode = 7752;
},
{
glyphname = Ograve;
kernLeft = C;
kernRight = O;
layers = (
{
hints = (
{
horizontal = 1;
place = (618,58);
type = Stem;
},
{
horizontal = 1;
place = (-19,58);
type = Stem;
},
{
place = (491,177);
type = Stem;
},
{
place = (34,177);
type = Stem;
}
);
layerId = m01;
shapes = (
{
closed = 1;
nodes = (
(211,494,o),
(251,618,o),
(351,618,cs),
(452,618,o),
(491,494,o),
(491,329,cs),
(491,163,o),
(452,39,o),
(351,39,cs),
(251,39,o),
(211,163,o),
(211,329,cs)
);
},
{
closed = 1;
nodes = (
(187,676,o),
(34,559,o),
(34,329,cs),
(34,95,o),
(186,-19,o),
(351,-19,cs),
(516,-19,o),
(668,98,o),
(668,329,cs),
(668,562,o),
(515,676,o),
(351,676,cs)
);
},
{
closed = 1;
nodes = (
(426,737,l),
(389,774,o),
(350,810,o),
(315,843,cs),
(283,874,o),
(264,883,o),
(241,883,cs),
(209,883,o),
(186,858,o),
(186,832,cs),
(186,813,o),
(196,787,o),
(244,765,cs),
(296,742,o),
(348,720,o),
(398,698,c)
);
}
);
width = 702;
}
);
note = Ograve;
unicode = 210;
},
{
glyphname = Oacute;
kernLeft = C;
kernRight = O;
layers = (
{
hints = (
{
horizontal = 1;
place = (618,58);
type = Stem;
},
{
horizontal = 1;
place = (-19,58);
type = Stem;
},
{
place = (491,177);
type = Stem;
},
{
place = (34,177);
type = Stem;
}
);
layerId = m01;
shapes = (
{
closed = 1;
nodes = (
(211,494,o),
(251,618,o),
(351,618,cs),
(452,618,o),
(491,494,o),
(491,329,cs),
(491,163,o),
(452,39,o),
(351,39,cs),
(251,39,o),
(211,163,o),
(211,329,cs)
);
},
{
closed = 1;
nodes = (
(187,676,o),
(34,559,o),
(34,329,cs),
(34,95,o),
(186,-19,o),
(351,-19,cs),
(516,-19,o),
(668,98,o),
(668,329,cs),
(668,562,o),
(515,676,o),
(351,676,cs)
);
},
{
closed = 1;
nodes = (
(309,698,l),
(360,721,o),
(412,743,o),
(464,767,cs),
(511,788,o),
(521,813,o),
(521,832,cs),
(521,858,o),
(498,883,o),
(466,883,cs),
(443,883,o),
(424,874,o),
(392,843,cs),
(356,809,o),
(318,773,o),
(281,737,c)
);
}
);
width = 702;
}
);
note = Oacute;
unicode = 211;
},
{
glyphname = uni014E;
kernLeft = C;
kernRight = O;
layers = (
{
hints = (
{
horizontal = 1;
place = (717,81);
type = Stem;
},
{
horizontal = 1;
place = (618,58);
type = Stem;
},
{
horizontal = 1;
place = (-19,58);
type = Stem;
},
{
place = (491,177);
type = Stem;
},
{
place = (34,177);
type = Stem;
}
);
layerId = m01;
shapes = (
{
closed = 1;
nodes = (
(211,494,o),
(251,618,o),
(351,618,cs),
(452,618,o),
(491,494,o),
(491,329,cs),
(491,163,o),
(452,39,o),
(351,39,cs),
(251,39,o),
(211,163,o),
(211,329,cs)
);
},
{
closed = 1;
nodes = (
(187,676,o),
(34,559,o),
(34,329,cs),
(34,95,o),
(186,-19,o),
(351,-19,cs),
(516,-19,o),
(668,98,o),
(668,329,cs),
(668,562,o),
(515,676,o),
(351,676,cs)
);
},
{
closed = 1;
nodes = (
(186,852,l),
(200,780,o),
(249,717,o),
(351,717,cs),
(453,717,o),
(502,780,o),
(516,852,c),
(470,870,l),
(447,825,o),
(410,798,o),
(351,798,cs),
(292,798,o),
(254,825,o),
(232,870,c)
);
}
);
width = 702;
}
);
note = uni014E;
unicode = 334;
},
{
glyphname = Ocircumflex;
kernLeft = C;
kernRight = O;
layers = (
{
hints = (
{
horizontal = 1;
place = (618,58);
type = Stem;
},
{
horizontal = 1;
place = (-19,58);
type = Stem;
},
{
place = (491,177);
type = Stem;
},
{
place = (34,177);
type = Stem;
}
);
layerId = m01;
shapes = (
{
closed = 1;
nodes = (
(211,494,o),
(251,618,o),
(351,618,cs),
(452,618,o),
(491,494,o),
(491,329,cs),
(491,163,o),
(452,39,o),
(351,39,cs),
(251,39,o),
(211,163,o),
(211,329,cs)
);
},
{
closed = 1;
nodes = (
(187,676,o),
(34,559,o),
(34,329,cs),
(34,95,o),
(186,-19,o),
(351,-19,cs),
(516,-19,o),
(668,98,o),
(668,329,cs),
(668,562,o),
(515,676,o),
(351,676,cs)
);
},
{
closed = 1;
nodes = (
(385,874,l),
(317,874,l),
(167,723,l),
(197,687,l),
(351,772,l),
(505,687,l),
(535,723,l)
);
}
);
width = 702;
}
);
note = Ocircumflex;
unicode = 212;
},
{
glyphname = Otilde;
kernLeft = C;
kernRight = O;
layers = (
{
hints = (
{
horizontal = 1;
place = (769,97);
type = Stem;
},
{
horizontal = 1;
place = (710,97);
type = Stem;
},
{
horizontal = 1;
place = (618,58);
type = Stem;
},
{
horizontal = 1;
place = (-19,58);
type = Stem;
},
{
place = (491,177);
type = Stem;
},
{
place = (34,177);
type = Stem;
}
);
layerId = m01;
shapes = (
{
closed = 1;
nodes = (
(211,494,o),
(251,618,o),
(351,618,cs),
(452,618,o),
(491,494,o),
(491,329,cs),
(491,163,o),
(452,39,o),
(351,39,cs),
(251,39,o),
(211,163,o),
(211,329,cs)
);
},
{
closed = 1;
nodes = (
(187,676,o),
(34,559,o),
(34,329,cs),
(34,95,o),
(186,-19,o),
(351,-19,cs),
(516,-19,o),
(668,98,o),
(668,329,cs),
(668,562,o),
(515,676,o),
(351,676,cs)
);
},
{
closed = 1;
nodes = (
(212,710,l),
(225,746,o),
(245,769,o),
(275,769,cs),
(301,769,o),
(322,751,o),
(342,737,cs),
(363,723,o),
(391,710,o),
(421,710,cs),
(478,710,o),
(522,762,o),
(533,850,c),
(491,867,l),
(478,830,o),
(457,807,o),
(427,807,cs),
(402,807,o),
(380,825,o),
(360,839,cs),
(338,853,o),
(316,866,o),
(284,866,cs),
(225,866,o),
(181,815,o),
(170,727,c)
);
}
);
width = 702;
}
);
note = Otilde;
unicode = 213;
},
{
glyphname = Odieresis;
kernLeft = C;
kernRight = O;
layers = (
{
hints = (
{
horizontal = 1;
place = (713,138);
type = Stem;
},
{
horizontal = 1;
place = (618,58);
type = Stem;
},
{
horizontal = 1;
place = (-19,58);
type = Stem;
},
{
place = (491,177);
type = Stem;
},
{
place = (402,147);
type = Stem;
},
{
place = (153,147);
type = Stem;
},
{
place = (34,177);
type = Stem;
}
);
layerId = m01;
shapes = (
{
closed = 1;
nodes = (
(211,494,o),
(251,618,o),
(351,618,cs),
(452,618,o),
(491,494,o),
(491,329,cs),
(491,163,o),
(452,39,o),
(351,39,cs),
(251,39,o),
(211,163,o),
(211,329,cs)
);
},
{
closed = 1;
nodes = (
(187,676,o),
(34,559,o),
(34,329,cs),
(34,95,o),
(186,-19,o),
(351,-19,cs),
(516,-19,o),
(668,98,o),
(668,329,cs),
(668,562,o),
(515,676,o),
(351,676,cs)
);
},
{
closed = 1;
nodes = (
(266,713,o),
(300,739,o),
(300,782,cs),
(300,825,o),
(266,851,o),
(226,851,cs),
(188,851,o),
(153,825,o),
(153,782,cs),
(153,739,o),
(188,713,o),
(226,713,cs)
);
},
{
closed = 1;
nodes = (
(515,713,o),
(549,739,o),
(549,782,cs),
(549,825,o),
(515,851,o),
(475,851,cs),
(437,851,o),
(402,825,o),
(402,782,cs),
(402,739,o),
(437,713,o),
(475,713,cs)
);
}
);
width = 702;
}
);
note = Odieresis;
unicode = 214;
},
{
glyphname = Omacron;
kernLeft = C;
kernRight = O;
layers = (
{
hints = (
{
horizontal = 1;
place = (729,89);
type = Stem;
},
{
horizontal = 1;
place = (618,58);
type = Stem;
},
{
horizontal = 1;
place = (-19,58);
type = Stem;
},
{
place = (491,177);
type = Stem;
},
{
place = (190,322);
type = Stem;
},
{
place = (34,177);
type = Stem;
}
);
layerId = m01;
shapes = (
{
closed = 1;
nodes = (
(211,494,o),
(251,618,o),
(351,618,cs),
(452,618,o),
(491,494,o),
(491,329,cs),
(491,163,o),
(452,39,o),
(351,39,cs),
(251,39,o),
(211,163,o),
(211,329,cs)
);
},
{
closed = 1;
nodes = (
(187,676,o),
(34,559,o),
(34,329,cs),
(34,95,o),
(186,-19,o),
(351,-19,cs),
(516,-19,o),
(668,98,o),
(668,329,cs),
(668,562,o),
(515,676,o),
(351,676,cs)
);
},
{
closed = 1;
nodes = (
(190,729,l),
(512,729,l),
(512,818,l),
(190,818,l)
);
}
);
width = 702;
}
);
note = Omacron;
unicode = 332;
},
{
glyphname = Ohungarumlaut;
kernLeft = C;
kernRight = O;
layers = (
{
hints = (
{
horizontal = 1;
place = (618,58);
type = Stem;
},
{
horizontal = 1;
place = (-19,58);
type = Stem;
},
{
place = (491,177);
type = Stem;
},
{
place = (34,177);
type = Stem;
}
);
layerId = m01;
shapes = (
{
closed = 1;
nodes = (
(211,494,o),
(251,618,o),
(351,618,cs),
(452,618,o),
(491,494,o),
(491,329,cs),
(491,163,o),
(452,39,o),
(351,39,cs),
(251,39,o),
(211,163,o),
(211,329,cs)
);
},
{
closed = 1;
nodes = (
(187,676,o),
(34,559,o),
(34,329,cs),
(34,95,o),
(186,-19,o),
(351,-19,cs),
(516,-19,o),
(668,98,o),
(668,329,cs),
(668,562,o),
(515,676,o),
(351,676,cs)
);
},
{
closed = 1;
nodes = (
(231,718,l),
(271,695,l),
(370,809,ls),
(385,827,o),
(392,840,o),
(392,857,cs),
(392,882,o),
(369,897,o),
(345,897,cs),
(319,897,o),
(300,882,o),
(286,850,cs)
);
},
{
closed = 1;
nodes = (
(390,718,l),
(430,695,l),
(529,809,ls),
(545,827,o),
(551,840,o),
(551,857,cs),
(551,882,o),
(528,897,o),
(504,897,cs),
(478,897,o),
(459,882,o),
(446,850,cs)
);
}
);
width = 702;
}
);
note = Ohungarumlaut;
unicode = 336;
},
{
glyphname = uni01D1;
kernLeft = C;
kernRight = O;
layers = (
{
hints = (
{
horizontal = 1;
place = (618,58);
type = Stem;
},
{
horizontal = 1;
place = (-19,58);
type = Stem;
},
{
place = (491,177);
type = Stem;
},
{
place = (34,177);
type = Stem;
}
);
layerId = m01;
shapes = (
{
closed = 1;
nodes = (
(211,494,o),
(251,618,o),
(351,618,cs),
(452,618,o),
(491,494,o),
(491,329,cs),
(491,163,o),
(452,39,o),
(351,39,cs),
(251,39,o),
(211,163,o),
(211,329,cs)
);
},
{
closed = 1;
nodes = (
(187,676,o),
(34,559,o),
(34,329,cs),
(34,95,o),
(186,-19,o),
(351,-19,cs),
(516,-19,o),
(668,98,o),
(668,329,cs),
(668,562,o),
(515,676,o),
(351,676,cs)
);
},
{
closed = 1;
nodes = (
(213,885,l),
(180,853,l),
(308,705,l),
(394,705,l),
(523,853,l),
(489,885,l),
(351,795,l)
);
}
);
width = 702;
}
);
note = uni01D1;
unicode = 465;
},
{
glyphname = uni1ED0;
kernLeft = C;
kernRight = O;
layers = (
{
hints = (
{
horizontal = 1;
place = (618,58);
type = Stem;
},
{
horizontal = 1;
place = (-19,58);
type = Stem;
},
{
place = (491,177);
type = Stem;
},
{
place = (34,177);
type = Stem;
}
);
layerId = m01;
shapes = (
{
closed = 1;
nodes = (
(211,494,o),
(251,618,o),
(351,618,cs),
(452,618,o),
(491,494,o),
(491,329,cs),
(491,163,o),
(452,39,o),
(351,39,cs),
(251,39,o),
(211,163,o),
(211,329,cs)
);
},
{
closed = 1;
nodes = (
(187,676,o),
(34,559,o),
(34,329,cs),
(34,95,o),
(186,-19,o),
(351,-19,cs),
(516,-19,o),
(668,98,o),
(668,329,cs),
(668,562,o),
(515,676,o),
(351,676,cs)
);
},
{
closed = 1;
nodes = (
(518,788,l),
(575,812,ls),
(619,830,o),
(641,856,o),
(641,883,cs),
(641,913,o),
(619,934,o),
(592,934,cs),
(570,934,o),
(542,922,o),
(515,871,c),
(487,826,l)
);
},
{
closed = 1;
nodes = (
(200,687,l),
(354,772,l),
(508,687,l),
(538,723,l),
(388,874,l),
(320,874,l),
(170,723,l)
);
}
);
width = 702;
}
);
note = uni1ED0;
unicode = 7888;
},
{
glyphname = uni1ED8;
kernLeft = C;
kernRight = O;
layers = (
{
hints = (
{
horizontal = 1;
place = (618,58);
type = Stem;
},
{
horizontal = 1;
place = (-19,58);
type = Stem;
},
{
horizontal = 1;
place = (-225,159);
type = Stem;
},
{
place = (491,177);
type = Stem;
},
{
place = (266,170);
type = Stem;
},
{
place = (34,177);
type = Stem;
}
);
layerId = m01;
shapes = (
{
closed = 1;
nodes = (
(398,-225,o),
(436,-192,o),
(436,-146,cs),
(436,-99,o),
(398,-66,o),
(351,-66,cs),
(304,-66,o),
(266,-99,o),
(266,-146,cs),
(266,-192,o),
(304,-225,o),
(351,-225,cs)
);
},
{
closed = 1;
nodes = (
(211,494,o),
(251,618,o),
(351,618,cs),
(452,618,o),
(491,494,o),
(491,329,cs),
(491,163,o),
(452,39,o),
(351,39,cs),
(251,39,o),
(211,163,o),
(211,329,cs)
);
},
{
closed = 1;
nodes = (
(187,676,o),
(34,559,o),
(34,329,cs),
(34,95,o),
(186,-19,o),
(351,-19,cs),
(516,-19,o),
(668,98,o),
(668,329,cs),
(668,562,o),
(515,676,o),
(351,676,cs)
);
},
{
closed = 1;
nodes = (
(385,874,l),
(317,874,l),
(167,723,l),
(197,687,l),
(351,772,l),
(505,687,l),
(535,723,l)
);
}
);
width = 702;
}
);
note = uni1ED8;
unicode = 7896;
},
{
glyphname = uni1ED2;
kernLeft = C;
kernRight = O;
layers = (
{
hints = (
{
horizontal = 1;
place = (618,58);
type = Stem;
},
{
horizontal = 1;
place = (-19,58);
type = Stem;
},
{
place = (491,177);
type = Stem;
},
{
place = (34,177);
type = Stem;
}
);
layerId = m01;
shapes = (
{
closed = 1;
nodes = (
(211,494,o),
(251,618,o),
(351,618,cs),
(452,618,o),
(491,494,o),
(491,329,cs),
(491,163,o),
(452,39,o),
(351,39,cs),
(251,39,o),
(211,163,o),
(211,329,cs)
);
},
{
closed = 1;
nodes = (
(187,676,o),
(34,559,o),
(34,329,cs),
(34,95,o),
(186,-19,o),
(351,-19,cs),
(516,-19,o),
(668,98,o),
(668,329,cs),
(668,562,o),
(515,676,o),
(351,676,cs)
);
},
{
closed = 1;
nodes = (
(184,788,l),
(215,826,l),
(188,871,ls),
(160,923,o),
(132,934,o),
(110,934,cs),
(84,934,o),
(61,913,o),
(61,883,cs),
(61,856,o),
(84,830,o),
(127,812,cs)
);
},
{
closed = 1;
nodes = (
(505,687,l),
(535,723,l),
(385,874,l),
(317,874,l),
(167,723,l),
(197,687,l),
(351,772,l)
);
}
);
width = 702;
}
);
note = uni1ED2;
unicode = 7890;
},
{
glyphname = uni1ED4;
kernLeft = C;
kernRight = O;
layers = (
{
hints = (
{
horizontal = 1;
place = (618,58);
type = Stem;
},
{
horizontal = 1;
place = (-19,58);
type = Stem;
},
{
place = (539,76);
type = Stem;
},
{
place = (491,177);
type = Stem;
},
{
place = (34,177);
type = Stem;
}
);
layerId = m01;
shapes = (
{
closed = 1;
nodes = (
(211,494,o),
(251,618,o),
(351,618,cs),
(452,618,o),
(491,494,o),
(491,329,cs),
(491,163,o),
(452,39,o),
(351,39,cs),
(251,39,o),
(211,163,o),
(211,329,cs)
);
},
{
closed = 1;
nodes = (
(187,676,o),
(34,559,o),
(34,329,cs),
(34,95,o),
(186,-19,o),
(351,-19,cs),
(516,-19,o),
(668,98,o),
(668,329,cs),
(668,562,o),
(515,676,o),
(351,676,cs)
);
},
{
closed = 1;
nodes = (
(197,687,l),
(351,772,l),
(505,687,l),
(535,723,l),
(385,874,l),
(317,874,l),
(167,723,l)
);
},
{
closed = 1;
nodes = (
(495,790,l),
(571,799,o),
(615,832,o),
(615,885,cs),
(615,947,o),
(566,984,o),
(466,993,c),
(456,892,l),
(517,887,o),
(539,877,o),
(539,863,cs),
(539,852,o),
(530,841,o),
(486,833,c)
);
}
);
width = 702;
}
);
note = uni1ED4;
unicode = 7892;
},
{
glyphname = uni1ED6;
kernLeft = C;
kernRight = O;
layers = (
{
hints = (
{
horizontal = 1;
place = (903,86);
type = Stem;
},
{
horizontal = 1;
place = (867,87);
type = Stem;
},
{
horizontal = 1;
place = (618,58);
type = Stem;
},
{
horizontal = 1;
place = (-19,58);
type = Stem;
},
{
place = (491,177);
type = Stem;
},
{
place = (34,177);
type = Stem;
}
);
layerId = m01;
shapes = (
{
closed = 1;
nodes = (
(211,494,o),
(251,618,o),
(351,618,cs),
(452,618,o),
(491,494,o),
(491,329,cs),
(491,163,o),
(452,39,o),
(351,39,cs),
(251,39,o),
(211,163,o),
(211,329,cs)
);
},
{
closed = 1;
nodes = (
(187,676,o),
(34,559,o),
(34,329,cs),
(34,95,o),
(186,-19,o),
(351,-19,cs),
(516,-19,o),
(668,98,o),
(668,329,cs),
(668,562,o),
(515,676,o),
(351,676,cs)
);
},
{
closed = 1;
nodes = (
(196,684,l),
(351,754,l),
(506,684,l),
(535,720,l),
(385,845,l),
(317,845,l),
(167,720,l)
);
},
{
closed = 1;
nodes = (
(214,862,l),
(226,887,o),
(247,903,o),
(275,903,cs),
(301,903,o),
(321,894,o),
(341,887,cs),
(363,878,o),
(389,867,o),
(424,867,cs),
(474,867,o),
(518,909,o),
(528,981,c),
(488,995,l),
(476,969,o),
(454,954,o),
(426,954,cs),
(401,954,o),
(381,962,o),
(360,970,cs),
(339,978,o),
(316,989,o),
(282,989,cs),
(228,989,o),
(184,948,o),
(174,877,c)
);
}
);
width = 702;
}
);
note = uni1ED6;
unicode = 7894;
},
{
glyphname = uni1ECC;
kernLeft = C;
kernRight = O;
layers = (
{
hints = (
{
horizontal = 1;
place = (618,58);
type = Stem;
},
{
horizontal = 1;
place = (-19,58);
type = Stem;
},
{
horizontal = 1;
place = (-225,159);
type = Stem;
},
{
place = (491,177);
type = Stem;
},
{
place = (266,170);
type = Stem;
},
{
place = (34,177);
type = Stem;
}
);
layerId = m01;
shapes = (
{
closed = 1;
nodes = (
(211,494,o),
(251,618,o),
(351,618,cs),
(452,618,o),
(491,494,o),
(491,329,cs),
(491,163,o),
(452,39,o),
(351,39,cs),
(251,39,o),
(211,163,o),
(211,329,cs)
);
},
{
closed = 1;
nodes = (
(187,676,o),
(34,559,o),
(34,329,cs),
(34,95,o),
(186,-19,o),
(351,-19,cs),
(516,-19,o),
(668,98,o),
(668,329,cs),
(668,562,o),
(515,676,o),
(351,676,cs)
);
},
{
closed = 1;
nodes = (
(398,-225,o),
(436,-192,o),
(436,-146,cs),
(436,-99,o),
(398,-66,o),
(351,-66,cs),
(304,-66,o),
(266,-99,o),
(266,-146,cs),
(266,-192,o),
(304,-225,o),
(351,-225,cs)
);
}
);
width = 702;
}
);
note = uni1ECC;
unicode = 7884;
},
{
glyphname = uni1ECE;
kernLeft = C;
kernRight = O;
layers = (
{
hints = (
{
horizontal = 1;
place = (808,100);
type = Stem;
},
{
horizontal = 1;
place = (618,58);
type = Stem;
},
{
horizontal = 1;
place = (-19,58);
type = Stem;
},
{
place = (491,177);
type = Stem;
},
{
place = (370,77);
type = Stem;
},
{
place = (34,177);
type = Stem;
}
);
layerId = m01;
shapes = (
{
closed = 1;
nodes = (
(211,494,o),
(251,618,o),
(351,618,cs),
(452,618,o),
(491,494,o),
(491,329,cs),
(491,163,o),
(452,39,o),
(351,39,cs),
(251,39,o),
(211,163,o),
(211,329,cs)
);
},
{
closed = 1;
nodes = (
(187,676,o),
(34,559,o),
(34,329,cs),
(34,95,o),
(186,-19,o),
(351,-19,cs),
(516,-19,o),
(668,98,o),
(668,329,cs),
(668,562,o),
(515,676,o),
(351,676,cs)
);
},
{
closed = 1;
nodes = (
(326,708,l),
(403,717,o),
(447,748,o),
(447,800,cs),
(447,863,o),
(397,900,o),
(297,908,c),
(288,808,l),
(349,803,o),
(370,794,o),
(370,779,cs),
(370,768,o),
(362,759,o),
(317,750,c)
);
}
);
width = 702;
}
);
note = uni1ECE;
unicode = 7886;
},
{
glyphname = Ohorn;
kernLeft = C;
kernRight = O;
layers = (
{
anchors = (
{
name = bottom;
pos = (351,-22);
},
{
name = top;
pos = (344,685);
}
);
hints = (
{
horizontal = 1;
place = (618,58);
type = Stem;
},
{
horizontal = 1;
place = (-19,58);
type = Stem;
},
{
place = (587,81);
type = Stem;
},
{
place = (554,114);
type = Stem;
},
{
place = (491,177);
type = Stem;
},
{
place = (34,177);
type = Stem;
}
);
layerId = m01;
shapes = (
{
closed = 1;
nodes = (
(211,494,o),
(251,618,o),
(351,618,cs),
(452,618,o),
(491,494,o),
(491,329,cs),
(491,163,o),
(452,39,o),
(351,39,cs),
(251,39,o),
(211,163,o),
(211,329,cs)
);
},
{
closed = 1;
nodes = (
(187,676,o),
(34,559,o),
(34,329,cs),
(34,95,o),
(186,-19,o),
(351,-19,cs),
(516,-19,o),
(668,98,o),
(668,329,cs),
(668,438,o),
(634,521,o),
(582,579,c),
(632,607,o),
(668,658,o),
(668,721,cs),
(668,744,o),
(667,761,o),
(657,783,c),
(643,795,o),
(628,799,o),
(611,799,cs),
(578,799,o),
(554,774,o),
(554,748,cs),
(554,709,o),
(587,691,o),
(587,661,cs),
(587,639,o),
(572,622,o),
(547,611,c),
(492,654,o),
(422,676,o),
(351,676,cs)
);
}
);
width = 702;
}
);
note = Ohorn;
unicode = 416;
},
{
glyphname = uni1EDA;
kernLeft = C;
kernRight = O;
layers = (
{
hints = (
{
horizontal = 1;
place = (618,58);
type = Stem;
},
{
horizontal = 1;
place = (-19,58);
type = Stem;
},
{
place = (587,81);
type = Stem;
},
{
place = (554,114);
type = Stem;
},
{
place = (491,177);
type = Stem;
},
{
place = (34,177);
type = Stem;
}
);
layerId = m01;
shapes = (
{
closed = 1;
nodes = (
(211,494,o),
(251,618,o),
(351,618,cs),
(452,618,o),
(491,494,o),
(491,329,cs),
(491,163,o),
(452,39,o),
(351,39,cs),
(251,39,o),
(211,163,o),
(211,329,cs)
);
},
{
closed = 1;
nodes = (
(187,676,o),
(34,559,o),
(34,329,cs),
(34,95,o),
(186,-19,o),
(351,-19,cs),
(516,-19,o),
(668,98,o),
(668,329,cs),
(668,438,o),
(634,521,o),
(582,579,c),
(632,607,o),
(668,658,o),
(668,721,cs),
(668,744,o),
(667,761,o),
(657,783,c),
(643,795,o),
(628,799,o),
(611,799,cs),
(578,799,o),
(554,774,o),
(554,748,cs),
(554,709,o),
(587,691,o),
(587,661,cs),
(587,639,o),
(572,622,o),
(547,611,c),
(492,654,o),
(422,676,o),
(351,676,cs)
);
},
{
closed = 1;
nodes = (
(296,698,l),
(347,721,o),
(399,743,o),
(451,767,cs),
(498,788,o),
(508,813,o),
(508,832,cs),
(508,858,o),
(485,883,o),
(453,883,cs),
(430,883,o),
(411,874,o),
(379,843,cs),
(343,809,o),
(305,773,o),
(268,737,c)
);
}
);
width = 702;
}
);
note = uni1EDA;
unicode = 7898;
},
{
glyphname = uni1EE2;
kernLeft = C;
kernRight = O;
layers = (
{
hints = (
{
horizontal = 1;
place = (618,58);
type = Stem;
},
{
horizontal = 1;
place = (-19,58);
type = Stem;
},
{
horizontal = 1;
place = (-225,159);
type = Stem;
},
{
place = (587,81);
type = Stem;
},
{
place = (554,114);
type = Stem;
},
{
place = (491,177);
type = Stem;
},
{
place = (266,170);
type = Stem;
},
{
place = (34,177);
type = Stem;
}
);
layerId = m01;
shapes = (
{
closed = 1;
nodes = (
(398,-225,o),
(436,-192,o),
(436,-146,cs),
(436,-99,o),
(398,-66,o),
(351,-66,cs),
(304,-66,o),
(266,-99,o),
(266,-146,cs),
(266,-192,o),
(304,-225,o),
(351,-225,cs)
);
},
{
closed = 1;
nodes = (
(211,494,o),
(251,618,o),
(351,618,cs),
(452,618,o),
(491,494,o),
(491,329,cs),
(491,163,o),
(452,39,o),
(351,39,cs),
(251,39,o),
(211,163,o),
(211,329,cs)
);
},
{
closed = 1;
nodes = (
(187,676,o),
(34,559,o),
(34,329,cs),
(34,95,o),
(186,-19,o),
(351,-19,cs),
(516,-19,o),
(668,98,o),
(668,329,cs),
(668,438,o),
(634,521,o),
(582,579,c),
(632,607,o),
(668,658,o),
(668,721,cs),
(668,744,o),
(667,761,o),
(657,783,c),
(643,795,o),
(628,799,o),
(611,799,cs),
(578,799,o),
(554,774,o),
(554,748,cs),
(554,709,o),
(587,691,o),
(587,661,cs),
(587,639,o),
(572,622,o),
(547,611,c),
(492,654,o),
(422,676,o),
(351,676,cs)
);
}
);
width = 702;
}
);
note = uni1EE2;
unicode = 7906;
},
{
glyphname = uni1EDC;
kernLeft = C;
kernRight = O;
layers = (
{
hints = (
{
horizontal = 1;
place = (618,58);
type = Stem;
},
{
horizontal = 1;
place = (-19,58);
type = Stem;
},
{
place = (587,81);
type = Stem;
},
{
place = (554,114);
type = Stem;
},
{
place = (491,177);
type = Stem;
},
{
place = (34,177);
type = Stem;
}
);
layerId = m01;
shapes = (
{
closed = 1;
nodes = (
(211,494,o),
(251,618,o),
(351,618,cs),
(452,618,o),
(491,494,o),
(491,329,cs),
(491,163,o),
(452,39,o),
(351,39,cs),
(251,39,o),
(211,163,o),
(211,329,cs)
);
},
{
closed = 1;
nodes = (
(187,676,o),
(34,559,o),
(34,329,cs),
(34,95,o),
(186,-19,o),
(351,-19,cs),
(516,-19,o),
(668,98,o),
(668,329,cs),
(668,438,o),
(634,521,o),
(582,579,c),
(632,607,o),
(668,658,o),
(668,721,cs),
(668,744,o),
(667,761,o),
(657,783,c),
(643,795,o),
(628,799,o),
(611,799,cs),
(578,799,o),
(554,774,o),
(554,748,cs),
(554,709,o),
(587,691,o),
(587,661,cs),
(587,639,o),
(572,622,o),
(547,611,c),
(492,654,o),
(422,676,o),
(351,676,cs)
);
},
{
closed = 1;
nodes = (
(448,737,l),
(411,774,o),
(372,810,o),
(337,843,cs),
(305,874,o),
(286,883,o),
(263,883,cs),
(231,883,o),
(208,858,o),
(208,832,cs),
(208,813,o),
(218,787,o),
(266,765,cs),
(318,742,o),
(370,720,o),
(420,698,c)
);
}
);
width = 702;
}
);
note = uni1EDC;
unicode = 7900;
},
{
glyphname = uni1EDE;
kernLeft = C;
kernRight = O;
layers = (
{
hints = (
{
horizontal = 1;
place = (808,100);
type = Stem;
},
{
horizontal = 1;
place = (618,58);
type = Stem;
},
{
horizontal = 1;
place = (-19,58);
type = Stem;
},
{
place = (587,81);
type = Stem;
},
{
place = (554,114);
type = Stem;
},
{
place = (491,177);
type = Stem;
},
{
place = (363,77);
type = Stem;
},
{
place = (34,177);
type = Stem;
}
);
layerId = m01;
shapes = (
{
closed = 1;
nodes = (
(211,494,o),
(251,618,o),
(351,618,cs),
(452,618,o),
(491,494,o),
(491,329,cs),
(491,163,o),
(452,39,o),
(351,39,cs),
(251,39,o),
(211,163,o),
(211,329,cs)
);
},
{
closed = 1;
nodes = (
(187,676,o),
(34,559,o),
(34,329,cs),
(34,95,o),
(186,-19,o),
(351,-19,cs),
(516,-19,o),
(668,98,o),
(668,329,cs),
(668,438,o),
(634,521,o),
(582,579,c),
(632,607,o),
(668,658,o),
(668,721,cs),
(668,744,o),
(667,761,o),
(657,783,c),
(643,795,o),
(628,799,o),
(611,799,cs),
(578,799,o),
(554,774,o),
(554,748,cs),
(554,709,o),
(587,691,o),
(587,661,cs),
(587,639,o),
(572,622,o),
(547,611,c),
(492,654,o),
(422,676,o),
(351,676,cs)
);
},
{
closed = 1;
nodes = (
(319,708,l),
(396,717,o),
(440,748,o),
(440,800,cs),
(440,863,o),
(390,900,o),
(290,908,c),
(281,808,l),
(342,803,o),
(363,794,o),
(363,779,cs),
(363,768,o),
(355,759,o),
(310,750,c)
);
}
);
width = 702;
}
);
note = uni1EDE;
unicode = 7902;
},
{
glyphname = uni1EE0;
kernLeft = C;
kernRight = O;
layers = (
{
hints = (
{
horizontal = 1;
place = (762,97);
type = Stem;
},
{
horizontal = 1;
place = (703,97);
type = Stem;
},
{
horizontal = 1;
place = (618,58);
type = Stem;
},
{
horizontal = 1;
place = (-19,58);
type = Stem;
},
{
place = (587,81);
type = Stem;
},
{
place = (554,114);
type = Stem;
},
{
place = (491,177);
type = Stem;
},
{
place = (34,177);
type = Stem;
}
);
layerId = m01;
shapes = (
{
closed = 1;
nodes = (
(211,494,o),
(251,618,o),
(351,618,cs),
(452,618,o),
(491,494,o),
(491,329,cs),
(491,163,o),
(452,39,o),
(351,39,cs),
(251,39,o),
(211,163,o),
(211,329,cs)
);
},
{
closed = 1;
nodes = (
(187,676,o),
(34,559,o),
(34,329,cs),
(34,95,o),
(186,-19,o),
(351,-19,cs),
(516,-19,o),
(668,98,o),
(668,329,cs),
(668,438,o),
(634,521,o),
(582,579,c),
(632,607,o),
(668,658,o),
(668,721,cs),
(668,744,o),
(667,761,o),
(657,783,c),
(643,795,o),
(628,799,o),
(611,799,cs),
(578,799,o),
(554,774,o),
(554,748,cs),
(554,709,o),
(587,691,o),
(587,661,cs),
(587,639,o),
(572,622,o),
(547,611,c),
(492,654,o),
(422,676,o),
(351,676,cs)
);
},
{
closed = 1;
nodes = (
(210,703,l),
(223,739,o),
(243,762,o),
(273,762,cs),
(299,762,o),
(320,744,o),
(340,730,cs),
(361,716,o),
(389,703,o),
(419,703,cs),
(476,703,o),
(520,755,o),
(531,843,c),
(489,860,l),
(476,823,o),
(455,800,o),
(425,800,cs),
(400,800,o),
(378,818,o),
(358,832,cs),
(336,846,o),
(314,859,o),
(282,859,cs),
(223,859,o),
(179,808,o),
(168,720,c)
);
}
);
width = 702;
}
);
note = uni1EE0;
unicode = 7904;
},
{
glyphname = Oslash;
kernLeft = C;
kernRight = O;
layers = (
{
anchors = (
{
name = top;
pos = (351,685);
}
);
hints = (
{
horizontal = 1;
place = (618,58);
type = Stem;
},
{
horizontal = 1;
place = (-19,58);
type = Stem;
},
{
place = (501,167);
type = Stem;
},
{
place = (34,167);
type = Stem;
}
);
layerId = m01;
shapes = (
{
closed = 1;
nodes = (
(652,645,l),
(596,691,l),
(537,618,l),
(484,657,o),
(418,676,o),
(351,676,cs),
(187,676,o),
(34,559,o),
(34,329,cs),
(34,226,o),
(63,146,o),
(110,89,c),
(48,12,l),
(103,-34,l),
(163,40,l),
(217,0,o),
(283,-19,o),
(351,-19,cs),
(516,-19,o),
(668,98,o),
(668,329,cs),
(668,432,o),
(638,512,o),
(590,569,c)
);
},
{
closed = 1;
nodes = (
(201,494,o),
(243,618,o),
(351,618,cs),
(406,618,o),
(444,586,o),
(468,532,c),
(210,212,l),
(204,247,o),
(201,287,o),
(201,329,cs)
);
},
{
closed = 1;
nodes = (
(501,163,o),
(459,39,o),
(351,39,cs),
(295,39,o),
(257,72,o),
(233,127,c),
(492,447,l),
(498,412,o),
(501,372,o),
(501,329,cs)
);
}
);
width = 702;
}
);
note = Oslash;
unicode = 216;
},
{
glyphname = OE;
kernLeft = C;
kernRight = E;
layers = (
{
anchors = (
{
name = top;
pos = (513,685);
}
);
hints = (
{
horizontal = 1;
place = (618,58);
type = Stem;
},
{
horizontal = 1;
place = (601,56);
type = Stem;
},
{
horizontal = 1;
place = (485,172);
type = Stem;
},
{
horizontal = 1;
place = (310,59);
type = Stem;
},
{
horizontal = 1;
place = (0,172);
type = Stem;
},
{
horizontal = 1;
place = (0,56);
type = Stem;
},
{
horizontal = 1;
place = (-19,58);
type = Stem;
},
{
place = (733,58);
type = Stem;
},
{
place = (721,70);
type = Stem;
},
{
place = (445,168);
type = Stem;
},
{
place = (34,177);
type = Stem;
}
);
layerId = m01;
shapes = (
{
closed = 1;
nodes = (
(211,500,o),
(276,618,o),
(404,618,cs),
(417,618,o),
(430,617,o),
(443,616,c),
(445,526,o),
(445,436,o),
(445,347,cs),
(445,310,ls),
(445,219,o),
(445,129,o),
(443,41,c),
(430,40,o),
(417,39,o),
(404,39,cs),
(276,39,o),
(211,157,o),
(211,329,cs)
);
},
{
closed = 1;
nodes = (
(822,172,l),
(803,56,l),
(615,56,l),
(613,137,o),
(613,218,o),
(613,310,c),
(721,310,l),
(733,232,l),
(791,232,l),
(791,447,l),
(733,447,l),
(721,369,l),
(613,369,l),
(613,447,o),
(613,525,o),
(615,601,c),
(783,601,l),
(802,485,l),
(886,485,l),
(879,657,l),
(528,657,l),
(487,669,o),
(438,676,o),
(391,676,cs),
(195,676,o),
(34,565,o),
(34,329,cs),
(34,92,o),
(195,-19,o),
(391,-19,cs),
(441,-19,o),
(490,-11,o),
(528,0,c),
(899,0,l),
(906,172,l)
);
}
);
width = 930;
}
);
note = OE;
unicode = 338;
},
{
glyphname = Racute;
kernLeft = B;
kernRight = R;
layers = (
{
hints = (
{
horizontal = 1;
place = (599,58);
type = Stem;
},
{
horizontal = 1;
place = (302,56);
type = Stem;
},
{
horizontal = 1;
place = (0,58);
type = Stem;
},
{
horizontal = 1;
place = (-14,21);
target = up;
type = BottomGhost;
},
{
place = (443,160);
type = Stem;
},
{
place = (110,165);
type = Stem;
}
);
layerId = m01;
shapes = (
{
closed = 1;
nodes = (
(294,695,l),
(345,718,o),
(397,740,o),
(449,764,cs),
(496,785,o),
(506,810,o),
(506,829,cs),
(506,855,o),
(483,880,o),
(451,880,cs),
(428,880,o),
(409,871,o),
(377,840,cs),
(341,806,o),
(303,770,o),
(266,734,c)
);
},
{
closed = 1;
nodes = (
(110,310,ls),
(110,226,o),
(110,143,o),
(108,62,c),
(33,54,l),
(33,0,l),
(355,0,l),
(355,54,l),
(277,62,l),
(275,139,o),
(275,216,o),
(275,302,c),
(311,302,ls),
(371,302,o),
(396,271,o),
(406,204,cs),
(424,88,ls),
(434,10,o),
(484,-14,o),
(569,-14,cs),
(615,-14,o),
(631,-11,o),
(679,0,c),
(679,54,l),
(603,62,l),
(584,173,ls),
(569,266,o),
(537,318,o),
(424,333,c),
(558,354,o),
(603,424,o),
(603,491,cs),
(603,595,o),
(515,657,o),
(358,657,cs),
(33,657,l),
(33,603,l),
(108,595,l),
(110,513,o),
(110,429,o),
(110,347,cs)
);
},
{
closed = 1;
nodes = (
(317,599,ls),
(399,599,o),
(443,561,o),
(443,480,cs),
(443,416,o),
(412,358,o),
(313,358,cs),
(275,358,l),
(275,432,o),
(275,516,o),
(277,599,c)
);
}
);
width = 683;
}
);
note = Racute;
unicode = 340;
},
{
glyphname = Rcaron;
kernLeft = B;
kernRight = R;
layers = (
{
hints = (
{
horizontal = 1;
place = (599,58);
type = Stem;
},
{
horizontal = 1;
place = (302,56);
type = Stem;
},
{
horizontal = 1;
place = (0,58);
type = Stem;
},
{
horizontal = 1;
place = (-14,21);
target = up;
type = BottomGhost;
},
{
place = (443,160);
type = Stem;
},
{
place = (110,165);
type = Stem;
}
);
layerId = m01;
shapes = (
{
closed = 1;
nodes = (
(110,310,ls),
(110,226,o),
(110,143,o),
(108,62,c),
(33,54,l),
(33,0,l),
(355,0,l),
(355,54,l),
(277,62,l),
(275,139,o),
(275,216,o),
(275,302,c),
(311,302,ls),
(371,302,o),
(396,271,o),
(406,204,cs),
(424,88,ls),
(434,10,o),
(484,-14,o),
(569,-14,cs),
(615,-14,o),
(631,-11,o),
(679,0,c),
(679,54,l),
(603,62,l),
(584,173,ls),
(569,266,o),
(537,318,o),
(424,333,c),
(558,354,o),
(603,424,o),
(603,491,cs),
(603,595,o),
(515,657,o),
(358,657,cs),
(33,657,l),
(33,603,l),
(108,595,l),
(110,513,o),
(110,429,o),
(110,347,cs)
);
},
{
closed = 1;
nodes = (
(317,599,ls),
(399,599,o),
(443,561,o),
(443,480,cs),
(443,416,o),
(412,358,o),
(313,358,cs),
(275,358,l),
(275,432,o),
(275,516,o),
(277,599,c)
);
},
{
closed = 1;
nodes = (
(195,885,l),
(162,853,l),
(290,705,l),
(376,705,l),
(505,853,l),
(471,885,l),
(333,795,l)
);
}
);
width = 683;
}
);
note = Rcaron;
unicode = 344;
},
{
glyphname = uni0156;
kernLeft = B;
kernRight = R;
layers = (
{
hints = (
{
horizontal = 1;
place = (599,58);
type = Stem;
},
{
horizontal = 1;
place = (302,56);
type = Stem;
},
{
horizontal = 1;
place = (0,58);
type = Stem;
},
{
horizontal = 1;
place = (-14,21);
target = up;
type = BottomGhost;
},
{
place = (443,160);
type = Stem;
},
{
place = (289,148);
type = Stem;
},
{
place = (110,165);
type = Stem;
}
);
layerId = m01;
shapes = (
{
closed = 1;
nodes = (
(110,310,ls),
(110,226,o),
(110,143,o),
(108,62,c),
(33,54,l),
(33,0,l),
(355,0,l),
(355,54,l),
(277,62,l),
(275,139,o),
(275,216,o),
(275,302,c),
(311,302,ls),
(371,302,o),
(396,271,o),
(406,204,cs),
(424,88,ls),
(434,10,o),
(484,-14,o),
(569,-14,cs),
(615,-14,o),
(631,-11,o),
(679,0,c),
(679,54,l),
(603,62,l),
(584,173,ls),
(569,266,o),
(537,318,o),
(424,333,c),
(558,354,o),
(603,424,o),
(603,491,cs),
(603,595,o),
(515,657,o),
(358,657,cs),
(33,657,l),
(33,603,l),
(108,595,l),
(110,513,o),
(110,429,o),
(110,347,cs)
);
},
{
closed = 1;
nodes = (
(317,599,ls),
(399,599,o),
(443,561,o),
(443,480,cs),
(443,416,o),
(412,358,o),
(313,358,cs),
(275,358,l),
(275,432,o),
(275,516,o),
(277,599,c)
);
},
{
closed = 1;
nodes = (
(437,-106,o),
(434,-92,o),
(427,-72,c),
(401,-54,o),
(384,-50,o),
(362,-50,cs),
(321,-50,o),
(289,-77,o),
(289,-114,cs),
(289,-146,o),
(311,-170,o),
(344,-187,c),
(325,-204,o),
(303,-214,o),
(272,-227,c),
(287,-266,l),
(370,-239,o),
(437,-191,o),
(437,-123,cs)
);
}
);
width = 683;
}
);
note = uni0156;
unicode = 342;
},
{
glyphname = uni1E5A;
kernLeft = B;
kernRight = R;
layers = (
{
hints = (
{
horizontal = 1;
place = (599,58);
type = Stem;
},
{
horizontal = 1;
place = (302,56);
type = Stem;
},
{
horizontal = 1;
place = (0,58);
type = Stem;
},
{
horizontal = 1;
place = (-225,159);
type = Stem;
},
{
horizontal = 1;
place = (-14,21);
target = up;
type = BottomGhost;
},
{
place = (443,160);
type = Stem;
},
{
place = (280,170);
type = Stem;
},
{
place = (110,165);
type = Stem;
}
);
layerId = m01;
shapes = (
{
closed = 1;
nodes = (
(110,310,ls),
(110,226,o),
(110,143,o),
(108,62,c),
(33,54,l),
(33,0,l),
(355,0,l),
(355,54,l),
(277,62,l),
(275,139,o),
(275,216,o),
(275,302,c),
(311,302,ls),
(371,302,o),
(396,271,o),
(406,204,cs),
(424,88,ls),
(434,10,o),
(484,-14,o),
(569,-14,cs),
(615,-14,o),
(631,-11,o),
(679,0,c),
(679,54,l),
(603,62,l),
(584,173,ls),
(569,266,o),
(537,318,o),
(424,333,c),
(558,354,o),
(603,424,o),
(603,491,cs),
(603,595,o),
(515,657,o),
(358,657,cs),
(33,657,l),
(33,603,l),
(108,595,l),
(110,513,o),
(110,429,o),
(110,347,cs)
);
},
{
closed = 1;
nodes = (
(317,599,ls),
(399,599,o),
(443,561,o),
(443,480,cs),
(443,416,o),
(412,358,o),
(313,358,cs),
(275,358,l),
(275,432,o),
(275,516,o),
(277,599,c)
);
},
{
closed = 1;
nodes = (
(412,-225,o),
(450,-192,o),
(450,-146,cs),
(450,-99,o),
(412,-66,o),
(365,-66,cs),
(318,-66,o),
(280,-99,o),
(280,-146,cs),
(280,-192,o),
(318,-225,o),
(365,-225,cs)
);
}
);
width = 683;
}
);
note = uni1E5A;
unicode = 7770;
},
{
glyphname = uni1E5C;
kernLeft = B;
kernRight = R;
layers = (
{
hints = (
{
horizontal = 1;
place = (729,89);
type = Stem;
},
{
horizontal = 1;
place = (599,58);
type = Stem;
},
{
horizontal = 1;
place = (302,56);
type = Stem;
},
{
horizontal = 1;
place = (0,58);
type = Stem;
},
{
horizontal = 1;
place = (-225,159);
type = Stem;
},
{
horizontal = 1;
place = (-14,21);
target = up;
type = BottomGhost;
},
{
place = (443,160);
type = Stem;
},
{
place = (280,170);
type = Stem;
},
{
place = (182,322);
type = Stem;
},
{
place = (110,165);
type = Stem;
}
);
layerId = m01;
shapes = (
{
closed = 1;
nodes = (
(110,310,ls),
(110,226,o),
(110,143,o),
(108,62,c),
(33,54,l),
(33,0,l),
(355,0,l),
(355,54,l),
(277,62,l),
(275,139,o),
(275,216,o),
(275,302,c),
(311,302,ls),
(371,302,o),
(396,271,o),
(406,204,cs),
(424,88,ls),
(434,10,o),
(484,-14,o),
(569,-14,cs),
(615,-14,o),
(631,-11,o),
(679,0,c),
(679,54,l),
(603,62,l),
(584,173,ls),
(569,266,o),
(537,318,o),
(424,333,c),
(558,354,o),
(603,424,o),
(603,491,cs),
(603,595,o),
(515,657,o),
(358,657,cs),
(33,657,l),
(33,603,l),
(108,595,l),
(110,513,o),
(110,429,o),
(110,347,cs)
);
},
{
closed = 1;
nodes = (
(412,-225,o),
(450,-192,o),
(450,-146,cs),
(450,-99,o),
(412,-66,o),
(365,-66,cs),
(318,-66,o),
(280,-99,o),
(280,-146,cs),
(280,-192,o),
(318,-225,o),
(365,-225,cs)
);
},
{
closed = 1;
nodes = (
(317,599,ls),
(399,599,o),
(443,561,o),
(443,480,cs),
(443,416,o),
(412,358,o),
(313,358,cs),
(275,358,l),
(275,432,o),
(275,516,o),
(277,599,c)
);
},
{
closed = 1;
nodes = (
(182,729,l),
(504,729,l),
(504,818,l),
(182,818,l)
);
}
);
width = 683;
}
);
note = uni1E5C;
unicode = 7772;
},
{
glyphname = uni1E5E;
kernLeft = B;
kernRight = R;
layers = (
{
hints = (
{
horizontal = 1;
place = (599,58);
type = Stem;
},
{
horizontal = 1;
place = (302,56);
type = Stem;
},
{
horizontal = 1;
place = (0,58);
type = Stem;
},
{
horizontal = 1;
place = (-193,89);
type = Stem;
},
{
horizontal = 1;
place = (-14,21);
target = up;
type = BottomGhost;
},
{
place = (443,160);
type = Stem;
},
{
place = (202,318);
type = Stem;
},
{
place = (110,165);
type = Stem;
}
);
layerId = m01;
shapes = (
{
closed = 1;
nodes = (
(110,310,ls),
(110,226,o),
(110,143,o),
(108,62,c),
(33,54,l),
(33,0,l),
(355,0,l),
(355,54,l),
(277,62,l),
(275,139,o),
(275,216,o),
(275,302,c),
(311,302,ls),
(371,302,o),
(396,271,o),
(406,204,cs),
(424,88,ls),
(434,10,o),
(484,-14,o),
(569,-14,cs),
(615,-14,o),
(631,-11,o),
(679,0,c),
(679,54,l),
(603,62,l),
(584,173,ls),
(569,266,o),
(537,318,o),
(424,333,c),
(558,354,o),
(603,424,o),
(603,491,cs),
(603,595,o),
(515,657,o),
(358,657,cs),
(33,657,l),
(33,603,l),
(108,595,l),
(110,513,o),
(110,429,o),
(110,347,cs)
);
},
{
closed = 1;
nodes = (
(317,599,ls),
(399,599,o),
(443,561,o),
(443,480,cs),
(443,416,o),
(412,358,o),
(313,358,cs),
(275,358,l),
(275,432,o),
(275,516,o),
(277,599,c)
);
},
{
closed = 1;
nodes = (
(202,-193,l),
(520,-193,l),
(520,-104,l),
(202,-104,l)
);
}
);
width = 683;
}
);
note = uni1E5E;
unicode = 7774;
},
{
glyphname = Sacute;
kernLeft = S;
kernRight = S;
layers = (
{
hints = (
{
horizontal = 1;
place = (616,60);
type = Stem;
},
{
horizontal = 1;
place = (-19,60);
type = Stem;
},
{
place = (360,152);
type = Stem;
},
{
place = (46,148);
type = Stem;
}
);
layerId = m01;
shapes = (
{
closed = 1;
nodes = (
(213,41,o),
(183,47,o),
(153,59,c),
(133,182,l),
(40,182,l),
(34,34,l),
(91,-2,o),
(176,-19,o),
(251,-19,cs),
(422,-19,o),
(512,65,o),
(512,183,cs),
(512,284,o),
(459,339,o),
(332,397,cs),
(285,418,ls),
(226,445,o),
(194,472,o),
(194,525,cs),
(194,580,o),
(240,616,o),
(297,616,cs),
(322,616,o),
(343,611,o),
(364,603,c),
(383,485,l),
(475,485,l),
(483,625,l),
(435,657,o),
(366,676,o),
(294,676,cs),
(143,676,o),
(46,603,o),
(46,483,cs),
(46,372,o),
(114,313,o),
(231,259,cs),
(274,240,ls),
(334,213,o),
(360,189,o),
(360,136,cs),
(360,82,o),
(322,41,o),
(250,41,cs)
);
},
{
closed = 1;
nodes = (
(253,698,l),
(304,721,o),
(356,743,o),
(408,767,cs),
(455,788,o),
(465,813,o),
(465,832,cs),
(465,858,o),
(442,883,o),
(410,883,cs),
(387,883,o),
(368,874,o),
(336,843,cs),
(300,809,o),
(262,773,o),
(225,737,c)
);
}
);
width = 541;
}
);
note = Sacute;
unicode = 346;
},
{
glyphname = Scaron;
kernLeft = S;
kernRight = S;
layers = (
{
hints = (
{
horizontal = 1;
place = (616,60);
type = Stem;
},
{
horizontal = 1;
place = (-19,60);
type = Stem;
},
{
place = (360,152);
type = Stem;
},
{
place = (46,148);
type = Stem;
}
);
layerId = m01;
shapes = (
{
closed = 1;
nodes = (
(213,41,o),
(183,47,o),
(153,59,c),
(133,182,l),
(40,182,l),
(34,34,l),
(91,-2,o),
(176,-19,o),
(251,-19,cs),
(422,-19,o),
(512,65,o),
(512,183,cs),
(512,284,o),
(459,339,o),
(332,397,cs),
(285,418,ls),
(226,445,o),
(194,472,o),
(194,525,cs),
(194,580,o),
(240,616,o),
(297,616,cs),
(322,616,o),
(343,611,o),
(364,603,c),
(383,485,l),
(475,485,l),
(483,625,l),
(435,657,o),
(366,676,o),
(294,676,cs),
(143,676,o),
(46,603,o),
(46,483,cs),
(46,372,o),
(114,313,o),
(231,259,cs),
(274,240,ls),
(334,213,o),
(360,189,o),
(360,136,cs),
(360,82,o),
(322,41,o),
(250,41,cs)
);
},
{
closed = 1;
nodes = (
(158,892,l),
(125,860,l),
(253,712,l),
(339,712,l),
(468,860,l),
(434,892,l),
(296,802,l)
);
}
);
width = 541;
}
);
note = Scaron;
unicode = 352;
},
{
glyphname = uni015E;
kernLeft = S;
kernRight = S;
layers = (
{
hints = (
{
horizontal = 1;
place = (616,60);
type = Stem;
},
{
horizontal = 1;
place = (-19,60);
type = Stem;
},
{
horizontal = 1;
place = (-225,51);
type = Stem;
},
{
horizontal = 1;
place = (-16,21);
target = up;
type = BottomGhost;
},
{
place = (360,152);
type = Stem;
},
{
place = (300,97);
type = Stem;
},
{
place = (46,148);
type = Stem;
}
);
layerId = m01;
shapes = (
{
closed = 1;
nodes = (
(213,41,o),
(183,47,o),
(153,59,c),
(133,182,l),
(40,182,l),
(34,34,l),
(90,-1,o),
(173,-18,o),
(248,-19,c),
(237,-89,l),
(279,-92,o),
(300,-106,o),
(300,-136,cs),
(300,-159,o),
(284,-174,o),
(248,-174,cs),
(230,-174,o),
(214,-171,o),
(195,-166,c),
(184,-212,l),
(207,-220,o),
(230,-225,o),
(262,-225,cs),
(352,-225,o),
(397,-187,o),
(397,-136,cs),
(397,-96,o),
(367,-64,o),
(297,-51,c),
(301,-16,l),
(439,-2,o),
(512,77,o),
(512,183,cs),
(512,284,o),
(459,339,o),
(332,397,cs),
(285,418,ls),
(226,445,o),
(194,472,o),
(194,525,cs),
(194,580,o),
(240,616,o),
(297,616,cs),
(322,616,o),
(343,611,o),
(364,603,c),
(383,485,l),
(475,485,l),
(483,625,l),
(435,657,o),
(366,676,o),
(294,676,cs),
(143,676,o),
(46,603,o),
(46,483,cs),
(46,372,o),
(114,313,o),
(231,259,cs),
(274,240,ls),
(334,213,o),
(360,189,o),
(360,136,cs),
(360,82,o),
(322,41,o),
(250,41,cs)
);
}
);
width = 541;
}
);
note = uni015E;
unicode = 350;
},
{
glyphname = uni0218;
kernLeft = S;
kernRight = S;
layers = (
{
hints = (
{
horizontal = 1;
place = (616,60);
type = Stem;
},
{
horizontal = 1;
place = (-19,60);
type = Stem;
},
{
place = (360,152);
type = Stem;
},
{
place = (196,148);
type = Stem;
},
{
place = (46,148);
type = Stem;
}
);
layerId = m01;
shapes = (
{
closed = 1;
nodes = (
(213,41,o),
(183,47,o),
(153,59,c),
(133,182,l),
(40,182,l),
(34,34,l),
(91,-2,o),
(176,-19,o),
(251,-19,cs),
(422,-19,o),
(512,65,o),
(512,183,cs),
(512,284,o),
(459,339,o),
(332,397,cs),
(285,418,ls),
(226,445,o),
(194,472,o),
(194,525,cs),
(194,580,o),
(240,616,o),
(297,616,cs),
(322,616,o),
(343,611,o),
(364,603,c),
(383,485,l),
(475,485,l),
(483,625,l),
(435,657,o),
(366,676,o),
(294,676,cs),
(143,676,o),
(46,603,o),
(46,483,cs),
(46,372,o),
(114,313,o),
(231,259,cs),
(274,240,ls),
(334,213,o),
(360,189,o),
(360,136,cs),
(360,82,o),
(322,41,o),
(250,41,cs)
);
},
{
closed = 1;
nodes = (
(344,-109,o),
(341,-95,o),
(334,-75,c),
(308,-57,o),
(291,-53,o),
(269,-53,cs),
(228,-53,o),
(196,-80,o),
(196,-117,cs),
(196,-149,o),
(218,-173,o),
(251,-190,c),
(232,-207,o),
(210,-217,o),
(179,-230,c),
(194,-269,l),
(277,-242,o),
(344,-194,o),
(344,-126,cs)
);
}
);
width = 541;
}
);
note = uni0218;
unicode = 536;
},
